<?xml version="1.0" standalone="no"?>
<!DOCTYPE svg PUBLIC "-//W3C//DTD SVG 20010904//EN"
 "http://www.w3.org/TR/2001/REC-SVG-20010904/DTD/svg10.dtd">
<svg version="1.0" xmlns="http://www.w3.org/2000/svg"
 width="174.000000pt" height="266.000000pt" viewBox="0 0 174.000000 266.000000"
 preserveAspectRatio="xMidYMid meet">

<g transform="translate(0.000000,266.000000) scale(0.100000,-0.100000)"
fill="#000000" stroke="none">
<path d="M0 2460 c0 -110 3 -200 6 -200 3 0 14 5 25 11 15 7 24 7 34 -1 20
-16 79 -17 108 -1 21 11 28 11 51 -4 21 -14 26 -25 26 -61 l0 -44 -125 0 -125
0 0 -170 0 -170 33 0 c20 0 47 12 71 30 l40 30 -62 0 c-59 0 -62 1 -62 25 l0
25 100 0 c84 0 100 -3 100 -16 0 -8 5 -12 10 -9 5 3 10 1 10 -4 0 -6 -7 -11
-15 -11 -8 0 -15 7 -15 15 0 11 -11 15 -43 15 -32 0 -44 -4 -44 -15 0 -18 23
-20 30 -2 4 10 6 10 6 0 1 -7 12 -13 26 -13 14 0 25 -5 25 -11 0 -5 4 -7 10
-4 5 3 10 -2 10 -12 0 -15 2 -16 10 -3 8 13 10 12 10 -2 0 -10 7 -18 15 -18 8
0 15 7 15 15 0 9 9 15 24 15 24 0 24 0 11 -45 -8 -24 -11 -44 -7 -44 27 4 33
-2 17 -17 -14 -15 -14 -17 2 -30 10 -8 14 -14 8 -13 -29 4 -34 -2 -16 -20 10
-10 24 -27 30 -37 9 -17 12 -17 22 -4 8 12 9 8 4 -15 l-7 -30 21 24 c16 18 21
20 21 8 0 -9 -5 -19 -11 -23 -6 -3 -9 -17 -7 -29 4 -17 1 -22 -9 -18 -9 4 -11
0 -7 -11 3 -9 10 -13 15 -10 5 3 9 0 9 -6 0 -6 5 -8 10 -5 7 4 9 -4 5 -22 -5
-31 -81 -251 -109 -318 -9 -21 -24 -71 -33 -110 -8 -38 -20 -75 -25 -82 -5 -7
-8 -20 -5 -30 5 -22 0 -34 62 157 66 202 118 340 126 340 5 0 2 -19 -5 -42
-33 -110 -30 -111 12 -4 17 43 33 70 44 72 14 2 16 -9 16 -72 -1 -41 -5 -74
-9 -74 -10 0 -6 -25 7 -41 21 -27 28 -42 15 -35 -9 6 -10 0 -5 -20 5 -19 4
-25 -4 -20 -8 5 -10 2 -6 -8 3 -9 1 -16 -5 -16 -9 0 -9 -5 0 -21 8 -17 8 -20
-1 -14 -9 5 -10 1 -5 -15 5 -17 4 -21 -6 -15 -9 6 -11 3 -6 -8 6 -16 -35 -142
-44 -133 -2 2 -5 -7 -6 -21 0 -14 -5 -28 -10 -32 -4 -3 -8 -12 -9 -18 -3 -40
-5 -44 -16 -37 -6 4 -8 3 -5 -3 8 -13 -14 -84 -24 -77 -5 3 -6 -2 -3 -10 3 -9
2 -16 -4 -16 -5 0 -10 -10 -10 -23 0 -30 -40 -126 -65 -154 -15 -17 -24 -20
-44 -12 -13 5 -38 9 -54 9 -26 0 -30 3 -25 23 l6 22 -11 -22 c-7 -13 -16 -23
-21 -23 -5 0 -6 6 -3 13 4 6 -1 3 -9 -8 -12 -14 -26 -19 -58 -16 -26 2 -44 -2
-49 -11 -5 -7 -9 -145 -9 -305 l0 -293 870 0 870 0 0 1330 0 1330 -870 0 -870
0 0 -200z m60 148 c0 -9 4 -8 10 2 7 10 10 -8 10 -60 l-1 -75 -34 -16 -35 -16
0 88 c0 88 0 89 25 89 14 0 25 -6 25 -12z m110 0 c0 -9 3 -9 8 -3 4 6 17 12
30 12 21 2 22 -1 22 -90 -1 -83 -2 -90 -15 -73 -8 11 -15 16 -15 12 0 -4 -5
-4 -12 0 -7 4 -23 9 -37 10 -13 2 -28 9 -32 16 -7 10 -9 10 -9 1 0 -7 -4 -13
-10 -13 -6 0 -10 30 -10 70 l0 70 40 0 c25 0 40 -5 40 -12z m610 -59 c0 -34
-3 -39 -22 -39 -20 0 -23 5 -21 37 1 21 2 38 2 38 1 1 10 1 21 2 17 2 20 -4
20 -38z m210 -13 c0 -2 -7 -7 -16 -10 -8 -3 -12 -2 -9 4 6 10 25 14 25 6z m58
-49 c15 -17 22 -35 24 -64 2 -25 18 -1 18 28 0 16 4 29 10 29 5 0 16 12 24 27
l14 28 13 -28 c7 -15 15 -27 18 -27 3 0 6 -60 6 -133 -1 -105 -4 -138 -17
-162 -11 -18 -17 -24 -18 -14 0 9 -6 22 -14 28 -9 8 -13 25 -11 44 11 89 12
117 5 112 -9 -5 -25 -101 -21 -122 1 -7 -3 -22 -9 -33 -8 -15 -8 -20 1 -20 7
0 9 -15 5 -47 -4 -27 -2 -54 3 -62 12 -19 41 -6 41 18 0 11 5 23 10 26 6 3 10
19 10 34 0 26 16 51 32 51 4 0 8 -8 8 -17 0 -13 3 -14 12 -5 8 8 8 15 0 24 -8
10 -8 27 -1 57 5 24 12 81 14 128 4 69 8 89 27 112 l23 27 28 -29 c21 -23 27
-39 27 -76 0 -25 5 -80 10 -121 8 -62 7 -80 -6 -108 -8 -18 -19 -30 -25 -27
-14 9 -46 -4 -53 -21 -5 -12 1 -15 22 -14 48 4 48 0 0 -26 -64 -33 -66 -58 -3
-34 17 7 24 7 20 0 -3 -6 -2 -10 4 -10 6 0 8 -6 5 -14 -3 -7 -15 -13 -27 -13
-12 0 -35 -3 -50 -8 -33 -9 -45 -1 -28 18 16 19 24 104 11 112 -5 3 -12 0 -15
-7 -2 -7 -10 -26 -16 -43 -7 -16 -13 -33 -13 -37 -2 -13 -40 -33 -61 -32 -47
2 -46 1 -44 78 2 49 -2 80 -10 90 -7 8 -10 19 -7 24 2 4 1 30 -3 58 l-9 49 -1
-60 c-1 -35 -8 -68 -16 -79 -13 -17 -13 -22 2 -39 17 -18 26 -97 11 -97 -5 0
-8 -11 -8 -25 0 -14 5 -25 10 -25 6 0 10 -4 10 -10 0 -17 -29 -11 -41 8 -10
15 -21 18 -58 14 -53 -5 -79 14 -85 65 -3 26 2 34 37 57 23 14 54 26 69 26 31
0 34 7 14 36 -10 13 -11 23 -4 31 6 8 9 58 7 128 -3 84 -1 116 8 119 7 3 15
17 19 32 6 24 8 25 17 8 5 -11 17 -27 25 -37z m-518 -4 c11 3 23 1 26 -5 12
-20 13 -122 1 -130 -9 -6 -9 -10 -1 -15 9 -7 12 -79 5 -128 0 -6 -16 -9 -35
-7 -26 3 -37 -1 -49 -19 l-16 -22 -10 26 c-6 15 -14 27 -18 27 -5 0 -7 59 -6
131 2 102 6 136 18 149 8 9 15 23 15 30 0 7 11 1 25 -15 17 -18 33 -25 45 -22z
m189 -62 c1 -26 5 -81 10 -125 8 -69 7 -82 -10 -110 -11 -19 -19 -25 -19 -15
0 9 -7 22 -15 29 -8 7 -14 27 -13 46 1 34 -7 53 -18 41 -4 -3 -6 -19 -6 -34 0
-15 -6 -43 -15 -62 l-15 -34 -13 30 c-11 26 -11 49 1 135 8 56 13 112 10 122
-3 12 5 32 22 51 l27 32 26 -31 c19 -22 26 -43 28 -75z m191 60 c31 -6 35 -10
34 -36 0 -17 -6 -40 -13 -53 -12 -23 -13 -23 -26 -5 -8 10 -15 28 -15 41 0 12
-4 22 -10 22 -15 0 -13 -203 2 -218 10 -10 7 -16 -10 -28 -12 -8 -22 -23 -22
-32 -1 -12 -6 -9 -22 12 -19 25 -21 41 -21 150 1 66 -1 110 -4 96 -3 -13 -11
-33 -18 -43 -13 -18 -14 -18 -28 5 -8 12 -14 36 -13 53 1 25 6 30 36 36 19 4
41 17 49 28 l13 21 17 -21 c9 -11 32 -24 51 -28z m574 -73 c4 -32 11 -58 15
-58 4 0 4 26 1 58 -4 42 -1 66 12 91 15 30 18 32 24 15 4 -10 11 -24 16 -31 7
-9 11 -132 8 -281 0 -11 -11 -24 -25 -30 -29 -13 -31 -35 -10 -76 23 -44 11
-42 -21 3 -31 44 -54 53 -54 22 0 -27 -10 -51 -22 -51 -7 0 -8 24 -4 68 5 58
4 64 -7 44 l-13 -23 -13 28 c-9 19 -13 69 -13 155 1 114 4 131 23 157 l21 29
28 -31 c20 -23 29 -48 34 -89z m-1364 25 c-19 -3 -41 -10 -49 -16 -11 -9 -8
-13 16 -18 17 -3 45 -4 62 -1 27 4 30 6 19 21 -9 12 -7 11 9 -2 30 -26 36 -61
18 -97 -28 -54 -86 -66 -129 -27 -14 12 -28 36 -31 52 -4 25 -4 27 5 10 9 -17
10 -16 6 10 -6 43 26 76 73 73 l36 -1 -35 -4z m1510 -183 c13 -8 13 -11 -2
-22 -11 -8 -21 -39 -28 -82 -11 -71 -28 -116 -31 -86 -9 72 2 162 22 187 13
15 19 16 39 3z m-1554 -131 c-1 -33 19 -33 34 -2 l13 28 6 -25 c9 -31 36 -33
35 -2 -1 29 10 28 35 -4 25 -32 27 -71 5 -102 -19 -27 -34 -29 -27 -3 4 15 -1
19 -21 19 -15 0 -26 -6 -26 -14 0 -8 -4 -14 -10 -14 -5 0 -10 6 -10 14 0 8
-10 14 -25 14 -19 0 -25 -6 -25 -22 -1 -21 -1 -21 -20 3 -26 31 -25 79 2 108
27 29 35 29 34 2z m1367 -167 c8 -16 13 -19 18 -10 4 7 11 9 15 5 4 -3 2 -12
-4 -20 -6 -7 -9 -24 -6 -38 3 -13 -7 1 -22 31 -15 30 -28 57 -28 60 -1 3 -4
10 -8 16 -4 6 -4 14 0 18 3 4 11 -3 16 -16 4 -13 13 -33 19 -46z m-1188 -12
c-3 -5 -12 -10 -18 -10 -7 0 -6 4 3 10 19 12 23 12 15 0z m1170 -9 c3 -5 1
-12 -5 -16 -5 -3 -10 1 -10 9 0 18 6 21 15 7z m295 5 c0 -3 -4 -8 -10 -11 -5
-3 -10 -1 -10 4 0 6 5 11 10 11 6 0 10 -2 10 -4z m-1380 -111 c0 -8 -4 -15
-10 -15 -5 0 -7 7 -4 15 4 8 8 15 10 15 2 0 4 -7 4 -15z m1110 -182 c0 -18 -3
-33 -7 -33 -5 0 -8 10 -8 23 -1 12 -4 36 -9 52 -7 28 -7 29 8 10 8 -11 16 -35
16 -52z m-60 22 c0 -16 -27 -32 -37 -22 -3 4 -3 13 0 22 8 20 37 20 37 0z
m-474 -40 c-5 -15 91 -108 103 -100 11 6 92 -50 84 -59 -4 -4 1 -4 11 0 13 5
17 4 12 -4 -5 -8 -1 -10 10 -5 12 4 15 3 10 -5 -4 -7 -3 -12 3 -12 28 0 16 21
-24 41 -25 12 -45 26 -45 31 0 5 -9 18 -20 30 -25 27 -17 37 10 13 18 -17 20
-17 20 -1 0 10 5 14 11 11 6 -4 8 -14 5 -22 -4 -8 -1 -11 5 -7 6 3 9 15 6 25
-3 12 0 19 9 19 8 0 11 6 7 18 -3 11 1 9 12 -6 9 -13 15 -32 12 -43 -3 -10 -1
-19 5 -19 6 0 8 -11 6 -25 -3 -13 -1 -22 3 -19 5 3 9 -6 9 -19 0 -18 7 -27 25
-31 14 -4 23 -11 20 -16 -3 -6 -1 -10 4 -10 6 0 11 4 11 9 0 5 26 11 58 13 31
3 66 9 76 13 14 6 17 5 12 -3 -5 -8 -2 -10 8 -6 9 3 13 11 9 18 -3 6 -3 8 2 4
4 -4 14 -3 22 4 11 9 10 1 -3 -32 l-18 -44 45 -38 c24 -21 49 -38 54 -38 6 0
16 -10 24 -21 12 -20 11 -21 -11 -14 -12 4 -31 7 -40 8 -10 1 -18 4 -18 8 0 7
-62 49 -72 49 -3 0 -15 -22 -28 -50 -13 -27 -27 -47 -33 -43 -5 3 -4 -4 2 -15
17 -33 14 -32 -46 4 -31 19 -63 34 -70 34 -8 0 -19 14 -25 30 l-10 30 -28 -39
c-16 -21 -33 -42 -39 -46 -6 -3 -11 -14 -11 -22 0 -13 8 -9 31 13 l32 29 -7
-38 c-4 -21 -10 -46 -13 -54 -4 -10 -2 -14 5 -9 6 3 13 2 17 -4 9 -14 -23 -12
-70 5 -22 8 -48 15 -59 15 -20 0 -86 37 -98 54 -8 13 7 43 40 79 21 22 23 27
9 27 -10 0 -29 -7 -42 -16 -38 -25 -55 -12 -55 41 0 26 5 56 11 68 10 21 10
21 -5 3 -11 -13 -16 -41 -16 -83 0 -70 -11 -79 -38 -33 -13 21 -18 45 -16 82
5 85 11 120 25 128 9 6 8 9 -4 11 -14 4 -14 8 0 49 21 62 30 72 55 59 11 -6
17 -17 14 -24z m48 9 c3 -8 2 -12 -4 -9 -6 3 -10 10 -10 16 0 14 7 11 14 -7z
m-4 -49 c19 -19 32 -35 29 -35 -3 0 -20 16 -39 35 -19 19 -32 35 -29 35 3 0
20 -16 39 -35z m280 24 c0 -5 4 -8 9 -4 6 3 4 -14 -3 -37 -7 -24 -17 -42 -23
-41 -6 1 -10 -3 -9 -10 0 -7 -3 -14 -8 -17 -14 -7 -16 27 -4 63 5 18 11 38 14
45 4 15 24 16 24 1z m-199 -66 c13 -16 12 -17 -3 -4 -10 7 -18 15 -18 17 0 8
8 3 21 -13z m269 -22 c0 -5 -12 -16 -26 -26 -25 -16 -25 -16 -14 5 6 11 15 18
21 15 5 -4 9 -1 9 4 0 6 2 11 5 11 3 0 5 -4 5 -9z m-74 -59 c-18 -16 -18 -16
-6 6 6 13 14 21 18 18 3 -4 -2 -14 -12 -24z m-486 -8 c0 -8 -4 -12 -10 -9 -5
3 -10 10 -10 16 0 5 5 9 10 9 6 0 10 -7 10 -16z m700 -165 c0 -5 -15 -8 -32
-8 -18 1 -25 3 -15 6 9 2 17 8 17 13 0 5 7 7 15 4 8 -4 15 -10 15 -15z m-160
-91 c0 -4 -13 -14 -30 -23 -57 -29 -79 -12 -39 31 17 18 24 20 45 10 13 -6 24
-14 24 -18z m-489 -49 c-9 -22 -10 -22 -10 -3 -1 11 2 24 6 27 12 12 14 0 4
-24z m599 22 c0 -12 -20 -25 -27 -18 -7 7 6 27 18 27 5 0 9 -4 9 -9z m-567
-31 c-7 -28 -13 -25 -13 6 0 14 4 23 9 20 5 -3 7 -15 4 -26z m28 -3 c-1 -4 -1
-19 -1 -34 0 -33 -5 -28 -13 15 -5 22 -3 32 4 30 6 -2 10 -7 10 -11z m45 -9
l7 -23 8 23 c5 12 13 22 19 22 6 0 8 -4 5 -10 -3 -5 -1 -19 5 -30 11 -21 11
-21 36 -1 21 16 30 18 50 9 13 -6 24 -16 24 -21 0 -5 -12 -2 -26 8 l-27 17 16
-22 c8 -12 13 -30 10 -39 -4 -9 4 -4 16 11 23 28 51 28 51 0 0 -13 2 -13 18 1
24 22 36 22 28 0 -6 -15 -4 -15 14 2 27 24 25 12 -5 -32 -14 -22 -21 -41 -16
-47 5 -6 3 -26 -4 -45 -9 -29 -13 -32 -18 -17 -4 10 -4 24 1 30 4 6 7 17 6 24
-1 6 -2 18 -3 25 -4 27 -27 -23 -25 -53 2 -34 -26 -113 -33 -93 -2 7 1 22 7
35 9 18 6 17 -15 -7 -19 -21 -25 -24 -20 -11 6 19 5 19 -15 1 -11 -10 -20 -14
-21 -9 0 5 -5 -2 -11 -16 -6 -14 -11 -28 -10 -32 1 -3 -5 -9 -13 -12 -12 -4
-12 0 -3 22 17 39 29 53 41 45 6 -3 7 -1 3 6 -4 6 -11 9 -16 6 -5 -3 -12 4
-15 16 -10 30 -23 6 -17 -29 5 -24 3 -25 -11 -14 -14 12 -15 9 -10 -19 3 -23
1 -30 -9 -27 -7 3 -13 9 -13 15 0 5 -8 17 -17 27 -21 20 -23 27 -7 23 6 -1 14
4 16 11 3 7 -1 11 -9 10 -8 -2 -12 5 -11 20 2 12 -2 22 -7 22 -6 0 -10 -4 -10
-10 0 -5 -4 -10 -10 -10 -5 0 -10 17 -10 38 0 23 -3 32 -8 24 -5 -8 -8 0 -8
21 1 20 6 34 14 34 6 0 12 -6 12 -14 0 -7 3 -12 8 -12 24 4 42 -3 42 -16 0
-33 28 -13 38 27 12 48 8 64 -7 24 -14 -36 -29 -33 -33 7 l-3 32 -17 -30 -17
-30 0 35 c-1 70 20 104 35 58z m-106 -92 c0 -39 -6 -30 -13 19 -4 27 -3 35 3
25 5 -8 10 -28 10 -44z m660 10 c0 -2 -8 -10 -17 -17 -16 -13 -17 -12 -4 4 13
16 21 21 21 13z m-643 -38 c-3 -7 -5 -2 -5 12 0 14 2 19 5 13 2 -7 2 -19 0
-25z m427 -54 c12 -5 13 -9 3 -19 -7 -7 -16 -11 -20 -8 -5 3 -7 -11 -4 -30 6
-43 -9 -45 -36 -6 -21 31 -13 72 8 42 12 -15 13 -15 19 5 8 24 8 24 30 16z
m-735 -88 c-3 -3 -11 5 -18 17 -13 21 -12 21 5 5 10 -10 16 -20 13 -22z m666
-16 c10 -11 16 -20 13 -20 -3 0 -13 9 -23 20 -10 11 -16 20 -13 20 3 0 13 -9
23 -20z m-618 -56 c-3 -3 -15 10 -27 28 l-23 33 28 -28 c15 -16 25 -31 22 -33z
m879 -82 c-14 -14 -16 -14 -16 -1 0 20 23 44 29 28 2 -6 -4 -18 -13 -27z m74
-89 c0 -14 -19 -38 -25 -32 -8 8 5 39 16 39 5 0 9 -3 9 -7z m-550 -58 c0 -26
-32 -50 -56 -41 -20 8 -18 43 4 55 31 19 52 13 52 -14z m481 -68 c-8 -8 -11
-7 -11 4 0 20 13 34 18 19 3 -7 -1 -17 -7 -23z m259 -62 c0 -8 -4 -15 -10 -15
-5 0 -10 7 -10 15 0 8 5 15 10 15 6 0 10 -7 10 -15z m-80 -22 c0 -14 -19 -38
-25 -32 -8 8 5 39 16 39 5 0 9 -3 9 -7z m-207 -179 c-4 -12 -8 -13 -14 -3 -9
15 -2 32 11 24 5 -3 6 -13 3 -21z m-553 -13 c0 -5 -9 -7 -20 -4 -11 3 -20 7
-20 9 0 2 9 4 20 4 11 0 20 -4 20 -9z m822 -83 c-8 -8 -9 -4 -5 13 4 13 8 18
11 10 2 -7 -1 -18 -6 -23z"/>
<path d="M130 2585 c0 -14 5 -25 10 -25 6 0 10 11 10 25 0 14 -4 25 -10 25 -5
0 -10 -11 -10 -25z"/>
<path d="M190 2561 c0 -6 5 -13 10 -16 6 -3 10 1 10 9 0 9 -4 16 -10 16 -5 0
-10 -4 -10 -9z"/>
<path d="M170 2538 c0 -16 5 -28 10 -28 13 0 13 20 0 40 -8 12 -10 9 -10 -12z"/>
<path d="M137 2543 c-11 -10 -8 -53 3 -53 6 0 10 14 10 30 0 31 -2 35 -13 23z"/>
<path d="M752 2545 c0 -16 2 -22 5 -12 2 9 2 23 0 30 -3 6 -5 -1 -5 -18z"/>
<path d="M1267 2356 c-5 -21 -6 -41 -3 -44 12 -11 17 7 14 44 l-3 39 -8 -39z"/>
<path d="M1260 2256 c0 -19 -2 -40 -5 -48 -4 -9 3 -13 20 -13 26 0 33 9 15 20
-6 4 -8 11 -4 16 8 14 -4 59 -16 59 -6 0 -10 -15 -10 -34z"/>
<path d="M912 2124 c-28 -19 -28 -39 -1 -58 27 -18 55 -11 38 10 -17 20 -2 31
21 16 18 -11 20 -9 20 18 0 26 -4 30 -28 30 -15 0 -38 -7 -50 -16z"/>
<path d="M497 2443 c-11 -10 -8 -81 3 -88 6 -4 10 13 10 44 0 52 -1 56 -13 44z"/>
<path d="M497 2323 c-11 -10 -8 -83 3 -83 6 0 10 20 10 45 0 46 -2 50 -13 38z"/>
<path d="M657 2383 c-11 -10 -8 -73 3 -73 6 0 10 18 10 40 0 41 -2 45 -13 33z"/>
<path d="M1431 2308 c-1 -54 2 -68 14 -68 18 0 18 17 0 85 l-13 50 -1 -67z"/>
<path d="M1460 2194 c0 -13 3 -24 8 -24 11 0 38 20 27 20 -5 0 -4 4 3 9 10 6
7 10 -12 13 -22 4 -26 2 -26 -18z"/>
<path d="M82 2355 c0 -16 2 -22 5 -12 2 9 2 23 0 30 -3 6 -5 -1 -5 -18z"/>
<path d="M150 2357 c0 -23 3 -25 22 -18 12 4 24 14 26 21 3 8 -1 11 -10 7 -9
-3 -21 0 -27 6 -8 8 -11 4 -11 -16z"/>
<path d="M85 2311 c-29 -7 -30 -7 -8 -19 12 -7 32 -12 45 -12 24 0 56 16 48
23 -11 10 -57 14 -85 8z"/>
<path d="M1278 1413 c12 -2 30 -2 40 0 9 3 -1 5 -23 4 -22 0 -30 -2 -17 -4z"/>
<path d="M1206 1365 c-3 -8 -1 -15 4 -15 6 0 10 7 10 15 0 8 -2 15 -4 15 -2 0
-6 -7 -10 -15z"/>
<path d="M1355 1370 c3 -5 16 -10 28 -9 21 0 21 1 2 9 -28 12 -37 12 -30 0z"/>
<path d="M1290 1305 c0 -5 5 -17 10 -25 5 -8 10 -10 10 -5 0 6 -5 17 -10 25
-5 8 -10 11 -10 5z"/>
<path d="M1014 1284 c-18 -14 -18 -15 4 -4 12 6 22 13 22 15 0 8 -5 6 -26 -11z"/>
<path d="M1015 1210 c-8 -13 9 -20 24 -11 10 6 9 10 -3 14 -8 3 -18 2 -21 -3z"/>
<path d="M1010 1000 c-9 -16 -15 -18 -38 -10 -25 10 -26 9 -8 -5 11 -8 28 -15
38 -15 10 0 18 -5 18 -11 0 -5 5 -7 12 -3 8 5 7 10 -5 18 -11 9 -12 17 -6 29
6 9 8 17 5 17 -3 0 -10 -9 -16 -20z"/>
<path d="M1070 994 c-22 -60 -22 -58 -6 -45 15 13 30 60 22 69 -3 2 -10 -8
-16 -24z"/>
<path d="M861 974 c0 -11 3 -14 6 -6 3 7 2 16 -1 19 -3 4 -6 -2 -5 -13z"/>
<path d="M34 2224 c3 -9 6 -22 6 -30 0 -8 5 -14 10 -14 6 0 10 14 10 30 0 21
-5 30 -16 30 -11 0 -14 -5 -10 -16z"/>
<path d="M120 2223 c0 -10 4 -14 8 -8 4 6 11 13 16 18 5 4 2 7 -7 7 -10 0 -17
-8 -17 -17z"/>
<path d="M168 2233 c7 -3 16 -2 19 1 4 3 -2 6 -13 5 -11 0 -14 -3 -6 -6z"/>
<path d="M200 2231 c0 -5 7 -11 14 -14 10 -4 13 -1 9 9 -6 15 -23 19 -23 5z"/>
<path d="M40 1906 c0 -9 5 -16 10 -16 6 0 10 4 10 9 0 6 -4 13 -10 16 -5 3
-10 -1 -10 -9z"/>
<path d="M70 1899 c0 -5 5 -7 10 -4 6 3 10 8 10 11 0 2 -4 4 -10 4 -5 0 -10
-5 -10 -11z"/>
<path d="M98 1763 c12 -2 30 -2 40 0 9 3 -1 5 -23 4 -22 0 -30 -2 -17 -4z"/>
<path d="M98 1733 c12 -2 30 -2 40 0 9 3 -1 5 -23 4 -22 0 -30 -2 -17 -4z"/>
<path d="M50 1697 c0 -4 25 -7 55 -6 30 1 53 4 50 7 -8 8 -105 7 -105 -1z"/>
<path d="M241 1604 c0 -11 3 -14 6 -6 3 7 2 16 -1 19 -3 4 -6 -2 -5 -13z"/>
<path d="M348 1603 c7 -3 16 -2 19 1 4 3 -2 6 -13 5 -11 0 -14 -3 -6 -6z"/>
<path d="M50 1575 c0 -8 4 -15 10 -15 5 0 7 7 4 15 -4 8 -8 15 -10 15 -2 0 -4
-7 -4 -15z"/>
<path d="M325 1580 c-3 -6 1 -7 9 -4 18 7 21 14 7 14 -6 0 -13 -4 -16 -10z"/>
<path d="M73 1543 c15 -2 37 -2 50 0 12 2 0 4 -28 4 -27 0 -38 -2 -22 -4z"/>
<path d="M21 1494 c0 -11 3 -14 6 -6 3 7 2 16 -1 19 -3 4 -6 -2 -5 -13z"/>
<path d="M50 1465 c0 -11 12 -15 50 -15 40 0 48 3 44 15 -4 10 -20 15 -50 15
-32 0 -44 -4 -44 -15z"/>
<path d="M335 1439 c-4 -6 -5 -12 -2 -15 2 -3 7 2 10 11 7 17 1 20 -8 4z"/>
<path d="M2 1366 c-1 -20 3 -36 8 -36 6 0 10 -62 10 -155 l0 -155 25 0 c16 0
25 -6 25 -15 0 -8 4 -15 9 -15 5 0 14 7 21 15 7 8 21 15 31 15 22 0 22 -1 8
-32 -8 -20 -16 -23 -45 -20 -28 3 -34 1 -35 -14 -1 -11 -3 -40 -4 -66 l-2 -48
64 0 c35 0 62 4 59 9 -3 5 -1 23 5 40 8 24 8 35 -2 47 -9 11 -9 18 -1 26 7 7
15 8 19 4 4 -4 1 -12 -7 -17 -13 -9 -12 -10 2 -5 10 3 20 1 23 -4 8 -13 -16
-80 -27 -74 -11 7 -10 -7 1 -25 7 -10 11 -6 16 17 3 17 12 33 20 36 9 3 12 0
8 -10 -3 -7 -3 -14 0 -14 3 0 20 45 38 100 31 92 35 99 56 94 27 -7 30 4 7 21
-15 10 -14 18 10 84 14 40 26 78 26 84 -1 13 -67 -157 -95 -243 -18 -55 -35
-86 -35 -61 0 7 -4 9 -10 6 -13 -8 -12 -3 5 70 18 74 18 76 2 69 -9 -3 -14
-19 -13 -42 1 -36 0 -37 -34 -38 -26 -1 -28 -1 -7 3 27 4 27 5 27 84 0 76 -1
79 -20 69 -16 -9 -19 -8 -13 7 5 12 2 15 -10 10 -15 -6 -16 -3 -7 13 6 11 15
20 21 20 6 0 7 5 4 10 -3 6 1 10 9 10 12 0 16 11 16 50 l0 50 -92 1 c-58 0
-85 3 -73 8 11 5 23 7 26 5 4 -2 10 6 14 19 l7 22 6 -23 c7 -23 7 -23 24 -3
10 12 26 18 38 16 11 -2 18 -1 16 3 -2 4 -42 9 -89 10 l-84 3 -1 -35z m73 -71
c-4 -34 -5 -35 -18 -35 -8 0 -13 12 -13 29 0 21 4 29 16 28 11 -1 16 -9 15
-22z m125 -3 c0 -24 -4 -28 -30 -30 -32 -2 -40 14 -17 37 10 11 8 11 -10 2
-13 -6 -23 -8 -23 -3 0 14 8 18 45 20 32 2 35 0 35 -26z m-150 -62 c0 -5 -2
-10 -4 -10 -3 0 -8 5 -11 10 -3 6 -1 10 4 10 6 0 11 -4 11 -10z m6 -26 c-11
-7 -22 -12 -25 -9 -2 3 4 12 15 19 10 8 21 12 24 9 3 -2 -4 -11 -14 -19z m44
-114 c11 -7 7 -10 -17 -10 -18 0 -33 -5 -33 -11 0 -6 7 -9 15 -5 10 4 15 -1
15 -14 0 -13 -7 -20 -18 -20 -14 0 -19 8 -20 29 -1 27 5 33 38 40 3 0 12 -4
20 -9z m70 -41 c0 -13 -9 -17 -35 -17 -26 0 -35 4 -35 17 0 13 9 17 35 17 26
0 35 -4 35 -17z m30 -11 c0 -5 -4 -8 -10 -8 -5 0 -10 10 -10 23 0 18 2 19 10
7 5 -8 10 -18 10 -22z m-90 -87 c0 -5 -5 -11 -12 -13 -8 -3 -6 -7 5 -11 11 -4
20 1 27 13 6 11 15 20 21 20 6 0 8 -4 4 -9 -3 -5 -1 -12 5 -16 16 -10 12 -45
-6 -52 -8 -3 -20 -1 -26 5 -8 8 -15 9 -25 1 -17 -15 -42 5 -38 29 2 9 4 23 4
30 1 14 41 17 41 3z m0 -93 c0 -4 -7 -8 -15 -8 -8 0 -15 4 -15 8 0 5 7 9 15 9
8 0 15 -4 15 -9z m50 0 c0 -4 -9 -8 -20 -8 -11 0 -20 4 -20 8 0 4 9 8 20 8 11
0 20 -4 20 -8z"/>
<path d="M376 1295 c-9 -26 -7 -32 5 -12 6 10 9 21 6 23 -2 3 -7 -2 -11 -11z"/>
<path d="M217 853 c-4 -3 -7 -13 -7 -22 1 -13 3 -13 11 2 11 19 8 33 -4 20z"/>
<path d="M176 805 c-9 -26 -7 -32 5 -12 6 10 9 21 6 23 -2 3 -7 -2 -11 -11z"/>
<path d="M100 780 c0 -5 7 -10 15 -10 8 0 15 5 15 10 0 6 -7 10 -15 10 -8 0
-15 -4 -15 -10z"/>
<path d="M143 751 c-10 -16 -9 -20 4 -25 11 -4 14 -2 9 9 -3 8 -1 15 4 15 6 0
10 5 10 10 0 16 -14 11 -27 -9z"/>
<path d="M170 709 c0 -5 5 -7 10 -4 6 3 10 8 10 11 0 2 -4 4 -10 4 -5 0 -10
-5 -10 -11z"/>
</g>
</svg>
