<?xml version="1.0" standalone="no"?>
<!DOCTYPE svg PUBLIC "-//W3C//DTD SVG 20010904//EN"
 "http://www.w3.org/TR/2001/REC-SVG-20010904/DTD/svg10.dtd">
<svg version="1.0" xmlns="http://www.w3.org/2000/svg"
 width="437.000000pt" height="600.000000pt" viewBox="0 0 437.000000 600.000000"
 preserveAspectRatio="xMidYMid meet">

<g transform="translate(0.000000,600.000000) scale(0.100000,-0.100000)"
fill="#000000" stroke="none">
<path d="M0 3000 l0 -3000 2185 0 2185 0 0 3000 0 3000 -2185 0 -2185 0 0
-3000z m3984 2947 c21 -15 31 -91 40 -302 4 -82 20 -422 36 -755 16 -333 32
-657 35 -720 2 -63 16 -317 30 -565 28 -513 36 -685 28 -636 -2 19 -16 49 -30
65 l-26 31 5 -27 c3 -15 1 -29 -3 -30 -11 -4 -33 -218 -32 -310 0 -37 -4 -65
-8 -62 -5 3 -9 -4 -9 -15 0 -10 6 -22 13 -25 10 -5 10 -7 0 -12 -7 -3 -13 -14
-13 -25 0 -22 -13 -25 -28 -6 -8 9 -8 33 -2 78 21 145 47 520 34 477 -3 -10
-8 -18 -11 -18 -7 0 -67 42 -74 53 -7 9 -95 -247 -105 -306 -3 -20 -10 -40
-15 -43 -5 -3 -9 -14 -9 -25 0 -10 -3 -19 -7 -19 -5 0 -9 -13 -10 -29 -1 -15
-11 -43 -21 -62 -11 -19 -25 -51 -32 -71 -6 -22 -18 -38 -26 -38 -12 0 -13 6
-7 23 4 12 7 37 7 55 0 18 3 27 6 21 4 -6 15 10 24 37 9 26 14 49 12 51 -2 2
-8 -10 -14 -26 -6 -17 -13 -31 -16 -31 -3 0 1 16 7 36 7 19 17 34 21 32 11 -4
9 -7 107 276 43 126 77 231 75 233 -2 3 -9 -13 -16 -34 -17 -53 -23 -57 -58
-39 -38 19 -42 20 -42 3 0 -8 -7 -14 -15 -14 -18 0 -20 24 -2 30 6 2 -7 14
-30 26 -43 21 -52 34 -33 46 6 3 10 10 10 16 0 11 -143 -149 -208 -232 -13
-17 -6 -79 9 -79 5 0 19 -9 31 -19 13 -11 50 -40 82 -65 78 -61 66 -58 -25 4
-40 27 -74 48 -77 46 -4 -5 63 -281 85 -344 16 -47 14 -56 -9 -47 -9 4 -24 41
-37 90 -13 46 -29 89 -37 96 -8 6 -14 17 -14 23 -1 18 -120 156 -136 156 -17
0 -45 -62 -63 -137 -7 -29 -17 -53 -22 -53 -11 0 -11 16 0 60 5 19 12 48 16
64 l6 29 -25 -24 c-14 -13 -26 -30 -26 -37 0 -6 -4 -11 -9 -10 -5 2 -16 -6
-25 -17 -11 -16 -17 -17 -27 -8 -9 9 3 29 57 88 38 43 89 95 114 116 25 22 96
94 157 161 l113 122 -58 24 c-44 18 -69 22 -109 18 -45 -4 -53 -2 -54 12 -1
15 -2 15 -6 1 -4 -17 -52 -44 -61 -35 -2 3 11 29 29 57 32 50 34 51 40 28 6
-21 7 -19 8 11 1 24 18 61 55 120 30 47 53 86 51 88 -2 2 -24 -10 -49 -28 -46
-31 -46 -31 -47 -8 -1 19 -2 18 -8 -6 -5 -24 -20 -37 -76 -68 -88 -47 -214
-93 -282 -103 l-53 -7 15 36 c8 19 15 55 15 78 0 38 7 79 39 229 4 22 3 48 -5
70 -7 19 -13 46 -13 60 -1 14 -12 40 -26 59 -14 19 -25 39 -25 46 0 20 -51
116 -79 150 -14 18 -47 48 -73 67 -42 32 -53 36 -110 36 -35 0 -90 7 -123 15
-55 15 -127 21 -96 9 9 -4 4 -10 -16 -18 -52 -22 -80 -26 -38 -5 52 25 34 25
-33 0 -29 -11 -58 -18 -63 -15 -5 4 -12 -1 -15 -9 -3 -9 -18 -16 -33 -17 -21
0 -23 -2 -7 -8 17 -6 16 -9 -9 -25 -15 -10 -24 -13 -21 -7 9 14 3 14 -27 0
-14 -6 -35 -29 -47 -52 -13 -22 -18 -37 -11 -33 6 4 11 3 11 -3 0 -11 -19 -24
-39 -28 -26 -3 -33 -21 -49 -117 -17 -109 -12 -130 46 -197 29 -34 47 -69 35
-69 -11 0 -65 64 -80 95 -14 30 -14 29 -8 -18 4 -26 13 -64 21 -83 8 -20 14
-45 12 -56 -3 -20 -3 -20 -30 2 -31 24 -216 384 -245 476 l-17 57 -14 -34 c-8
-19 -16 -77 -19 -129 -5 -84 -2 -104 21 -173 14 -42 26 -79 26 -82 0 -2 -42
13 -93 34 -96 39 -249 92 -324 111 -43 11 -53 26 -31 48 8 8 8 12 1 12 -6 0
-16 -13 -22 -28 -7 -16 -39 -55 -71 -87 -59 -58 -61 -59 -125 -63 -61 -4 -65
-3 -74 19 -9 22 -10 22 -10 4 -1 -12 4 -26 10 -32 8 -8 1 -16 -25 -28 -36 -17
-59 -42 -139 -145 -40 -51 -98 -100 -118 -100 -17 0 -9 41 8 47 33 12 84 56
99 84 19 38 18 42 -9 25 -12 -8 -39 -18 -59 -21 -28 -5 -39 -14 -49 -37 -14
-34 -17 -31 -49 40 l-24 52 28 28 c29 31 28 34 -5 110 -14 30 -17 48 -10 60 8
14 12 11 27 -23 9 -22 17 -55 18 -72 0 -18 3 -28 7 -22 4 7 21 0 48 -19 45
-32 74 -35 79 -8 2 10 -2 16 -10 15 -18 -3 -58 16 -87 41 -32 28 -22 34 20 13
19 -9 61 -18 94 -20 l60 -2 -55 10 c-72 14 -85 27 -24 26 33 0 42 -3 29 -8
-11 -4 -15 -8 -8 -8 24 -2 124 41 152 65 16 13 39 24 52 24 33 1 194 56 183
63 -5 3 -26 -1 -47 -8 -27 -9 -48 -10 -70 -4 -18 5 -64 9 -104 9 -68 0 -79 -3
-184 -57 l-112 -57 -18 25 c-10 13 -25 32 -33 42 -9 9 -16 19 -16 22 0 11 42
4 65 -11 23 -15 25 -15 25 1 0 27 -42 135 -50 130 -4 -2 -15 4 -25 15 -21 24
-48 26 -65 5 -18 -22 -5 -58 32 -84 l33 -24 -32 35 c-18 18 -33 40 -33 47 0 7
20 -9 44 -36 52 -57 71 -55 21 2 -38 43 -42 55 -22 55 18 0 40 -26 66 -78 27
-53 24 -68 -9 -45 -14 10 -39 18 -56 19 -35 1 -73 26 -101 66 -10 16 -21 28
-25 28 -3 0 -11 -24 -15 -52 -7 -40 -6 -57 4 -69 7 -8 13 -24 13 -34 0 -12 -9
-5 -30 23 -35 49 -37 70 -10 105 11 14 19 36 19 49 -1 20 -2 20 -6 3 -3 -11
-11 -27 -18 -35 -32 -36 -34 -65 -10 -118 14 -31 20 -54 14 -58 -13 -8 -32 9
-74 66 -39 54 -72 66 -121 45 -39 -16 -42 -21 -53 -82 -10 -52 -3 -71 47 -125
22 -24 50 -124 37 -136 -2 -2 -26 17 -54 43 -45 43 -52 46 -86 39 -38 -7 -59
-30 -70 -76 -11 -42 1 -72 45 -123 22 -25 40 -55 40 -65 0 -10 -30 -47 -66
-82 -36 -35 -80 -83 -97 -108 -17 -25 -43 -60 -59 -78 l-28 -33 0 -165 c0
-108 3 -163 10 -159 5 3 10 1 10 -5 0 -7 5 -6 14 2 11 11 11 14 0 23 -11 8 -9
12 9 20 21 10 22 9 21 -35 -1 -25 -2 -49 -4 -55 -1 -5 -1 -14 0 -20 9 -34 6
-85 -5 -85 -18 0 -26 25 -12 39 8 8 8 11 0 11 -7 0 -10 16 -9 40 2 33 0 40
-16 40 -18 0 -18 -8 -14 -137 3 -76 8 -293 11 -483 29 -1916 30 -1957 50
-1976 7 -8 11 -23 8 -34 -6 -24 21 -38 41 -21 7 6 17 7 21 3 5 -4 5 -2 1 5 -4
7 8 29 29 51 l35 39 -26 74 c-14 40 -31 84 -38 98 -13 26 -11 51 4 51 5 0 23
-29 41 -63 50 -100 53 -103 84 -83 35 23 216 198 276 267 l50 58 -51 108 c-51
109 -227 403 -240 403 -4 0 -20 19 -35 43 -15 23 -45 63 -67 88 -43 53 -51 74
-14 40 24 -23 25 -23 19 -2 -3 11 -9 21 -14 21 -5 0 -9 5 -9 11 0 8 5 8 15 -1
8 -7 15 -19 15 -26 0 -7 14 -23 30 -36 17 -12 30 -28 30 -35 0 -7 4 -13 9 -13
23 0 199 -271 265 -410 20 -41 36 -71 36 -67 0 4 -12 60 -26 125 -14 64 -31
137 -36 162 -16 73 -95 340 -118 400 -12 30 -29 75 -37 100 -9 25 -20 49 -24
55 -5 5 -9 19 -9 31 0 13 -7 29 -15 38 -8 8 -15 21 -15 30 0 8 -5 18 -11 22
-6 3 -23 32 -38 63 -28 59 -37 75 -107 182 -34 54 -39 66 -23 62 10 -3 19 -9
19 -14 0 -5 4 -9 8 -9 14 0 10 34 -6 53 -8 9 -13 20 -10 22 11 11 110 -162
208 -364 55 -114 135 -340 170 -482 11 -42 26 -94 34 -115 15 -41 29 -100 46
-199 5 -33 12 -71 15 -85 3 -14 8 -58 12 -98 3 -39 8 -72 11 -72 9 0 42 33 42
41 0 4 45 54 100 111 l100 103 -5 107 c-7 159 -70 486 -115 593 -4 11 -22 63
-40 115 -17 52 -41 115 -52 139 -10 24 -28 67 -39 95 -11 28 -37 79 -57 113
-31 55 -42 65 -81 78 -45 14 -244 58 -268 58 -7 0 -11 5 -10 10 3 14 -42 36
-73 38 -23 0 -23 1 -5 9 39 17 112 9 249 -25 76 -19 141 -35 143 -35 9 0 1
120 -13 181 l-16 69 -90 78 c-50 42 -122 106 -161 141 -39 35 -88 77 -109 94
-21 16 -35 34 -32 39 3 5 16 1 27 -9 12 -10 9 -3 -8 16 -40 44 -10 29 73 -38
34 -28 67 -51 72 -51 6 0 13 -7 16 -15 7 -17 34 -21 34 -5 0 6 5 10 10 10 6 0
10 -9 10 -21 0 -11 -4 -17 -10 -14 -5 3 -10 2 -10 -4 0 -6 10 -15 21 -22 16
-8 20 -8 14 0 -3 7 -8 40 -10 74 -3 34 -7 91 -11 126 -4 41 -3 62 3 58 6 -4
13 -53 17 -109 11 -167 15 -175 134 -283 l32 -29 50 54 c27 30 50 59 50 63 0
5 5 5 10 2 11 -7 -30 -72 -82 -131 -22 -24 -27 -38 -20 -47 11 -13 28 -93 38
-179 l6 -57 112 -37 c61 -20 130 -47 153 -60 23 -13 52 -24 64 -24 23 0 100
-20 179 -47 52 -17 69 -21 91 -22 17 -1 73 -41 66 -47 -4 -4 -139 34 -256 72
-40 13 -76 24 -78 24 -3 0 10 -19 29 -42 19 -24 56 -76 82 -116 63 -99 127
-185 173 -235 21 -23 47 -55 57 -72 38 -59 127 -165 139 -165 7 0 27 14 46 30
38 34 46 36 55 15 3 -10 -11 -30 -39 -56 -25 -23 -45 -46 -45 -52 0 -14 26
-33 102 -72 38 -20 68 -39 68 -45 0 -11 -79 14 -134 42 -67 35 -95 28 -170
-43 -36 -34 -66 -68 -66 -75 0 -6 23 -14 53 -18 107 -15 220 -47 298 -87 83
-41 102 -64 29 -35 -22 9 -49 16 -60 16 -24 0 -167 38 -193 51 -9 5 -57 12
-106 16 l-89 6 -62 -59 c-140 -134 -369 -378 -370 -394 0 -6 231 -26 410 -37
96 -5 474 -58 535 -74 86 -23 169 -40 183 -37 9 2 16 17 18 38 8 85 14 102 30
89 12 -10 14 -26 9 -75 -4 -34 -4 -67 0 -73 4 -7 21 -2 50 15 61 35 79 25 23
-14 -72 -49 -81 -70 -74 -166 4 -44 3 -94 -2 -111 -7 -27 -13 -30 -51 -33 -37
-3 -48 2 -91 38 -92 77 -358 223 -495 273 -38 14 -91 35 -116 46 -102 46 -353
84 -441 67 -36 -7 -119 -83 -272 -249 -101 -109 -119 -134 -109 -140 16 -10
272 -6 279 4 3 6 10 6 17 1 7 -5 44 -13 82 -17 83 -8 200 -31 223 -44 21 -12
-120 -25 -180 -17 -207 28 -250 31 -363 25 -91 -5 -129 -11 -149 -24 -25 -17
-26 -16 -26 1 0 16 -2 17 -10 4 -13 -20 -13 -33 0 -25 5 3 10 2 10 -2 0 -5 35
-5 77 -1 43 3 103 6 133 6 43 -1 46 -2 15 -5 -22 -2 -110 -10 -196 -18 -147
-14 -159 -14 -195 2 l-39 18 0 380 c0 209 -1 724 -1 1145 -1 421 -1 788 1 815
1 28 0 54 -3 58 -2 5 -6 187 -8 405 -2 219 -7 424 -10 457 -3 33 -5 69 -5 80
0 164 -33 1733 -45 2130 l-6 201 26 12 c13 6 98 14 188 17 418 14 887 26 1366
35 287 6 656 17 820 25 684 34 1405 85 1421 100 10 10 88 4 105 -8z m-1155
-1756 c23 -15 -2 -19 -29 -5 -22 12 -22 14 -5 14 11 0 26 -4 34 -9z m128 -58
c29 -32 53 -62 53 -67 0 -15 -41 26 -56 57 -8 15 -19 25 -24 22 -6 -4 -10 -1
-10 4 0 6 -7 11 -15 11 -8 0 -15 4 -15 9 0 5 -8 12 -17 14 -13 3 -11 5 6 6 18
1 39 -15 78 -56z m-444 -7 c9 3 40 1 70 -6 47 -9 58 -16 85 -55 35 -50 52 -55
79 -22 21 26 93 81 93 71 0 -3 6 -1 14 5 17 14 40 5 73 -31 26 -28 73 -113 73
-133 0 -7 5 -15 11 -17 8 -3 12 -38 13 -100 1 -53 4 -89 7 -80 3 9 10 -28 14
-83 15 -215 5 -415 -23 -415 -12 0 -13 13 -8 78 4 42 12 101 17 130 13 64 6
95 -26 130 l-25 27 0 -23 c0 -13 4 -20 10 -17 6 3 10 -1 10 -10 0 -9 5 -13 10
-10 14 8 13 -48 -1 -79 -6 -13 -17 -22 -24 -20 -6 3 -18 -2 -25 -10 -7 -9 -16
-13 -21 -10 -5 3 -9 -57 -9 -138 0 -144 -18 -280 -40 -302 -8 -8 -15 -6 -25 8
-8 10 -12 22 -10 26 2 4 -2 7 -9 7 -7 0 -13 -6 -13 -13 0 -7 4 -11 9 -8 4 3 8
0 8 -5 0 -7 -23 -11 -55 -11 -51 0 -58 3 -90 37 -25 27 -31 39 -22 45 18 11
116 10 160 -3 44 -12 67 0 67 35 0 20 -1 20 -19 -4 -17 -21 -21 -22 -35 -11
-13 11 -39 12 -113 8 -90 -6 -99 -5 -120 15 -26 25 -30 43 -8 34 11 -4 19 3
25 19 10 26 24 32 35 15 7 -11 94 -8 114 4 9 6 19 2 30 -11 9 -11 29 -24 45
-27 l28 -7 -4 72 c-6 102 -16 109 -158 106 -99 -2 -111 -4 -134 -26 -16 -15
-28 -40 -32 -68 l-7 -45 -37 38 c-35 36 -38 45 -44 108 -5 73 -18 96 -54 99
-12 1 -22 5 -22 10 0 4 -4 6 -9 3 -5 -4 -11 -1 -13 6 -3 7 -7 2 -10 -10 -4
-12 -3 -20 1 -17 5 2 14 -7 22 -21 7 -14 26 -35 41 -46 15 -10 28 -28 28 -40
0 -26 -7 -22 -69 34 -42 38 -51 52 -51 80 0 25 3 29 10 18 11 -17 13 -10 4 14
-3 9 -11 13 -17 9 -7 -4 -8 16 -3 63 4 38 9 141 11 229 5 213 16 256 78 318
37 38 51 46 61 38 7 -6 21 -9 29 -5z m-175 -36 c-22 -30 -35 -41 -22 -17 9 16
36 47 41 47 2 0 -6 -13 -19 -30z m679 -62 c-3 -8 -6 -5 -6 6 -1 11 2 17 5 13
3 -3 4 -12 1 -19z m-741 -44 c-3 -9 -6 -17 -6 -20 0 -2 -7 -1 -15 2 -12 5 -13
10 -4 20 16 19 33 18 25 -2z m804 -72 c23 -60 22 -96 0 -45 -8 17 -18 29 -23
26 -4 -2 -5 6 -2 20 4 15 0 39 -10 58 -13 29 -14 31 0 15 8 -11 24 -44 35 -74z
m-2294 -26 c-6 -25 -29 -35 -40 -17 -3 4 0 22 6 39 11 28 14 30 26 18 9 -9 12
-24 8 -40z m-180 -13 c38 -51 108 -118 145 -140 28 -16 60 -65 96 -146 13 -30
6 -30 -30 2 -29 24 -49 23 -41 -2 17 -55 17 -53 5 -37 -6 8 -16 34 -22 58 -13
47 -20 55 -44 46 -12 -5 -15 -14 -11 -30 11 -41 -2 -27 -34 39 -17 34 -41 72
-53 84 -12 12 -28 29 -36 39 -11 13 -15 13 -22 2 -7 -11 -9 -11 -9 1 0 8 -3
12 -6 9 -14 -15 46 -94 161 -213 160 -164 158 -162 111 -138 -23 12 -61 49
-96 94 -49 63 -61 74 -85 72 -18 -1 -34 5 -45 20 -25 31 -15 35 15 7 14 -13
25 -19 25 -15 0 12 -112 125 -124 125 -5 0 -2 -8 6 -17 27 -32 33 -49 9 -29
-43 38 -64 84 -56 124 11 61 30 82 74 82 33 0 43 -6 67 -37z m246 -45 c-4 -29
-6 -30 -13 -11 -10 28 -33 43 -26 17 15 -53 18 -84 8 -84 -6 0 -11 4 -11 9 0
4 -11 25 -25 46 -15 20 -25 38 -23 39 37 21 75 32 84 25 6 -5 8 -23 6 -41z
m363 -8 c-3 -5 -16 -15 -28 -21 -22 -12 -22 -12 -3 10 19 21 43 30 31 11z
m-439 -63 c30 -32 38 -33 64 -7 l20 20 0 -27 c0 -16 -9 -39 -18 -51 l-18 -24
-19 29 c-10 15 -27 34 -37 41 -10 7 -18 19 -18 27 0 8 -6 12 -14 9 -8 -3 -17
-1 -21 5 -13 23 37 4 61 -22z m2334 -113 c-7 -24 -16 -44 -20 -44 -10 0 -3 59
12 95 18 43 24 6 8 -51z m-2531 -14 c19 -30 33 -41 59 -46 18 -4 36 -14 40
-23 3 -9 10 -19 16 -23 8 -6 8 -8 0 -8 -6 0 -17 -23 -24 -50 -9 -32 -18 -49
-26 -46 -7 3 -15 -5 -18 -17 -12 -46 -14 -9 -2 43 13 58 11 90 -5 90 -5 0 -13
-8 -17 -18 -7 -17 -9 -17 -47 5 l-40 23 31 0 c37 0 49 20 28 47 -13 17 -14 16
-9 -12 4 -21 3 -25 -3 -15 -12 19 -23 90 -14 90 4 0 18 -18 31 -40z m-119 -14
c8 -12 15 -25 15 -31 0 -5 13 -21 28 -34 24 -20 57 -70 57 -85 0 -2 -8 -6 -17
-9 -15 -3 -13 -6 8 -14 23 -10 51 -39 107 -112 27 -36 30 -62 5 -38 -10 8 -29
17 -43 19 -14 2 -37 19 -55 42 -35 46 -44 50 -67 33 -20 -15 -28 -41 -13 -42
15 -1 110 -93 103 -100 -3 -3 -18 5 -34 18 -16 13 -46 34 -67 46 -42 26 -57
48 -57 84 0 25 -21 56 -72 108 -47 46 -30 115 32 135 38 13 48 10 70 -20z
m1814 9 c3 -8 2 -23 -1 -32 -5 -13 -2 -15 11 -10 15 6 17 3 12 -13 -16 -53
-18 -65 -7 -50 9 13 11 12 11 -3 0 -11 7 -34 16 -53 21 -43 11 -55 -19 -26
-23 22 -47 112 -47 176 0 28 14 35 24 11z m-415 -90 c0 -5 -6 -1 -14 9 -8 11
-15 24 -15 30 0 5 7 1 15 -10 8 -10 14 -23 14 -29z m1233 -127 c-41 -96 -42
-97 -36 -53 3 22 12 59 20 82 7 23 11 56 8 72 -4 16 0 39 7 52 13 22 14 19 17
-43 2 -49 -2 -79 -16 -110z m-1106 126 c7 3 16 0 20 -5 3 -6 20 -8 38 -6 17 3
38 3 48 -1 30 -13 208 -157 208 -169 0 -7 7 -13 15 -13 8 0 15 -4 15 -10 0 -5
-8 -10 -17 -10 -14 0 -15 -2 -4 -9 7 -5 10 -14 7 -20 -4 -6 -3 -11 2 -11 6 0
13 -11 16 -24 3 -14 17 -28 33 -34 l28 -10 -30 -2 c-26 -1 -27 -3 -10 -10 17
-7 18 -9 2 -9 -14 -1 -16 -7 -12 -33 4 -18 10 -35 16 -36 5 -2 17 -11 26 -20
15 -15 14 -17 -8 -23 -13 -4 -19 -7 -13 -8 19 -2 86 -32 82 -37 -3 -2 -19 1
-37 7 -22 8 -36 8 -43 1 -7 -7 -3 -12 11 -17 12 -3 21 -12 21 -20 0 -7 8 -12
17 -11 10 0 19 -7 21 -17 3 -16 1 -17 -16 -6 -16 10 -25 10 -44 1 -18 -10 -19
-11 -3 -7 16 4 21 0 23 -20 1 -13 -3 -27 -10 -31 -6 -4 -8 -3 -5 3 8 12 -8 27
-38 36 -17 6 -17 4 4 -13 26 -22 21 -26 -12 -9 -20 9 -20 8 2 -11 30 -26 38
-64 10 -47 -10 6 -15 15 -12 21 4 5 1 6 -6 1 -9 -5 -6 -14 11 -33 l23 -26 -27
17 c-15 9 -29 17 -31 17 -8 0 -3 -36 7 -50 6 -8 1 -6 -12 4 -12 11 -22 14 -22
8 0 -6 4 -14 10 -17 5 -3 15 -16 21 -28 11 -21 11 -21 -7 -6 -10 9 -27 19 -37
22 -15 6 -16 3 -7 -13 15 -28 12 -37 -5 -14 -9 12 -14 14 -15 6 0 -7 -4 -11
-10 -7 -5 3 -7 -10 -5 -32 5 -38 4 -38 -11 -13 -15 25 -15 25 -9 -10 6 -35 6
-35 -9 -10 l-15 25 -1 -25 -1 -25 -11 23 c-11 23 -28 30 -28 11 0 -5 -4 -7
-10 -4 -10 6 -14 -7 -11 -32 1 -7 -3 -13 -9 -13 -5 0 -10 15 -11 33 -1 30 -1
31 -9 7 -6 -18 -8 -20 -9 -7 -1 10 -5 15 -11 12 -14 -9 -12 -56 5 -85 8 -14
14 -29 15 -35 0 -5 -14 15 -31 45 -17 30 -49 73 -70 95 l-38 40 26 34 c26 33
27 33 83 27 92 -11 102 -3 150 120 l41 108 -17 38 c-14 30 -14 40 -4 53 28 33
-20 174 -76 227 -44 40 -105 68 -175 79 -193 32 -339 -85 -339 -272 0 -56 -16
-71 -41 -40 -20 25 -20 58 0 70 10 6 9 10 -4 15 -11 4 -15 12 -11 22 4 12 2
15 -9 11 -8 -4 -20 -1 -27 6 -7 7 -28 19 -46 26 -18 8 -35 17 -37 21 -6 9 35
1 50 -10 18 -13 53 -18 66 -9 11 7 11 9 1 9 -7 0 -10 5 -7 10 3 6 1 10 -5 10
-6 0 -18 7 -26 15 -18 18 -13 19 20 4 20 -9 32 -8 60 5 39 18 43 25 25 43 -9
9 -7 10 10 6 15 -4 21 -1 21 11 0 9 8 16 18 16 13 0 14 2 4 9 -10 6 -8 10 8
14 17 4 20 10 15 27 -6 19 -5 21 13 11 28 -15 32 -14 25 5 -5 13 -2 15 17 9
19 -6 22 -4 16 10 -5 15 -4 16 9 5 13 -11 14 -10 9 5 -7 17 -6 17 19 0 18 -11
27 -13 27 -6 0 7 5 9 11 5 8 -4 9 1 4 17 -8 24 -8 24 14 5 21 -19 21 -19 21 0
1 18 1 18 16 -1 16 -19 16 -19 9 5 l-7 25 22 -23 c12 -13 28 -21 36 -18z
m-316 16 c0 -5 -2 -10 -4 -10 -3 0 -8 5 -11 10 -3 6 -1 10 4 10 6 0 11 -4 11
-10z m-808 -17 c20 -24 78 -139 78 -155 0 -16 -98 80 -116 114 -8 15 -14 34
-14 43 0 20 33 19 52 -2z m-278 -29 c3 -9 6 -25 6 -37 -1 -17 -4 -15 -15 12
-18 39 -18 41 -6 41 5 0 12 -7 15 -16z m128 -35 c-19 -32 -29 -17 -17 28 5 20
9 22 20 13 11 -9 11 -16 -3 -41z m99 -63 c-11 -5 -28 -28 -37 -52 -9 -24 -20
-44 -24 -44 -9 0 -32 -51 -25 -58 3 -3 5 1 5 8 0 7 3 10 6 7 8 -8 80 82 93
117 7 16 18 26 31 26 26 0 25 -15 -2 -35 l-23 -17 23 7 c22 7 23 6 10 -18 -21
-41 -109 -128 -126 -125 -8 2 -18 10 -22 18 -4 8 -17 36 -29 61 -25 51 -23 63
23 130 l31 47 43 -31 c40 -29 42 -32 23 -41z m209 -8 c0 -72 -21 -120 -71
-166 -60 -55 -71 -54 -22 2 41 47 73 122 73 174 0 17 5 32 10 32 6 0 10 -19
10 -42z m-40 -2 c0 -25 -35 -116 -45 -116 -3 0 -5 16 -5 35 0 25 4 35 16 35
12 0 15 6 10 25 -7 27 -1 45 15 45 5 0 9 -11 9 -24z m650 14 c0 -5 -2 -10 -4
-10 -3 0 -8 5 -11 10 -3 6 -1 10 4 10 6 0 11 -4 11 -10z m-969 -43 c-13 -13
-15 1 -4 30 7 17 8 17 11 -1 2 -10 -1 -23 -7 -29z m2321 -59 l-9 -33 -7 33
c-5 22 -3 38 6 49 12 14 13 14 16 1 2 -9 -1 -31 -6 -50z m-1932 -22 c0 -46 -3
-54 -21 -59 -16 -4 -19 -2 -14 11 3 9 9 35 12 59 8 61 23 54 23 -11z m-174 7
c-14 -78 -18 -93 -27 -93 -15 0 -10 79 7 105 22 34 27 31 20 -12z m1962 29
c15 -2 16 -27 0 -55 -12 -22 -12 -22 -18 6 l-5 29 -85 0 -85 1 -3 -31 c-5 -52
-32 -33 -32 23 0 17 6 25 23 27 21 3 179 3 205 0z m-2348 -43 c0 -6 -6 -9 -12
-7 -7 3 -18 -5 -24 -16 -6 -12 -17 -31 -24 -43 -13 -20 -12 -25 7 -51 11 -15
24 -43 28 -62 4 -19 20 -50 36 -70 15 -19 33 -48 39 -65 l11 -30 -23 23 c-14
12 -30 22 -36 22 -6 0 -19 11 -28 25 -18 28 -51 33 -60 10 -9 -24 14 -47 36
-35 16 8 18 5 17 -25 -1 -19 -4 -35 -8 -35 -15 0 -68 70 -79 107 -7 21 -23 58
-36 82 -21 40 -22 46 -8 72 11 23 21 29 47 29 22 0 28 3 18 9 -10 7 -8 12 10
25 13 9 18 16 11 16 -21 0 -13 19 16 33 28 14 62 6 62 -14z m210 -39 c35 -32
61 -62 58 -66 -12 -11 -135 57 -149 83 -11 20 -11 26 1 33 21 14 19 15 90 -50z
m-172 11 c9 -5 11 -17 6 -37 l-7 -29 22 19 c22 20 30 9 9 -12 -19 -19 -33 -14
-45 16 -11 27 -11 26 -12 -13 -1 -22 -5 -47 -11 -55 -15 -25 -24 16 -10 50 6
16 9 34 5 41 -4 6 -1 15 6 20 17 11 21 11 37 0z m2493 -38 c1 -10 1 -25 -1
-33 -2 -23 -62 -151 -68 -146 -2 3 6 38 18 78 12 40 24 82 25 93 3 25 3 25 15
25 6 0 11 -8 11 -17z m-2356 -27 c17 -9 12 -11 -34 -14 -59 -3 -64 -2 -55 21
6 18 51 14 89 -7z m129 -2 c10 -26 7 -32 -23 -42 -23 -8 -31 -7 -35 4 -4 9 1
13 17 11 17 -2 22 3 20 21 -3 25 12 30 21 6z m1356 -14 c43 -22 43 -21 34 -44
-14 -36 -84 0 -84 44 0 25 2 25 50 0z m1430 -25 c-7 -8 -17 -12 -23 -8 -6 4
-25 6 -42 6 -29 -1 -29 -1 -5 7 14 4 38 8 54 9 24 1 27 -1 16 -14z m-2963 -22
c22 -17 48 -27 69 -27 44 0 44 -13 0 -21 -22 -5 -44 -1 -65 9 l-31 17 0 -36
c0 -19 -4 -35 -10 -35 -6 0 -10 27 -10 60 0 33 3 60 6 60 3 0 21 -12 41 -27z
m43 12 c0 -8 -4 -15 -9 -15 -5 0 -14 7 -21 15 -10 13 -9 15 9 15 12 0 21 -6
21 -15z m3076 -4 c32 -11 80 -29 106 -40 l46 -21 -11 -35 c-10 -33 -11 -34
-29 -18 -10 9 -18 13 -18 8 0 -4 -20 10 -43 32 -24 22 -61 46 -83 53 -50 16
-55 19 -49 31 8 12 13 12 81 -10z m-217 -5 c-2 -2 -29 -6 -59 -9 -37 -4 -50
-3 -40 3 14 9 109 15 99 6z m-2337 -45 c13 -11 33 -28 44 -38 12 -10 25 -31
29 -48 l7 -30 -26 24 c-14 14 -26 31 -26 40 0 12 -2 13 -12 3 -8 -8 -13 -41
-13 -87 0 -88 -14 -84 -22 6 -4 45 -12 69 -26 84 l-21 20 17 -27 c21 -34 22
-50 1 -23 -8 11 -19 21 -24 21 -6 1 -11 2 -12 4 -10 7 -38 6 -38 -1 0 -6 -4
-7 -10 -4 -19 11 -50 14 -55 4 -4 -5 -12 -6 -18 -2 -19 12 -37 12 -37 2 0 -6
-5 -7 -10 -4 -15 9 -42 -15 -36 -32 3 -7 0 -13 -7 -13 -7 0 -4 -5 5 -10 32
-19 171 -42 215 -36 l43 6 0 -34 0 -34 -62 4 c-35 2 -74 6 -87 10 -19 6 -22 4
-16 -7 8 -12 6 -12 -8 0 -9 7 -17 10 -17 6 0 -4 -6 -2 -13 4 -8 6 -17 8 -20 5
-3 -3 -20 4 -36 16 -21 15 -31 17 -31 8 0 -9 -3 -10 -8 -2 -9 14 -72 24 -72
11 0 -5 -7 -3 -16 4 -15 12 -16 11 -10 -11 7 -24 6 -24 -8 -6 -9 11 -16 14
-16 8 0 -7 -9 -12 -20 -12 -16 0 -20 7 -20 35 0 33 3 36 83 75 108 52 212 79
309 79 63 1 82 -3 100 -18z m2166 -2 c-2 -7 22 -22 52 -35 30 -13 50 -23 44
-24 -10 0 -111 38 -123 46 -1 2 0 7 4 13 8 15 26 14 23 0z m-2832 -19 c0 -12
-4 -16 -9 -11 -5 5 -6 14 -3 20 10 15 12 14 12 -9z m-298 -32 c-6 -18 -28 -21
-28 -4 0 9 7 16 16 16 9 0 14 -5 12 -12z m3779 -19 c36 -25 44 -35 39 -53 -3
-11 -6 -30 -7 -41 0 -16 -3 -14 -11 8 -6 17 -15 26 -23 23 -7 -2 -16 3 -20 12
-5 14 -7 14 -15 2 -9 -13 -10 -13 -10 0 0 12 -2 12 -9 2 -7 -11 -9 -11 -13 0
-8 19 3 78 14 78 5 0 30 -14 55 -31z m-3774 -44 c-2 -11 -4 -30 -5 -42 -1 -12
-6 -19 -10 -17 -4 3 -8 1 -8 -5 0 -5 6 -12 13 -14 7 -4 6 -6 -4 -6 -14 -1 -17
10 -18 55 0 47 2 55 17 52 10 -2 16 -12 15 -23z m2245 -10 c-3 -3 -9 2 -12 12
-6 14 -5 15 5 6 7 -7 10 -15 7 -18z m-1909 -54 c17 -21 31 -42 31 -45 0 -17
-35 -2 -68 30 -34 34 -35 35 -7 19 l30 -18 -21 24 c-12 13 -24 30 -29 37 -16
29 33 -7 64 -47z m2306 39 c22 -11 44 -20 51 -20 6 0 23 -9 37 -21 15 -11 75
-36 133 -55 106 -34 174 -67 174 -85 0 -13 -6 -12 -77 21 -77 36 -82 37 -57 8
10 -12 -3 -5 -30 15 -56 43 -66 45 -59 16 4 -14 0 -26 -11 -35 -23 -16 -9 -23
56 -31 29 -4 67 -15 83 -26 l30 -19 -30 8 c-43 11 -137 5 -160 -10 -11 -7 -40
-15 -65 -18 l-45 -6 53 25 c28 13 52 29 52 34 0 6 -15 16 -32 24 -31 14 -32
14 -7 15 14 0 33 6 43 13 23 17 10 45 -33 76 -37 27 -37 27 -50 -9 -5 -16 -16
-30 -23 -30 -9 0 -9 -3 2 -10 12 -8 10 -10 -10 -11 -23 0 -24 -1 -5 -10 16 -7
12 -8 -15 -5 l-35 5 29 -13 30 -14 -29 -26 c-16 -15 -39 -29 -52 -32 -12 -4
-20 -10 -17 -15 3 -5 -11 -9 -30 -9 -26 0 -34 -4 -30 -14 3 -8 -4 -24 -15 -35
-12 -12 -21 -23 -21 -26 0 -2 -16 -20 -35 -39 -19 -20 -35 -39 -35 -43 0 -4
-15 -25 -33 -45 -52 -60 -68 -81 -85 -115 -9 -18 -19 -33 -24 -33 -4 0 -8 -6
-8 -14 0 -23 -14 -26 -49 -13 -29 11 -42 27 -21 27 5 0 28 28 51 63 40 59 57
80 122 157 15 17 27 36 27 42 0 5 4 7 10 3 5 -3 16 8 25 25 8 16 20 30 25 30
5 0 21 22 35 50 27 53 34 91 9 50 -13 -21 -14 -22 -9 -4 7 26 -20 41 -29 17
-4 -9 -9 -14 -12 -11 -2 3 -30 -20 -62 -51 -64 -64 -83 -87 -107 -128 -9 -16
-14 -20 -11 -8 6 20 6 20 -9 1 -8 -11 -15 -26 -15 -33 0 -7 -5 -12 -11 -11 -6
2 -22 -26 -35 -62 -13 -36 -22 -53 -19 -38 3 14 8 34 11 45 5 12 4 15 -3 8 -6
-5 -18 -34 -28 -62 -16 -51 -33 -76 -20 -30 5 17 4 19 -4 7 -6 -8 -11 -23 -11
-32 0 -10 -4 -18 -8 -18 -20 0 -41 29 -57 80 -13 39 -32 68 -68 103 l-49 48
33 33 c46 44 104 86 164 121 28 15 52 31 55 34 3 3 12 7 21 9 9 1 42 15 75 31
32 15 89 38 127 51 37 12 67 25 67 28 0 2 -9 2 -21 -1 -30 -8 -16 3 49 39 69
38 86 40 137 14z m-1595 -17 c0 -9 14 -41 31 -71 16 -30 25 -51 20 -47 -12 7
-13 2 -20 -77 0 -10 -9 -18 -20 -18 -15 0 -20 10 -26 48 -10 75 -16 92 -30 92
-27 0 -26 22 0 60 27 39 45 44 45 13z m1260 13 c0 -3 -4 -8 -10 -11 -5 -3 -10
-1 -10 4 0 6 5 11 10 11 6 0 10 -2 10 -4z m-90 -16 c0 -5 -4 -10 -10 -10 -5 0
-10 5 -10 10 0 6 5 10 10 10 6 0 10 -4 10 -10z m1695 -37 c28 -31 34 -46 34
-78 0 -22 -3 -33 -6 -25 -8 19 -51 60 -64 60 -5 0 -9 18 -9 40 0 22 2 40 5 40
3 0 20 -17 40 -37z m-3938 -39 c-9 -9 -28 6 -21 18 4 6 10 6 17 -1 6 -6 8 -13
4 -17z m23 11 c0 -8 -2 -15 -4 -15 -2 0 -6 7 -10 15 -3 8 -1 15 4 15 6 0 10
-7 10 -15z m659 -6 c17 -6 31 -15 31 -20 0 -5 -11 -4 -25 1 -17 6 -27 6 -31
-2 -5 -8 -10 -5 -16 8 -5 12 -7 -1 -5 -36 4 -52 3 -53 -8 -25 -11 25 -13 27
-18 10 -2 -11 -5 -1 -6 22 -1 53 17 63 78 42z m1452 -16 c13 -16 12 -17 -3 -4
-10 7 -18 15 -18 17 0 8 8 3 21 -13z m-1221 -23 c-14 -4 -36 -8 -50 -8 l-25 0
25 8 c14 4 36 8 50 8 l25 0 -25 -8z m105 -74 c4 -41 3 -81 -2 -90 -14 -25 -46
85 -38 127 16 72 31 58 40 -37z m-200 53 c3 -4 1 -10 -5 -14 -5 -3 -10 0 -10
7 0 11 -2 10 -9 0 -6 -11 -9 -9 -13 6 -4 15 -1 18 13 15 11 -3 22 -9 24 -14z
m-176 -89 c0 -9 -6 -4 -14 10 -8 14 -14 32 -14 40 0 9 6 4 14 -10 8 -14 14
-32 14 -40z m579 2 c21 -71 106 -187 170 -231 34 -24 41 -45 18 -54 -8 -3 -14
-16 -13 -28 2 -26 38 -41 90 -37 35 2 40 -1 63 -41 13 -24 37 -60 52 -80 44
-56 49 -66 26 -57 -43 18 -48 17 -24 -4 l25 -21 -32 15 c-40 20 -49 20 -33 1
11 -13 10 -14 -4 -9 -9 3 -16 1 -16 -4 0 -6 9 -14 21 -17 11 -4 18 -9 16 -12
-3 -2 -15 1 -27 7 -34 18 -48 5 -15 -14 17 -9 22 -15 12 -12 -11 4 -31 9 -45
12 -26 5 -26 5 -6 -8 17 -10 19 -16 10 -24 -6 -6 -17 -9 -24 -6 -6 2 -12 -1
-12 -7 0 -26 155 -26 186 0 15 13 17 9 8 -15 -3 -9 -14 -16 -23 -16 -9 -1 -32
-14 -51 -30 -19 -17 -40 -30 -48 -30 -7 0 -10 -4 -7 -10 3 -5 1 -10 -6 -10 -8
0 -8 -4 1 -15 10 -13 9 -15 -11 -16 -22 0 -23 -1 -4 -9 19 -8 19 -9 -3 -9 -13
-1 -20 -5 -17 -11 3 -5 0 -10 -7 -11 -7 0 -4 -4 7 -9 l20 -9 -20 -1 -20 -1 20
-9 c17 -7 17 -9 3 -9 -11 -1 -15 -6 -12 -15 3 -8 -2 -16 -13 -19 -11 -3 -7 -5
12 -7 17 -1 24 -4 17 -7 -6 -2 -10 -9 -6 -14 3 -5 -7 -9 -23 -10 -25 -1 -24
-2 12 -14 l40 -13 -47 -1 c-77 -1 -147 31 -199 92 -110 127 -148 213 -75 168
31 -19 53 -53 81 -125 25 -64 28 -34 5 51 -19 69 -26 82 -61 108 -34 25 -39
34 -34 55 10 39 21 45 50 26 33 -22 68 -79 85 -138 7 -28 18 -48 26 -48 12 0
11 7 -2 38 -9 20 -22 60 -29 89 -16 65 -19 69 -66 99 -31 19 -39 30 -39 54 0
24 4 30 20 30 39 0 75 -27 88 -67 37 -109 55 -153 63 -153 15 0 10 27 -26 133
-42 121 -40 117 -87 146 -34 20 -38 27 -38 62 0 21 3 39 8 39 4 0 25 -11 47
-23 28 -16 53 -43 82 -92 23 -38 46 -71 52 -73 16 -5 15 -2 -33 96 -42 84 -48
91 -90 107 -61 24 -72 39 -85 119 -6 43 -20 83 -36 107 -24 37 -25 40 -9 64
22 34 29 32 42 -13z m1699 -47 c23 -14 43 -28 43 -31 0 -3 -15 4 -34 15 -38
24 -51 27 -40 9 5 -8 2 -9 -11 -4 -18 6 -18 6 1 -15 10 -11 35 -29 54 -40 19
-10 30 -18 24 -19 -5 0 -31 13 -57 30 -40 25 -50 28 -72 18 -21 -9 -23 -14
-12 -27 10 -13 6 -12 -16 2 -15 10 -31 15 -36 13 -5 -3 -14 1 -21 9 -10 12 -7
15 15 21 18 4 23 9 14 14 -15 10 -103 -15 -149 -43 -77 -45 -121 -91 -205
-216 -72 -107 -91 -129 -102 -119 -8 6 -10 14 -5 17 12 8 126 154 176 225 22
31 41 54 44 51 2 -2 19 7 36 20 57 44 148 79 221 85 39 4 74 8 79 9 5 0 29
-10 53 -24z m-348 -34 c-43 -55 -48 -52 -8 4 18 25 34 43 37 41 2 -3 -11 -23
-29 -45z m363 -1 c18 -11 29 -20 25 -20 -11 0 -67 29 -67 35 0 9 9 5 42 -15z
m-188 -57 c32 -38 74 -63 106 -63 11 0 20 -5 20 -11 0 -14 -55 -2 -93 22 -31
18 -87 93 -86 113 0 6 6 2 12 -8 7 -11 25 -34 41 -53z m1243 -19 c4 -55 2 -75
-6 -70 -8 5 -12 -13 -13 -61 -5 -166 15 -433 32 -433 4 0 7 -22 7 -49 0 -27 5
-56 12 -65 8 -9 15 -52 17 -103 l4 -88 -25 79 c-13 43 -30 84 -36 92 -6 7 -8
18 -5 23 4 5 2 12 -3 15 -5 4 -9 25 -8 49 1 61 -13 158 -23 152 -5 -3 -6 55
-4 127 3 73 2 153 -3 177 l-8 45 -32 -60 c-36 -67 -46 -106 -69 -261 -31 -214
-24 -466 15 -566 l11 -28 99 5 99 5 4 -35 4 -34 -96 -1 c-90 0 -128 -4 -135
-11 -1 -2 -18 -28 -37 -58 -146 -230 -228 -516 -253 -885 -6 -87 -5 -102 9
-114 11 -9 20 -11 26 -5 5 5 35 79 66 164 31 85 61 160 67 165 7 6 30 46 52
90 22 43 65 116 95 161 50 74 73 104 159 197 22 24 23 27 6 21 -20 -7 -20 -7
-1 14 10 12 22 19 26 17 11 -7 20 20 21 63 1 24 4 15 9 -28 8 -63 7 -66 -24
-100 l-31 -35 33 29 c17 17 32 25 32 20 0 -13 -37 -46 -70 -63 -35 -18 -156
-195 -234 -343 -69 -129 -146 -346 -146 -408 0 -17 17 -29 88 -61 125 -58 132
-61 132 -71 0 -14 -46 -9 -92 11 -80 34 -416 89 -378 62 9 -6 10 -11 3 -11 -6
0 -18 7 -27 15 -9 9 -31 14 -58 14 l-43 -2 40 -8 c28 -5 17 -7 -39 -3 -89 5
-526 -21 -596 -36 -25 -5 -97 -16 -160 -25 -120 -17 -138 -21 -260 -54 -78
-21 -151 -28 -134 -12 16 16 194 68 324 95 163 35 213 47 225 57 6 4 60 10
120 14 61 4 113 12 116 17 9 14 359 24 367 11 4 -6 40 -14 80 -18 61 -6 72 -5
72 8 0 9 5 17 11 19 7 2 -21 18 -60 36 -39 17 -69 27 -66 22 11 -17 -14 -11
-32 8 -10 11 -31 26 -48 34 -257 131 -409 210 -450 235 -27 16 -72 38 -98 48
-42 16 -55 16 -102 6 -30 -7 -77 -14 -104 -17 -27 -2 -62 -11 -78 -19 -15 -8
-36 -15 -45 -15 -30 0 -9 29 36 51 48 23 153 52 164 45 5 -3 13 -1 20 3 8 5
-5 17 -38 35 -46 25 -64 46 -40 46 5 0 51 -21 102 -46 51 -25 138 -66 193 -90
55 -24 125 -60 155 -78 90 -56 104 -56 153 -3 23 25 51 56 62 69 11 13 65 73
120 134 176 195 336 397 375 474 12 24 36 56 53 72 l32 29 -140 -6 c-292 -12
-293 -12 -526 -168 -244 -162 -350 -229 -371 -235 -10 -2 -18 -8 -18 -12 0
-10 -181 -112 -187 -106 -10 9 6 36 24 43 10 3 49 26 86 50 37 23 70 43 73 43
3 0 17 8 32 18 64 44 200 131 227 145 17 9 48 32 70 52 22 20 64 47 93 62 29
14 55 29 57 34 3 4 26 18 51 31 44 21 60 35 52 43 -9 9 -218 35 -284 35 l-72
0 -24 -37 c-12 -20 -29 -47 -36 -61 -8 -13 -20 -26 -28 -29 -8 -3 -14 -11 -14
-18 0 -7 -4 -15 -9 -17 -5 -1 -44 -43 -86 -93 -100 -118 -225 -248 -232 -241
-3 2 33 49 79 103 144 168 308 379 308 395 0 5 -35 -10 -77 -31 -286 -144
-491 -241 -510 -241 -42 0 -33 19 17 34 57 17 231 99 311 147 148 89 241 124
324 122 92 -1 323 -36 357 -54 48 -24 73 -24 96 1 15 16 34 21 88 23 38 2 78
8 90 15 12 6 25 7 30 2 11 -10 195 7 208 20 4 4 3 65 -4 136 -13 135 -6 398
12 468 5 21 7 50 3 65 -6 25 -7 25 -21 7 -8 -11 -14 -25 -14 -32 0 -7 -30 -61
-67 -121 -36 -59 -97 -162 -135 -228 -110 -191 -121 -178 -19 20 69 132 60
117 249 432 84 139 152 256 152 260 0 4 -18 -11 -40 -32 -33 -33 -40 -36 -40
-19 0 11 7 31 16 44 23 34 97 111 102 105 2 -2 6 -38 9 -81z m-1078 29 c2 -2
0 -3 -5 -3 -5 0 -22 12 -39 26 l-30 26 35 -23 c19 -12 37 -24 39 -26z m-68 20
c13 -16 12 -17 -3 -4 -17 13 -22 21 -14 21 2 0 10 -8 17 -17z m-2811 -2 c0 -5
-9 -7 -20 -4 -11 3 -20 7 -20 9 0 2 9 4 20 4 11 0 20 -4 20 -9z m947 -23 c-3
-8 -6 -5 -6 6 -1 11 2 17 5 13 3 -3 4 -12 1 -19z m-947 -63 c0 -21 -5 -35 -12
-35 -9 0 -8 -4 2 -10 13 -8 12 -10 -2 -10 -15 0 -18 9 -18 45 0 33 4 45 15 45
10 0 15 -11 15 -35z m265 -7 c-12 -72 -24 -79 -25 -15 0 45 3 57 16 57 13 0
15 -7 9 -42z m35 -30 c0 -51 -5 -47 -14 10 -4 29 -3 41 4 37 5 -3 10 -25 10
-47z m2389 -14 c-24 -24 -39 -44 -35 -44 5 0 1 -9 -8 -19 -11 -12 -20 -42 -22
-78 -6 -74 -33 -193 -45 -193 -12 0 -11 66 2 151 6 39 9 73 6 75 -2 2 -35 -22
-73 -53 -38 -32 -83 -65 -99 -73 -17 -8 -35 -21 -41 -29 -9 -11 -13 -11 -19
-1 -10 17 38 63 214 204 142 114 203 145 120 60z m381 -8 c0 -18 -73 -249 -95
-299 -9 -22 -15 -42 -13 -47 2 -4 33 3 70 17 54 20 88 44 180 125 117 103 163
135 172 119 4 -5 -22 -31 -56 -59 -35 -27 -81 -65 -103 -85 l-40 -36 100 32
c102 32 114 38 143 71 9 10 29 33 44 50 31 36 38 21 8 -17 -22 -27 -26 -47
-10 -47 6 0 36 9 67 20 32 11 67 20 79 20 20 0 45 14 134 77 24 17 19 10 -15
-21 -27 -25 -63 -53 -80 -62 -35 -19 -77 -78 -69 -98 3 -7 -2 -18 -10 -25 -8
-7 -12 -18 -10 -26 3 -7 -6 -37 -19 -67 -36 -76 -51 -113 -82 -200 -25 -69
-45 -93 -45 -52 0 8 -4 14 -8 14 -5 0 -9 74 -9 165 0 91 -3 168 -6 172 -4 3
-21 6 -37 6 -53 0 -59 -20 -60 -192 0 -109 -3 -152 -11 -144 -6 6 -10 65 -11
147 0 109 -4 139 -15 143 -7 3 -41 -5 -75 -17 -34 -12 -66 -23 -72 -24 -48 -9
-76 -19 -76 -26 0 -7 -54 -25 -62 -20 -2 1 -36 -10 -76 -25 -81 -29 -117 -28
-62 1 67 37 84 63 134 206 27 76 45 142 41 149 -6 8 -4 10 5 4 10 -6 12 -4 7
8 -3 10 -2 17 3 17 5 0 12 9 15 20 7 23 25 27 25 6z m-2140 -6 c0 -8 -90 -60
-105 -60 -3 0 -5 6 -5 13 0 7 19 22 43 33 49 24 67 28 67 14z m-930 -10 c0 -5
-7 -10 -15 -10 -8 0 -15 5 -15 10 0 6 7 10 15 10 8 0 15 -4 15 -10z m3635 -18
c-9 -9 -35 -11 -35 -3 0 14 12 20 26 14 8 -3 12 -8 9 -11z m-3326 -167 c12
-19 12 -19 7 5 -14 69 -17 115 -7 100 6 -8 11 -27 11 -41 0 -14 5 -40 11 -58
6 -18 9 -34 7 -37 -25 -24 -88 99 -87 169 0 39 2 36 23 -38 12 -44 28 -89 35
-100z m-2 138 c-3 -10 -5 -4 -5 12 0 17 2 24 5 18 2 -7 2 -21 0 -30z m3660
-60 c-2 -16 -4 -3 -4 27 0 30 2 43 4 28 2 -16 2 -40 0 -55z m-3967 52 c0 -8
-9 -15 -20 -15 -11 0 -20 7 -20 15 0 8 9 15 20 15 11 0 20 -7 20 -15z m616
-16 c9 -14 -14 -29 -46 -29 -24 0 -24 0 8 -29 17 -17 32 -34 32 -39 0 -5 13
-15 29 -22 16 -6 32 -18 35 -25 2 -7 18 -16 35 -20 17 -4 31 -11 31 -16 0 -6
-10 -7 -22 -3 l-23 6 24 -26 c14 -14 22 -29 18 -32 -6 -7 -237 215 -237 228 0
4 21 9 48 11 26 2 50 4 54 5 4 1 10 -3 14 -9z m-611 -28 c3 -5 1 -12 -5 -16
-6 -4 -8 -11 -5 -16 4 -5 2 -9 -3 -9 -12 0 -24 29 -16 41 7 12 21 12 29 0z
m2119 -6 c94 -28 181 -97 230 -181 31 -52 60 -63 141 -52 79 11 133 4 142 -18
3 -8 3 -17 0 -20 -5 -6 -54 -14 -102 -18 -25 -2 -30 -6 -27 -25 2 -19 -1 -22
-15 -16 -10 4 -36 13 -58 19 -72 23 -106 48 -120 90 -17 48 -88 116 -121 116
-13 0 -24 -5 -24 -11 0 -15 -23 4 -59 50 -24 31 -49 81 -39 81 2 0 25 -7 52
-15z m-2130 -60 c4 -10 -1 -15 -14 -15 -11 0 -20 7 -20 15 0 8 6 15 14 15 8 0
16 -7 20 -15z m3983 -47 c-3 -7 -5 -2 -5 12 0 14 2 19 5 13 2 -7 2 -19 0 -25z
m-3970 -8 c1 -14 -4 -20 -18 -20 -24 0 -25 16 -1 29 9 6 17 11 17 11 1 0 1 -9
2 -20z m98 -24 c11 -3 2 -3 -19 -1 -22 2 -44 9 -50 15 -7 7 -2 8 19 1 17 -5
39 -12 50 -15z m-115 -16 c-10 -7 -11 -10 -2 -10 8 0 10 -8 6 -26 -5 -21 -4
-25 7 -20 8 4 6 1 -4 -7 -18 -15 -18 -15 0 -19 17 -4 17 -5 -2 -15 -18 -10
-20 -8 -20 28 -1 21 4 39 10 39 5 0 4 4 -4 9 -15 10 -7 31 12 31 7 0 6 -4 -3
-10z m870 -11 c0 -5 -7 -9 -15 -9 -8 0 -15 7 -15 15 0 9 6 12 15 9 8 -4 15
-10 15 -15z m190 -9 c0 -5 -20 -10 -44 -10 -25 0 -48 5 -51 10 -4 6 13 10 44
10 28 0 51 -4 51 -10z m2927 -22 c-3 -7 -5 -2 -5 12 0 14 2 19 5 13 2 -7 2
-19 0 -25z m-3587 -53 c0 -5 -5 -3 -10 5 -5 8 -10 20 -10 25 0 6 5 3 10 -5 5
-8 10 -19 10 -25z m1410 -5 c0 -19 -36 -67 -85 -110 l-50 -45 41 50 c22 28 49
65 60 83 18 31 34 42 34 22z m-1793 -49 c0 -11 -6 -17 -14 -14 -18 7 -17 33 1
33 8 0 14 -8 13 -19z m3980 -18 c-3 -10 -5 -4 -5 12 0 17 2 24 5 18 2 -7 2
-21 0 -30z m-3989 -28 c15 -33 15 -35 -4 -35 -9 0 -14 6 -11 13 2 6 0 20 -5
30 -5 9 -5 17 0 17 5 0 14 -11 20 -25z m2001 -47 c0 -7 -4 -22 -9 -33 -7 -17
-9 -15 -9 13 -1 17 4 32 9 32 6 0 10 -6 9 -12z m-2003 -13 c14 -13 13 -15 -4
-15 -10 0 -19 7 -19 15 0 8 2 15 4 15 3 0 11 -7 19 -15z m2204 -60 c8 -22 16
-24 76 -27 43 -2 69 -8 72 -15 2 -9 -11 -13 -45 -13 -56 0 -87 -17 -81 -46 2
-13 20 -24 63 -37 33 -10 96 -29 139 -43 44 -13 83 -24 87 -24 5 0 11 16 15
35 9 50 24 43 24 -10 0 -43 2 -46 30 -51 17 -4 30 -10 30 -14 0 -5 30 -18 68
-30 37 -13 71 -26 76 -31 22 -20 -5 -17 -85 11 -46 16 -99 29 -118 30 -49 0
-139 -68 -261 -200 -57 -60 -107 -110 -112 -110 -4 0 -8 7 -8 16 0 29 152 193
208 224 37 21 112 74 112 80 0 9 -53 30 -76 30 -13 0 -27 7 -31 15 -12 21
-141 57 -179 50 -17 -3 -45 -18 -61 -33 -16 -15 -39 -33 -51 -41 -11 -8 -20
-17 -19 -20 1 -3 -2 -7 -8 -9 -5 -2 -18 -17 -28 -33 -18 -28 -47 -40 -47 -19
0 6 38 51 85 99 l86 89 -73 19 c-39 11 -73 24 -75 30 -3 9 105 55 124 52 30
-5 43 3 43 26 0 32 8 32 20 0z m-2190 -5 c0 -5 -7 -10 -15 -10 -8 0 -15 5 -15
10 0 6 7 10 15 10 8 0 15 -4 15 -10z m4 -28 c9 -15 -6 -52 -20 -52 -17 0 -19
20 -1 21 10 0 10 2 0 6 -18 7 -16 33 1 33 8 0 17 -4 20 -8z m1973 -14 c-3 -8
-6 -5 -6 6 -1 11 2 17 5 13 3 -3 4 -12 1 -19z m1417 -73 c-16 -30 -32 -55 -36
-55 -5 0 -8 2 -8 4 0 9 27 63 44 89 31 46 31 22 0 -38z m-3394 9 c0 -2 -7 -4
-15 -4 -8 0 -15 4 -15 10 0 5 7 7 15 4 8 -4 15 -8 15 -10z m1957 -31 c-3 -10
-5 -4 -5 12 0 17 2 24 5 18 2 -7 2 -21 0 -30z m-1947 7 c0 -5 -9 -10 -20 -10
-11 0 -20 5 -20 10 0 6 9 10 20 10 11 0 20 -4 20 -10z m2758 -39 c0 -27 3 -64
7 -83 6 -26 4 -30 -5 -21 -7 6 -14 40 -17 75 l-5 63 -62 -2 c-58 -1 -59 -1
-16 6 99 17 99 17 98 -38z m-160 32 c-10 -2 -26 -2 -35 0 -10 3 -2 5 17 5 19
0 27 -2 18 -5z m-2610 -38 c-2 -17 -8 -25 -21 -25 -16 0 -17 3 -7 15 9 10 9
15 1 15 -6 0 -11 5 -11 10 0 6 9 10 20 10 15 0 19 -6 18 -25z m1986 -203 c21
-45 22 -52 7 -32 -28 36 -51 127 -50 196 2 57 2 56 10 -24 5 -53 17 -103 33
-140z m-610 182 c10 -4 16 -18 16 -36 0 -16 7 -42 15 -58 25 -49 36 -82 25
-75 -13 8 -13 -1 1 -26 5 -11 14 -17 19 -14 6 3 7 -1 4 -9 -7 -18 26 -70 37
-59 15 16 -8 147 -35 200 -14 29 -26 54 -26 56 0 13 77 -10 94 -28 12 -12 30
-26 40 -32 18 -10 17 -12 -10 -27 l-29 -17 28 6 c15 3 48 8 75 10 42 5 40 4
-22 -13 -64 -18 -96 -40 -96 -66 0 -6 7 -3 14 6 21 28 76 46 159 54 75 7 77 6
77 -16 0 -12 9 -38 21 -56 11 -19 18 -34 15 -34 -5 0 46 -111 64 -140 6 -8 19
-34 30 -56 18 -36 42 -67 130 -172 11 -13 20 -26 20 -30 0 -3 24 -29 53 -56
60 -57 117 -132 117 -155 0 -11 -4 -10 -15 5 -15 19 -15 19 -8 -1 3 -11 3 -17
-2 -13 -4 4 -14 3 -22 -4 -11 -9 -12 -7 -8 8 4 10 -3 3 -13 -16 -18 -32 -19
-36 -4 -70 17 -37 60 -90 74 -90 19 0 30 62 31 177 2 158 20 136 23 -27 1 -98
5 -120 23 -150 13 -21 21 -52 21 -78 0 -38 -6 -48 -54 -98 -47 -49 -58 -56
-83 -51 -150 30 -199 57 -310 167 -211 211 -325 426 -367 695 -8 53 -14 76
-15 55 -2 -34 -4 -32 -42 44 -25 48 -48 114 -60 170 -11 50 -22 99 -25 109 -6
19 -3 20 20 11z m310 -45 c9 -16 13 -29 9 -29 -5 0 -24 13 -43 29 -35 28 -35
29 -9 29 18 0 31 -9 43 -29z m-1674 1 c0 -14 -7 -20 -22 -20 -21 0 -21 0 -2
19 24 25 24 25 24 1z m3390 11 c0 -19 -83 -131 -97 -131 -9 0 -13 6 -10 14 3
8 -1 13 -11 12 -21 -1 -30 61 -11 78 9 8 10 2 6 -27 -7 -43 5 -42 23 3 7 16
16 30 21 30 12 0 11 -6 -7 -43 -12 -26 -7 -23 31 21 48 53 55 59 55 43z
m-3401 -82 c-7 -14 -6 -19 3 -19 10 0 10 -2 -1 -9 -10 -6 -10 -10 -2 -16 16
-9 10 -115 -6 -115 -19 0 -27 21 -12 31 12 7 11 9 -1 10 -12 0 -12 2 -1 6 11
5 11 7 0 14 -11 7 -9 9 6 9 17 1 18 2 4 10 -9 5 -15 19 -13 32 1 13 3 38 3 57
1 28 3 32 16 21 11 -9 12 -17 4 -31z m1925 -58 c9 -10 19 -28 21 -41 2 -12 9
-28 15 -36 7 -7 9 -18 6 -23 -4 -5 -1 -13 5 -17 8 -5 9 -3 4 6 -5 9 -4 11 4 6
6 -4 9 -12 5 -17 -3 -5 4 -26 16 -47 12 -20 15 -28 6 -18 -18 23 -21 14 -5
-15 5 -11 14 -17 19 -14 5 3 12 0 16 -6 4 -8 3 -9 -4 -5 -17 10 -15 1 8 -45
19 -37 80 -194 80 -205 0 -11 -49 54 -77 101 -16 28 -46 88 -67 135 -74 164
-106 225 -131 252 -14 15 -25 29 -25 32 0 11 89 -26 104 -43z m-1847 33 c-3
-3 -12 -4 -19 -1 -8 3 -5 6 6 6 11 1 17 -2 13 -5z m3940 -116 c-3 -7 -5 -2 -5
12 0 14 2 19 5 13 2 -7 2 -19 0 -25z m-4011 -120 c-2 -40 -8 -64 -16 -66 -7
-3 -10 0 -6 7 4 6 1 11 -6 12 -7 0 -8 2 -3 5 6 2 9 26 8 54 -1 37 2 50 12 50
11 0 14 -14 11 -62z m60 34 c-4 -3 -14 2 -24 12 -16 18 -16 18 6 6 13 -6 21
-14 18 -18z m-55 -144 c1 -13 2 -36 3 -53 1 -24 -3 -31 -22 -33 -22 -3 -23 -1
-17 30 5 18 9 42 10 53 3 25 3 25 15 25 6 0 10 -10 11 -22z m-6 -148 c-1 -8 3
-18 9 -22 7 -5 6 -8 -4 -8 -13 0 -13 -1 0 -10 9 -6 11 -13 5 -17 -14 -11 -17
-33 -5 -33 14 0 12 -36 -2 -60 -9 -15 -10 -23 -2 -28 6 -4 11 -23 12 -42 0
-21 -2 -29 -7 -21 -6 10 -10 9 -15 -4 -10 -28 -7 -45 9 -45 21 0 19 -20 -2
-21 -17 -1 -17 -2 0 -6 18 -5 24 -33 6 -33 -5 0 -7 5 -4 10 3 6 1 10 -4 10 -6
0 -11 -7 -11 -15 0 -8 7 -15 15 -15 8 0 15 -4 15 -10 0 -5 -7 -10 -15 -10 -20
0 -19 -17 3 -29 16 -10 16 -10 0 -11 -10 0 -18 -4 -18 -9 0 -5 9 -7 20 -4 27
7 25 -11 -2 -38 -15 -14 -17 -20 -7 -16 9 3 16 0 16 -9 0 -8 -6 -14 -13 -14
-7 0 -15 -6 -17 -12 -5 -12 -8 132 -8 399 0 130 9 193 21 158 4 -11 6 -27 5
-35z m2177 23 c25 -28 48 -65 48 -79 0 -4 -13 13 -29 38 -26 41 -51 67 -51 54
0 -3 7 -23 16 -45 8 -22 14 -50 12 -63 -3 -17 -7 -9 -16 27 -6 28 -14 60 -18
73 -9 30 7 28 38 -5z m1865 -30 c-3 -10 -5 -2 -5 17 0 19 2 27 5 18 2 -10 2
-26 0 -35z m10 -185 c-3 -7 -5 -2 -5 12 0 14 2 19 5 13 2 -7 2 -19 0 -25z m17
-277 c-2 -2 -6 8 -10 23 -3 14 -11 23 -16 20 -7 -4 -7 0 0 12 10 20 11 22 13
52 1 9 5 -10 9 -43 3 -33 5 -62 4 -64z m3 -43 c-3 -8 -6 -5 -6 6 -1 11 2 17 5
13 3 -3 4 -12 1 -19z m4 -97 c1 -40 -2 -76 -7 -79 -14 -11 -15 -32 -1 -30 12
3 13 -49 2 -79 -5 -15 -63 -17 -85 -3 -11 7 -11 10 -2 10 20 0 54 89 47 122
-5 19 0 44 14 73 12 25 21 50 21 57 0 6 2 9 4 7 3 -2 6 -37 7 -78z m-4104 37
c-3 -8 -6 -5 -6 6 -1 11 2 17 5 13 3 -3 4 -12 1 -19z m0 -50 c-3 -8 -6 -5 -6
6 -1 11 2 17 5 13 3 -3 4 -12 1 -19z m3368 -18 c3 -6 -1 -7 -9 -4 -18 7 -21
14 -7 14 6 0 13 -4 16 -10z m-2005 -10 c13 -8 13 -10 -2 -10 -9 0 -20 5 -23
10 -8 13 5 13 25 0z m-1363 -22 c-3 -8 -6 -5 -6 6 -1 11 2 17 5 13 3 -3 4 -12
1 -19z m1443 -23 c55 -35 50 -40 -10 -10 -27 14 -50 28 -50 30 0 11 23 4 60
-20z m2197 -111 c-3 -3 -12 -4 -19 -1 -8 3 -5 6 6 6 11 1 17 -2 13 -5z"/>
<path d="M3305 5764 c-55 -26 -102 -48 -103 -49 -2 -2 -13 -43 -23 -92 -11
-48 -22 -94 -25 -102 -3 -10 -24 5 -69 49 l-64 64 -98 -45 -98 -46 2 -81 c2
-50 -2 -82 -8 -82 -5 0 -34 25 -64 55 -29 30 -59 55 -65 55 -33 0 -153 -35
-157 -46 -3 -8 -15 -11 -31 -8 -15 2 -63 -1 -107 -9 l-80 -12 2 -53 c1 -28 -1
-52 -5 -52 -4 0 -29 21 -55 45 -50 48 -62 51 -151 39 l-48 -7 2 -206 c1 -113
1 -210 0 -216 -1 -5 -12 24 -25 65 -13 41 -43 138 -67 215 l-43 140 -100 7
-100 7 -62 -61 c-34 -34 -64 -60 -65 -57 -2 2 -12 22 -23 43 -32 64 -81 90
-285 156 -103 33 -195 60 -203 60 -9 0 -36 -36 -61 -80 -47 -82 -61 -94 -70
-62 -2 9 -17 61 -32 114 l-26 97 -107 45 -106 45 -18 -22 c-104 -124 -174
-212 -183 -230 -10 -19 -194 -667 -194 -683 0 -13 1908 38 2450 66 102 5 289
14 415 20 314 15 737 39 741 43 3 3 -55 167 -183 517 l-56 155 -121 123 c-66
67 -123 122 -126 122 -3 0 -50 -21 -105 -46z m244 -401 c78 -223 145 -419 148
-435 l6 -28 -92 0 -91 0 -22 75 c-25 85 -20 83 -138 65 -142 -22 -128 -14
-141 -79 -6 -32 -14 -64 -19 -70 -4 -7 -41 -15 -85 -18 -73 -6 -77 -5 -72 13
5 15 122 545 169 761 l11 52 81 35 c45 19 86 36 92 36 6 0 75 -183 153 -407z
m-2709 239 l35 -17 107 -375 c59 -206 107 -383 108 -392 0 -16 -10 -18 -70
-18 l-69 0 -10 38 c-5 20 -13 49 -17 65 -3 15 -11 30 -18 34 -15 10 -215 30
-225 23 -4 -3 -17 -41 -27 -85 l-20 -80 -72 -3 c-60 -2 -72 0 -72 13 0 12 157
652 201 817 l10 37 52 -20 c29 -11 68 -28 87 -37z m2169 -327 c6 -165 11 -323
11 -351 l0 -51 -54 -6 c-98 -10 -96 -12 -96 124 0 65 -4 120 -9 123 -4 3 -43
-1 -86 -9 -42 -8 -79 -15 -82 -15 -3 0 -3 -53 -1 -117 l3 -118 -61 -3 -61 -3
-6 43 c-3 24 -7 131 -8 238 -1 107 -3 219 -3 249 l-1 55 54 13 c44 12 56 12
62 1 7 -10 15 -190 10 -220 -1 -11 1 -11 96 14 l84 22 -7 131 -7 131 69 31
c38 17 72 28 75 24 4 -3 12 -141 18 -306z m-1704 173 c217 -66 265 -107 265
-226 0 -66 -17 -101 -69 -137 -23 -15 -41 -32 -41 -37 0 -5 27 -56 60 -114 34
-57 58 -109 55 -114 -7 -12 -105 -13 -121 -2 -6 4 -32 48 -57 98 -46 91 -59
103 -109 104 -16 0 -18 -12 -18 -104 l0 -103 -72 -7 c-53 -5 -74 -3 -80 6 -4
7 -8 112 -8 234 0 121 -3 276 -7 344 l-6 122 24 -7 c13 -5 96 -30 184 -57z
m1170 -314 c6 -227 5 -278 -7 -285 -7 -5 -40 -9 -74 -9 l-61 0 -56 115 c-31
63 -59 115 -63 115 -3 0 -3 -51 1 -114 l7 -113 -57 -8 c-32 -4 -61 -3 -65 2
-4 4 -10 126 -13 271 -5 241 -4 262 11 262 9 0 33 3 52 6 l36 6 73 -159 c41
-87 78 -162 83 -168 7 -6 9 53 7 165 l-4 175 40 6 c92 14 81 45 90 -267z
m-508 31 c35 -110 72 -230 82 -267 l19 -68 -57 0 -57 0 -15 48 -15 47 -85 -4
c-46 -2 -87 -8 -90 -14 -4 -5 -10 -27 -13 -48 l-6 -39 -55 0 c-30 0 -55 3 -55
7 0 9 110 515 115 531 3 9 27 12 87 10 l82 -3 63 -200z m1106 150 c4 -26 4
-26 -14 -6 -23 24 -24 31 -5 31 7 0 16 -11 19 -25z m-26 -57 c-3 -8 -6 -5 -6
6 -1 11 2 17 5 13 3 -3 4 -12 1 -19z m-2567 -17 c0 -6 -4 -13 -10 -16 -5 -3
-10 1 -10 9 0 9 5 16 10 16 6 0 10 -4 10 -9z m2600 -41 c0 -13 -1 -13 -10 0
-5 8 -10 22 -10 30 0 13 1 13 10 0 5 -8 10 -22 10 -30z m275 -229 c-3 -6 -14
-11 -23 -11 -13 0 -13 2 4 14 21 15 30 14 19 -3z m-2974 -38 c-12 -20 -14 -14
-5 12 4 9 9 14 11 11 3 -2 0 -13 -6 -23z m3089 -3 c0 -4 -9 -10 -20 -13 -11
-3 -18 -1 -15 3 3 5 -1 10 -7 13 -7 2 -1 4 15 4 15 0 27 -3 27 -7z m-3090 -45
c14 -19 14 -19 -2 -6 -10 7 -18 18 -18 24 0 6 1 8 3 6 1 -2 9 -13 17 -24z
m2148 -5 c-1 -17 -5 -27 -9 -23 -7 7 -2 53 6 53 2 0 3 -14 3 -30z m-931 -2
c-3 -8 -6 -5 -6 6 -1 11 2 17 5 13 3 -3 4 -12 1 -19z m-1202 -28 c3 -5 1 -10
-4 -10 -6 0 -11 5 -11 10 0 6 2 10 4 10 3 0 8 -4 11 -10z m1478 -17 c-7 -2
-19 -2 -25 0 -7 3 -2 5 12 5 14 0 19 -2 13 -5z"/>
<path d="M3326 5480 c-11 -44 -64 -305 -62 -307 4 -4 150 28 156 34 4 5 -14
73 -40 153 -37 114 -49 140 -54 120z"/>
<path d="M749 5256 c-18 -74 -30 -138 -27 -141 8 -8 137 -29 143 -24 4 5 -70
287 -78 295 -3 3 -20 -56 -38 -130z m48 -38 c-3 -8 -6 -5 -6 6 -1 11 2 17 5
13 3 -3 4 -12 1 -19z"/>
<path d="M1260 5233 l0 -90 31 -7 c52 -10 93 -7 116 9 47 33 37 122 -17 150
-15 8 -50 17 -78 21 l-52 7 0 -90z"/>
<path d="M1802 5148 c-12 -55 -21 -102 -20 -103 8 -7 88 -11 98 -5 8 5 4 33
-15 101 -15 52 -30 97 -34 101 -3 4 -17 -38 -29 -94z"/>
<path d="M2507 5723 c-2 -5 -10 -25 -16 -45 -7 -21 -16 -38 -20 -38 -4 0 -15
18 -24 40 -14 38 -18 40 -56 40 l-41 0 0 -85 c0 -85 0 -85 26 -85 25 0 26 2
22 50 -1 28 0 50 3 50 4 0 16 -23 27 -51 28 -66 50 -63 77 11 l20 55 9 -52 c8
-46 12 -53 32 -53 23 0 24 2 24 85 l0 85 -39 0 c-22 0 -42 -3 -44 -7z"/>
<path d="M2213 5713 l-33 -4 0 -85 0 -84 34 0 c66 0 126 12 126 26 0 10 -14
14 -50 14 -57 0 -71 24 -20 35 40 9 39 33 -2 37 -52 5 -45 25 12 33 33 5 50
12 50 21 0 14 -40 16 -117 7z"/>
<path d="M1924 5623 c3 -48 8 -89 11 -91 2 -3 11 -2 20 1 11 5 15 21 16 59 l1
53 24 -53 c20 -44 28 -53 46 -50 17 2 26 15 38 58 17 60 30 52 30 -21 0 -35 3
-39 25 -39 25 0 25 1 25 86 l0 85 -41 -3 c-39 -3 -43 -6 -59 -48 l-18 -45 -21
48 c-20 45 -22 47 -62 47 l-42 0 7 -87z"/>
<path d="M1522 5613 c3 -86 3 -88 28 -88 21 0 26 5 28 33 3 28 7 32 33 32 26
0 29 -3 29 -30 0 -27 3 -30 30 -30 l30 0 0 85 0 85 -30 0 c-28 0 -30 -3 -30
-35 0 -32 -2 -35 -30 -35 -23 0 -30 5 -30 19 0 35 -12 51 -36 51 -25 0 -25 -1
-22 -87z"/>
<path d="M1736 5669 c-34 -40 -33 -74 3 -110 35 -34 91 -39 131 -12 35 24 40
33 40 75 0 50 -35 78 -100 78 -42 0 -52 -4 -74 -31z m102 -11 c7 -7 12 -26 12
-44 0 -58 -55 -74 -73 -21 -18 54 26 100 61 65z"/>
<path d="M3860 4751 c36 -5 45 -10 51 -31 4 -14 7 -18 8 -8 2 38 -10 48 -58
46 l-46 -1 45 -6z"/>
<path d="M3697 4743 c18 -2 50 -2 70 0 21 2 7 4 -32 4 -38 0 -55 -2 -38 -4z"/>
<path d="M3642 4728 c-7 -7 -11 -26 -11 -42 l2 -31 4 30 c3 17 9 36 15 43 13
15 6 16 -10 0z"/>
<path d="M3695 4710 c-8 -13 3 -30 18 -30 8 0 7 3 -2 9 -7 5 -10 14 -7 20 4 6
5 11 2 11 -3 0 -8 -4 -11 -10z"/>
<path d="M3780 4706 c0 -8 4 -17 9 -20 5 -4 7 3 4 14 -6 23 -13 26 -13 6z"/>
<path d="M3836 4711 c-4 -7 -5 -15 -2 -18 9 -9 19 4 14 18 -4 11 -6 11 -12 0z"/>
<path d="M3866 4713 c-11 -11 -7 -20 9 -20 8 0 15 4 15 8 0 11 -16 20 -24 12z"/>
<path d="M3823 4659 c-1 -10 2 -19 8 -19 11 0 12 27 1 34 -4 2 -9 -4 -9 -15z"/>
<path d="M3740 4656 c0 -8 7 -16 15 -20 17 -6 18 -4 9 18 -8 20 -24 21 -24 2z"/>
<path d="M3784 4657 c-8 -21 2 -35 16 -21 5 5 6 15 0 24 -8 12 -10 12 -16 -3z"/>
<path d="M3870 4655 c0 -8 4 -15 10 -15 5 0 7 7 4 15 -4 8 -8 15 -10 15 -2 0
-4 -7 -4 -15z"/>
<path d="M2538 4653 c7 -3 16 -2 19 1 4 3 -2 6 -13 5 -11 0 -14 -3 -6 -6z"/>
<path d="M956 4641 c-18 -7 -18 -8 -3 -14 11 -4 17 -18 17 -37 0 -16 5 -30 10
-30 6 0 10 16 10 35 0 19 5 35 10 35 6 0 10 5 10 10 0 12 -26 12 -54 1z"/>
<path d="M1017 4605 c-16 -45 -12 -56 11 -33 10 10 17 10 33 0 12 -8 23 -12
25 -9 8 8 -30 87 -42 87 -6 0 -19 -20 -27 -45z m33 -1 c0 -8 -5 -12 -10 -9 -6
4 -8 11 -5 16 9 14 15 11 15 -7z"/>
<path d="M3924 4550 c0 -58 1 -81 3 -52 2 28 2 76 0 105 -2 28 -3 5 -3 -53z"/>
<path d="M461 4632 c-6 -2 -11 -24 -11 -48 0 -42 1 -44 29 -44 17 0 33 5 36
10 3 6 -3 10 -14 10 -11 0 -23 5 -26 10 -3 6 3 10 14 10 12 0 21 5 21 10 0 6
-9 10 -20 10 -11 0 -20 5 -20 10 0 6 9 10 20 10 11 0 20 4 20 9 0 9 -25 11
-49 3z"/>
<path d="M590 4608 l-1 -33 -17 28 c-26 41 -42 34 -42 -19 0 -27 4 -43 10 -39
6 3 10 16 10 28 l0 21 16 -22 c26 -37 44 -28 44 23 0 25 -4 45 -10 45 -5 0
-10 -15 -10 -32z"/>
<path d="M620 4595 c0 -25 5 -45 10 -45 6 0 10 7 10 15 0 8 9 15 20 15 11 0
20 5 20 10 0 6 -9 10 -20 10 -11 0 -20 5 -20 10 0 6 9 10 20 10 11 0 20 5 20
10 0 6 -13 10 -30 10 -29 0 -30 -2 -30 -45z"/>
<path d="M690 4596 c0 -25 5 -46 10 -46 6 0 10 7 10 15 0 8 5 15 10 15 6 0 13
-7 16 -15 4 -8 13 -15 21 -15 12 0 13 3 5 13 -6 7 -10 26 -9 43 2 26 -1 29
-30 32 -33 3 -33 3 -33 -42z m50 14 c0 -5 -7 -10 -15 -10 -8 0 -15 5 -15 10 0
6 7 10 15 10 8 0 15 -4 15 -10z"/>
<path d="M779 4636 c-3 -3 -3 -23 -1 -45 4 -38 7 -41 33 -41 16 0 29 5 29 10
0 6 -9 10 -20 10 -27 0 -25 18 3 23 l22 4 -22 2 c-13 0 -23 7 -23 15 0 8 10
17 23 19 17 3 15 5 -9 6 -17 0 -33 -1 -35 -3z"/>
<path d="M850 4595 c0 -25 5 -45 10 -45 6 0 10 12 10 28 l1 27 20 -27 c29 -39
39 -35 39 17 0 45 -20 66 -21 23 l0 -23 -16 23 c-26 37 -43 28 -43 -23z"/>
<path d="M3716 4594 c-3 -9 -6 -24 -6 -35 0 -11 -7 -19 -17 -19 -14 0 -18 -8
-17 -33 1 -17 3 -36 4 -42 1 -5 1 -18 0 -29 -1 -16 3 -18 27 -12 58 14 58 14
58 -34 l0 -45 -50 -6 c-27 -4 2 -5 65 -2 110 5 163 13 88 13 -38 0 -48 12 -48
56 0 24 14 32 25 14 3 -5 15 -10 26 -10 13 0 19 7 19 23 0 13 6 29 13 36 10
10 9 15 -5 25 -11 8 -15 20 -12 33 7 24 -13 40 -29 24 -17 -17 -25 -13 -29 12
-3 19 -9 22 -40 20 -24 -1 -38 3 -42 13 -7 19 -22 18 -30 -2z m28 -30 c7 -19
-2 -37 -15 -29 -12 8 -12 45 0 45 5 0 12 -7 15 -16z m76 -3 c0 -6 -4 -13 -10
-16 -5 -3 -10 1 -10 9 0 9 5 16 10 16 6 0 10 -4 10 -9z m-40 -18 c0 -24 -16
-48 -23 -36 -8 13 3 53 14 53 5 0 9 -8 9 -17z m81 -36 c-8 -8 -11 -7 -11 4 0
20 13 34 18 19 3 -7 -1 -17 -7 -23z m-141 13 c8 -5 12 -12 9 -15 -8 -8 -39 5
-39 16 0 11 11 11 30 -1z m107 -22 c-3 -7 -5 -2 -5 12 0 14 2 19 5 13 2 -7 2
-19 0 -25z m-37 -13 c-7 -9 -15 -13 -18 -10 -3 2 1 11 8 20 7 9 15 13 18 10 3
-2 -1 -11 -8 -20z m-65 -5 c3 -5 -3 -10 -14 -10 -12 0 -21 5 -21 10 0 6 6 10
14 10 8 0 18 -4 21 -10z m160 0 c3 -5 -1 -10 -10 -10 -9 0 -13 5 -10 10 3 6 8
10 10 10 2 0 7 -4 10 -10z m-76 -32 c-8 -14 -14 -17 -22 -9 -7 7 -6 15 3 25
17 22 32 9 19 -16z m-83 -3 c-21 -16 -32 -13 -21 4 3 6 14 11 23 11 15 -1 15
-2 -2 -15z m148 -11 c7 -17 -6 -18 -22 -2 -7 7 -12 15 -12 20 0 12 28 -2 34
-18z"/>
<path d="M2827 4569 c7 -7 15 -10 18 -7 3 3 -2 9 -12 12 -14 6 -15 5 -6 -5z"/>
<path d="M3643 4485 c0 -38 2 -53 4 -32 2 20 2 52 0 70 -2 17 -4 1 -4 -38z"/>
<path d="M608 4478 c-9 -18 -19 -41 -22 -50 -5 -16 -8 -15 -30 7 -21 21 -35
25 -84 25 -53 0 -60 -2 -65 -22 -6 -22 -6 -22 -27 -3 -14 12 -41 20 -80 23
l-60 4 0 -114 c0 -99 3 -117 18 -131 23 -21 93 -22 131 -2 26 13 30 13 41 0
17 -21 70 -20 70 1 0 14 2 14 16 3 23 -19 122 -18 135 1 7 11 11 12 17 3 5 -8
36 -12 89 -12 65 0 84 4 101 19 17 16 22 17 32 5 20 -24 75 -29 112 -11 20 11
34 13 36 6 2 -6 41 -10 97 -10 77 0 94 3 99 17 5 12 9 14 18 5 13 -13 88 -17
88 -4 0 4 -11 48 -24 98 -29 115 -48 143 -98 144 -40 0 -40 0 -53 -107 -7 -58
-18 -71 -40 -53 -10 8 -15 31 -15 64 0 29 -6 61 -15 73 -13 19 -22 21 -82 17
-37 -2 -70 -9 -74 -15 -5 -8 -8 -8 -13 0 -9 15 -63 14 -68 0 -3 -9 -9 -9 -25
0 -37 19 -82 13 -109 -15 -25 -24 -27 -24 -40 -7 -7 10 -11 24 -9 31 8 21 -6
42 -29 42 -14 0 -27 -11 -38 -32z m235 -114 c9 -4 17 -15 17 -25 0 -14 -7 -19
-30 -19 -27 0 -30 3 -30 31 0 21 4 29 13 25 6 -3 20 -9 30 -12z"/>
<path d="M2110 4446 c-50 -26 -60 -35 -45 -39 13 -3 10 -5 -10 -5 -16 0 -61
-12 -100 -26 l-70 -25 65 2 c60 2 65 0 68 -20 3 -20 4 -21 31 -5 32 18 61 11
68 -18 6 -24 16 -25 33 -5 22 26 54 14 67 -25 9 -28 13 -31 18 -17 4 9 13 17
21 17 7 0 18 -8 23 -17 9 -16 10 -16 11 -1 0 40 55 62 83 33 13 -13 16 -13 21
0 8 21 31 19 90 -11 l51 -25 -85 86 c-50 51 -86 80 -88 72 -3 -14 -43 -37 -62
-37 -6 0 -10 9 -10 20 0 13 -5 18 -15 14 -8 -4 -15 -1 -15 6 0 9 -7 7 -20 -5
-20 -18 -21 -18 -44 4 -15 14 -22 30 -19 42 7 24 11 25 -67 -15z m54 -12 c5
-12 2 -15 -10 -10 -8 3 -24 1 -35 -4 -24 -14 -26 5 -1 19 25 15 39 13 46 -5z
m226 -55 c0 -6 -4 -7 -10 -4 -5 3 -10 11 -10 16 0 6 5 7 10 4 6 -3 10 -11 10
-16z"/>
<path d="M3045 4440 c10 -11 20 -20 23 -20 3 0 -3 9 -13 20 -10 11 -20 20 -23
20 -3 0 3 -9 13 -20z"/>
<path d="M3932 4400 c0 -14 2 -19 5 -12 2 6 2 18 0 25 -3 6 -5 1 -5 -13z"/>
<path d="M3190 4315 c13 -14 26 -25 28 -25 3 0 -5 11 -18 25 -13 14 -26 25
-28 25 -3 0 5 -11 18 -25z"/>
<path d="M3800 4291 c-7 -13 -7 -22 0 -26 5 -3 10 0 10 7 0 10 3 9 10 -2 5 -8
13 -11 17 -6 4 4 0 13 -9 20 -10 7 -15 16 -11 19 3 4 3 7 0 7 -3 0 -11 -9 -17
-19z"/>
<path d="M3753 4280 c5 -31 17 -36 17 -7 0 15 -4 27 -10 27 -5 0 -9 -9 -7 -20z"/>
<path d="M3240 4256 c0 -2 8 -10 18 -17 15 -13 16 -12 3 4 -13 16 -21 21 -21
13z"/>
<path d="M3730 4212 c0 -12 19 -26 26 -19 2 2 -2 10 -11 17 -9 8 -15 8 -15 2z"/>
<path d="M1567 4120 c-34 -30 -48 -37 -70 -33 -17 3 -27 1 -27 -7 0 -7 -6 -10
-13 -7 -7 3 -21 -1 -32 -9 -20 -15 -70 -19 -61 -5 3 4 -6 6 -20 3 -14 -2 -22
-7 -16 -11 5 -3 12 -16 16 -28 4 -14 12 -20 21 -16 8 3 17 -2 21 -10 5 -13 8
-13 25 4 10 10 19 24 19 29 0 6 17 10 38 10 63 -1 72 1 72 11 0 6 13 9 29 7
18 -1 37 5 50 16 14 13 28 16 46 12 16 -4 24 -3 21 2 -9 15 22 35 41 28 11 -5
14 -4 8 2 -5 5 -36 16 -68 25 l-59 16 -41 -39z m63 16 c0 -2 -9 -6 -20 -9 -11
-3 -20 -1 -20 4 0 5 9 9 20 9 11 0 20 -2 20 -4z"/>
<path d="M742 4104 c-12 -8 -22 -25 -21 -37 l0 -22 9 23 c10 24 55 46 77 38 8
-3 11 -1 8 4 -9 15 -48 12 -73 -6z"/>
<path d="M860 4056 c45 -62 63 -73 21 -13 -17 25 -37 49 -43 53 -6 4 4 -14 22
-40z"/>
<path d="M761 4071 c-18 -11 -7 -77 14 -85 8 -3 15 -2 16 2 0 4 2 19 4 34 4
33 -15 61 -34 49z"/>
<path d="M2100 4009 c0 -7 -10 -9 -25 -5 -14 4 -25 2 -25 -4 0 -11 30 -13 54
-4 18 7 22 24 6 24 -5 0 -10 -5 -10 -11z"/>
<path d="M3396 4007 c3 -10 9 -15 12 -12 3 3 0 11 -7 18 -10 9 -11 8 -5 -6z"/>
<path d="M1695 3912 c5 -40 23 -65 41 -58 7 3 18 -2 24 -10 19 -22 37 -17 42
11 6 28 4 29 -21 15 -24 -12 -56 20 -47 48 5 15 1 21 -18 24 -24 5 -25 3 -21
-30z"/>
<path d="M1382 3836 c-46 -17 -98 -44 -115 -58 l-32 -26 35 8 c67 15 133 45
169 77 20 18 34 32 31 32 -3 0 -42 -15 -88 -33z"/>
<path d="M303 3745 c-13 -14 -14 -14 50 -31 9 -3 17 -1 17 5 0 6 -6 11 -14 11
-8 0 -16 7 -20 15 -7 18 -17 19 -33 0z"/>
<path d="M391 3737 c-13 -16 -5 -27 21 -27 20 0 21 1 12 24 -7 20 -18 20 -33
3z"/>
<path d="M3467 3742 c-9 -2 -15 -8 -12 -13 4 -5 -1 -9 -9 -9 -9 0 -16 5 -16
10 0 23 -19 8 -22 -17 -2 -16 -9 -28 -18 -29 -8 0 -27 -4 -43 -9 -17 -4 -33
-3 -42 5 -12 10 -19 7 -39 -16 -21 -26 -22 -30 -7 -40 11 -9 18 -9 22 -2 4 6
14 8 23 5 8 -3 18 -1 22 4 3 6 15 9 25 6 20 -5 69 13 69 26 0 4 5 7 11 7 7 0
18 8 25 18 13 16 15 16 29 -2 15 -19 15 -19 15 1 0 14 9 24 25 30 l25 8 -32
10 c-18 6 -41 9 -51 7z"/>
<path d="M1140 3715 c-39 -11 -41 -13 -15 -14 17 0 41 6 55 14 30 17 20 17
-40 0z"/>
<path d="M290 3680 c0 -6 7 -10 15 -10 8 0 15 2 15 4 0 2 -7 6 -15 10 -8 3
-15 1 -15 -4z"/>
<path d="M240 3670 c0 -5 9 -10 21 -10 11 0 17 5 14 10 -3 6 -13 10 -21 10 -8
0 -14 -4 -14 -10z"/>
<path d="M4013 3563 c-38 -43 -94 -107 -125 -143 l-56 -65 43 0 43 0 -16 27
c-17 29 -15 32 152 212 20 21 35 41 33 43 -3 2 -35 -31 -74 -74z"/>
<path d="M3391 3591 c-20 -12 22 -33 57 -29 35 4 39 24 5 21 -15 -1 -32 2 -38
7 -6 5 -17 5 -24 1z"/>
<path d="M4073 3458 c-44 -113 -94 -261 -89 -265 2 -3 13 24 25 59 12 35 34
97 51 138 27 69 29 72 31 40 1 -26 4 -20 10 25 14 92 7 93 -28 3z"/>
<path d="M3633 3481 c-50 -26 -51 -27 -27 -38 13 -6 32 -9 42 -6 10 2 24 -2
31 -10 6 -8 21 -13 31 -10 14 4 20 0 20 -11 0 -10 6 -13 15 -10 8 4 15 1 15
-6 0 -6 5 -8 11 -4 6 3 14 2 18 -5 5 -7 19 1 40 23 36 38 35 67 -2 41 -24 -17
-62 -20 -52 -5 5 9 -15 15 -38 11 -4 -1 -13 12 -18 29 -13 35 -18 35 -86 1z
m67 9 c0 -5 -4 -10 -10 -10 -5 0 -10 5 -10 10 0 6 5 10 10 10 6 0 10 -4 10
-10z"/>
<path d="M4002 3373 c-17 -53 -30 -99 -28 -101 2 -2 18 40 36 93 18 53 30 98
28 100 -2 2 -18 -39 -36 -92z"/>
<path d="M306 3405 c10 -8 28 -14 39 -14 18 0 17 1 -5 14 -34 20 -60 20 -34 0z"/>
<path d="M4077 3335 c-4 -22 -6 -53 -6 -70 1 -16 5 -3 10 30 10 67 6 102 -4
40z"/>
<path d="M4111 3225 c-7 -66 -11 -129 -8 -140 2 -11 5 -2 6 21 0 22 6 77 12
122 6 44 9 89 7 99 -2 10 -10 -36 -17 -102z"/>
<path d="M4062 3195 c0 -16 2 -22 5 -12 2 9 2 23 0 30 -3 6 -5 -1 -5 -18z"/>
<path d="M3497 2992 c-15 -15 -27 -32 -27 -38 0 -5 23 -33 50 -63 28 -29 50
-57 50 -61 0 -5 4 -11 8 -14 5 -3 -3 42 -17 99 -14 58 -29 105 -32 105 -3 0
-17 -13 -32 -28z m33 -2 c0 -5 -4 -10 -10 -10 -5 0 -10 5 -10 10 0 6 5 10 10
10 6 0 10 -4 10 -10z"/>
<path d="M320 2737 c0 -2 15 -16 33 -33 l32 -29 -29 33 c-28 30 -36 37 -36 29z"/>
<path d="M763 2019 c140 -278 196 -432 247 -684 7 -33 16 -73 21 -90 14 -50
40 -285 34 -306 -10 -30 17 -23 45 13 14 17 48 57 76 87 99 109 99 108 85 225
-18 148 -30 219 -45 273 -14 48 -56 205 -63 233 -13 56 35 -72 77 -205 27 -88
54 -173 59 -188 6 -16 8 -34 5 -41 -5 -14 12 -135 20 -144 3 -3 42 32 86 76
l80 81 -46 67 c-26 38 -53 74 -60 81 -7 8 -57 77 -111 155 -53 77 -103 142
-110 145 -7 3 -13 10 -13 15 0 13 -66 118 -112 177 -34 44 -42 49 -130 74 -51
15 -114 30 -140 33 l-47 7 42 -84z"/>
<path d="M1251 556 c2 -2 50 -19 105 -39 114 -40 427 -192 483 -234 20 -15 47
-38 61 -51 14 -13 37 -30 53 -38 l27 -15 2 101 c1 55 2 110 2 123 1 18 -9 25
-64 44 -36 12 -82 22 -102 23 -20 0 -49 5 -64 10 -14 6 -41 12 -60 15 -18 2
-50 9 -71 14 -100 27 -391 64 -372 47z"/>
<path d="M212 110 c0 -14 2 -19 5 -12 2 6 2 18 0 25 -3 6 -5 1 -5 -13z"/>
<path d="M2838 4058 c-9 -26 6 -61 38 -94 25 -24 34 -42 34 -67 0 -18 5 -38
11 -44 6 -6 8 -20 5 -30 -8 -25 -66 -84 -76 -78 -4 2 -18 -16 -31 -40 -26 -50
-62 -62 -74 -25 -3 11 -11 20 -16 20 -12 0 -2 -96 13 -123 5 -10 7 -25 4 -34
-4 -8 -1 -33 6 -54 10 -34 9 -42 -4 -56 -22 -21 -4 -63 26 -63 51 0 94 -21
111 -53 l16 -32 -5 64 c-7 70 -34 137 -68 167 -14 12 -18 14 -13 4 8 -13 7
-13 -8 -1 -20 15 -22 5 -7 -34 8 -20 7 -26 -2 -23 -15 5 -27 54 -32 128 l-3
54 21 -27 c12 -15 36 -29 56 -33 l35 -7 -24 27 c-17 18 -20 26 -10 26 12 0 12
2 0 9 -21 13 0 37 46 52 50 16 64 -1 34 -42 l-24 -32 27 5 c22 5 26 2 21 -13
-12 -37 5 -18 30 32 24 50 25 76 3 63 -8 -5 -9 -1 -3 12 14 31 18 130 5 153
-13 26 -30 27 -31 4 -1 -17 -7 -1 -27 77 -10 41 -27 73 -50 101 -19 22 -29 24
-34 7z m142 -295 c0 -18 -20 -34 -50 -38 -3 0 -12 -5 -20 -10 -12 -7 -11 -3 3
18 9 15 24 39 34 53 18 28 33 18 33 -23z m-184 -332 c-4 -5 0 -12 6 -14 7 -3
0 -6 -17 -6 -29 0 -29 0 -11 14 23 17 30 19 22 6z m63 -18 c10 -19 9 -22 -4
-17 -8 3 -12 10 -9 15 3 5 0 9 -6 9 -6 0 -8 5 -5 11 8 12 8 12 24 -18z"/>
<path d="M2457 3992 c-3 -15 -1 -32 5 -39 5 -7 7 -17 3 -23 -9 -15 1 -12 19 6
14 13 14 19 2 43 -12 23 -12 28 -1 28 7 0 11 -6 8 -13 -2 -6 0 -15 5 -18 5 -3
9 4 8 16 -1 13 -9 22 -22 24 -17 3 -23 -3 -27 -24z"/>
<path d="M2390 3859 c-23 -49 -23 -49 -4 -85 l19 -35 5 37 c6 41 25 56 34 26
4 -11 15 -27 26 -37 11 -10 20 -25 20 -34 0 -12 -3 -12 -12 -3 -17 17 -32 15
-59 -9 l-24 -21 35 -29 c19 -15 40 -27 47 -24 7 2 15 0 18 -5 4 -6 18 -10 32
-10 l27 0 -32 -31 c-17 -17 -29 -36 -25 -45 7 -18 22 -18 29 1 4 8 10 12 15 9
5 -3 8 -2 7 3 -3 13 13 53 22 53 5 0 21 5 37 12 15 6 35 10 44 9 19 -2 59 48
59 72 0 9 -5 28 -11 44 -9 25 -11 26 -20 10 -6 -9 -14 -15 -20 -12 -12 8 -12
4 7 -40 8 -20 10 -34 5 -30 -6 3 -11 -1 -11 -9 0 -22 -22 -20 -53 4 -14 11
-29 20 -34 20 -14 0 -67 61 -68 79 -2 22 -64 118 -80 125 -7 2 -22 -16 -35
-45z m142 -189 c32 -28 32 -29 10 -30 -13 0 -32 10 -43 23 -10 12 -18 16 -19
10 0 -22 -30 -14 -30 7 0 31 44 25 82 -10z"/>
<path d="M2862 3886 c-17 -23 -20 -24 -35 -8 -22 21 -32 10 -16 -20 12 -22 11
-22 -7 -8 -10 8 -27 23 -37 35 -14 17 -16 17 -11 2 7 -19 -15 -21 -28 -2 -5 6
-8 5 -8 -3 0 -7 -4 -10 -10 -7 -6 3 -7 -1 -3 -10 5 -13 7 -14 14 -3 7 10 9 10
9 -2 0 -12 2 -12 8 -2 6 8 9 2 9 -18 0 -20 -3 -26 -9 -18 -4 7 -8 9 -8 3 0 -5
5 -17 10 -25 7 -11 10 -11 10 -2 0 7 4 11 9 8 5 -3 14 1 21 9 7 8 21 15 30 15
10 0 33 18 50 40 17 22 29 40 27 40 -3 0 -14 -11 -25 -24z m-88 -56 c-5 -5
-10 3 -11 18 -1 22 0 24 9 8 6 -10 6 -22 2 -26z"/>
<path d="M2660 3869 c0 -5 -4 -8 -9 -4 -6 3 -15 -4 -21 -15 -6 -12 -16 -18
-23 -14 -8 5 -9 4 -2 -3 6 -6 33 -13 62 -16 41 -5 52 -3 57 10 4 9 4 18 1 21
-3 3 -5 -1 -5 -8 0 -7 -9 -1 -21 14 -21 27 -39 34 -39 15z m16 -28 c1 -6 0 -7
-2 -2 -3 6 -12 7 -20 4 -8 -3 -14 -1 -14 5 0 14 33 8 36 -7z"/>
<path d="M2560 3818 c0 -8 6 -22 13 -31 11 -14 14 -14 31 -2 13 10 15 15 6 15
-7 0 -22 7 -32 17 -15 13 -18 14 -18 1z"/>
<path d="M2786 3770 c-27 -28 -28 -32 -16 -56 14 -25 14 -25 22 -4 4 12 5 26
2 32 -3 5 3 12 15 15 12 3 21 13 21 24 0 26 -10 23 -44 -11z"/>
<path d="M2627 3737 c-3 -8 3 -23 14 -33 15 -14 19 -14 19 -2 0 8 -6 22 -13
32 -12 16 -15 17 -20 3z"/>
<path d="M2860 3663 c0 -5 7 -17 15 -27 14 -19 15 -19 15 7 0 17 -5 27 -15 27
-8 0 -15 -3 -15 -7z"/>
<path d="M2406 3621 c-7 -11 0 -15 18 -12 5 1 6 -6 2 -16 -5 -15 -4 -15 9 2 9
11 18 19 20 18 3 -2 5 -1 5 2 0 3 0 8 0 11 0 4 -6 2 -13 -5 -10 -7 -17 -7 -24
0 -8 8 -13 8 -17 0z"/>
<path d="M2880 3572 c0 -12 19 -26 26 -19 2 2 -2 10 -11 17 -9 8 -15 8 -15 2z"/>
<path d="M2691 3549 c-1 -4 6 -22 13 -40 l15 -34 -2 32 c-1 17 -5 29 -9 27 -3
-2 -9 2 -11 8 -3 7 -6 10 -6 7z"/>
<path d="M2597 3520 c-30 -35 -55 -92 -61 -140 l-6 -45 14 39 c8 21 28 61 46
89 34 54 39 94 7 57z"/>
<path d="M2650 3522 c0 -14 39 -46 47 -39 3 4 -2 16 -12 27 -19 21 -35 26 -35
12z"/>
<path d="M2630 3455 c-18 -21 -5 -30 24 -17 18 8 28 8 42 -2 23 -17 12 -33
-29 -41 -53 -11 -91 -32 -115 -64 -33 -45 -29 -75 4 -33 29 37 72 62 117 68
54 7 65 59 18 87 -36 21 -45 21 -61 2z"/>
<path d="M502 3865 c-26 -29 -28 -53 -8 -81 13 -17 14 -16 9 21 -4 36 -2 42
24 56 15 9 34 14 42 11 8 -3 11 0 7 7 -12 19 -52 12 -74 -14z"/>
<path d="M510 3805 c0 -5 5 -17 10 -25 5 -8 10 -10 10 -5 0 6 -5 17 -10 25 -5
8 -10 11 -10 5z"/>
<path d="M390 3602 c0 -5 13 -23 29 -41 16 -17 34 -52 41 -76 12 -43 33 -64
45 -45 7 12 -24 80 -36 80 -5 0 -9 9 -9 20 0 12 -11 32 -25 45 -24 25 -45 32
-45 17z"/>
<path d="M360 3592 c0 -5 7 -13 16 -16 10 -4 14 -1 12 6 -5 15 -28 23 -28 10z"/>
<path d="M2041 2714 c0 -11 3 -14 6 -6 3 7 2 16 -1 19 -3 4 -6 -2 -5 -13z"/>
<path d="M820 3525 c0 -12 29 -57 44 -67 21 -15 29 -8 13 10 -10 9 -26 28 -37
42 -11 14 -19 20 -20 15z"/>
<path d="M346 3145 c3 -16 9 -32 14 -35 4 -3 9 -14 11 -25 5 -26 39 -33 39 -8
0 25 -38 85 -49 78 -5 -3 -12 1 -15 7 -3 7 -3 0 0 -17z"/>
<path d="M632 3258 c5 -14 66 -58 80 -58 6 0 -9 16 -32 35 -45 38 -54 42 -48
23z"/>
<path d="M1101 3044 c0 -11 3 -14 6 -6 3 7 2 16 -1 19 -3 4 -6 -2 -5 -13z"/>
<path d="M1161 3044 c0 -11 3 -14 6 -6 3 7 2 16 -1 19 -3 4 -6 -2 -5 -13z"/>
<path d="M4004 2245 c-3 -8 -4 -20 -2 -27 3 -7 7 -1 10 15 6 29 1 36 -8 12z"/>
<path d="M3909 1378 c-29 -40 -56 -75 -59 -78 -9 -9 -125 -162 -141 -187 -10
-14 -35 -44 -58 -68 -23 -24 -41 -46 -41 -50 0 -7 -34 -48 -162 -198 -38 -44
-68 -85 -68 -92 0 -7 -3 -15 -8 -17 -4 -2 -21 -21 -39 -43 l-31 -41 23 -21
c57 -50 301 -163 354 -163 16 0 19 13 25 87 16 200 77 532 106 568 4 6 13 28
20 50 7 22 43 102 81 178 38 76 69 140 69 143 0 17 -24 -6 -71 -68z"/>
<path d="M3717 2231 l-68 -26 3 -167 c1 -93 6 -168 10 -168 4 0 12 19 18 41 6
23 34 109 61 192 28 82 49 150 47 151 -2 1 -34 -9 -71 -23z"/>
<path d="M2330 1779 c0 -4 12 -10 28 -13 15 -4 35 -9 45 -12 12 -4 17 0 17 16
0 19 -5 21 -45 19 -25 -2 -45 -6 -45 -10z"/>
<path d="M1779 1428 c-2 -42 -3 -25 12 -155 7 -61 16 -110 19 -108 3 2 11 -25
18 -59 15 -80 67 -202 143 -336 60 -105 124 -188 136 -176 4 3 -5 19 -18 34
-51 56 -114 173 -155 291 -13 36 -24 59 -25 51 0 -8 -7 7 -14 34 -8 27 -18 52
-23 55 -6 3 -12 20 -14 36 -2 17 -8 29 -15 28 -8 -2 -13 9 -13 30 0 17 -4 47
-10 66 -5 18 -10 64 -12 102 -1 37 -5 66 -9 63 -4 -2 -5 11 -2 30 3 19 1 36
-6 40 -7 5 -11 -4 -12 -26z"/>
<path d="M2500 603 c0 -13 -89 -103 -102 -103 -4 0 -8 -7 -8 -16 0 -8 -3 -13
-7 -11 -5 3 -14 -1 -20 -9 -10 -10 -9 -16 9 -28 31 -22 34 -21 95 25 49 38 53
45 53 83 0 22 -5 48 -10 56 -5 8 -10 10 -10 3z"/>
<path d="M2272 473 c-21 -8 6 -33 36 -33 24 0 25 1 7 20 -19 21 -22 22 -43 13z"/>
<path d="M4276 250 c-27 -27 -28 -30 -9 -30 21 0 36 13 46 43 9 25 -4 21 -37
-13z"/>
</g>
</svg>
