<?xml version="1.0" standalone="no"?>
<!DOCTYPE svg PUBLIC "-//W3C//DTD SVG 20010904//EN"
 "http://www.w3.org/TR/2001/REC-SVG-20010904/DTD/svg10.dtd">
<svg version="1.0" xmlns="http://www.w3.org/2000/svg"
 width="512.000000pt" height="512.000000pt" viewBox="0 0 512.000000 512.000000"
 preserveAspectRatio="xMidYMid meet">

<g transform="translate(0.000000,512.000000) scale(0.100000,-0.100000)"
fill="#000000" stroke="none">
<path d="M2585 4853 c-435 -34 -688 -192 -727 -452 -6 -36 -21 -113 -35 -169
-13 -57 -30 -158 -36 -223 -11 -113 -13 -120 -32 -115 -119 28 -130 18 -137
-121 -3 -55 -11 -110 -17 -122 -15 -26 -56 -28 -132 -4 -32 10 -89 17 -140 17
-78 1 -90 -2 -134 -29 -26 -16 -57 -42 -68 -57 l-20 -27 68 -72 c69 -74 109
-143 103 -182 -3 -20 -10 -22 -83 -27 -72 -5 -81 -7 -92 -30 -7 -14 -13 -48
-13 -76 0 -80 -8 -85 -235 -140 -95 -23 -190 -74 -254 -137 -60 -58 -141 -176
-141 -204 0 -10 16 -38 36 -63 20 -25 62 -88 94 -140 33 -52 79 -115 104 -140
59 -57 59 -78 -1 -120 -98 -68 -162 -143 -149 -176 3 -7 44 -33 92 -56 79 -39
176 -110 164 -120 -3 -2 -31 -23 -63 -46 -95 -70 -187 -205 -187 -274 0 -30
-15 -26 185 -47 110 -12 161 -24 190 -45 18 -13 14 -19 -68 -107 -185 -202
-266 -321 -293 -434 -38 -164 18 -339 153 -481 84 -88 211 -134 432 -155 300
-30 672 32 757 125 39 42 73 46 176 20 50 -13 90 -15 193 -11 245 12 362 61
381 163 3 19 9 34 13 34 13 0 106 -63 157 -106 56 -47 60 -47 83 13 18 44 81
99 128 112 21 6 70 11 109 11 64 0 73 2 87 24 22 33 95 66 146 66 24 0 80 -10
126 -22 45 -12 89 -19 97 -15 11 4 18 27 23 74 18 167 71 252 162 260 61 6
151 -16 250 -62 58 -27 79 -32 89 -24 29 24 44 110 44 251 0 103 3 138 13 139
6 0 33 0 59 -1 39 -1 49 2 58 21 22 40 3 100 -94 298 -53 108 -96 204 -96 214
0 31 66 19 272 -50 157 -53 202 -65 216 -56 14 9 17 25 15 95 -3 141 -67 309
-202 530 l-53 87 21 34 c39 64 106 97 196 97 77 0 90 12 82 75 -17 122 -124
239 -399 439 -59 42 -130 97 -157 122 -44 40 -51 51 -51 84 0 47 54 130 139
215 34 33 61 66 61 75 0 19 -52 53 -116 75 -72 26 -250 23 -377 -5 -55 -12
-101 -19 -104 -16 -3 2 0 42 7 88 18 125 25 450 11 538 -39 257 -276 457 -631
534 -131 28 -318 40 -455 29z m140 -60 c-36 -57 -46 -68 -44 -53 4 39 -2 60
-18 62 -10 0 2 4 27 8 25 4 47 8 49 8 2 1 -5 -10 -14 -25z m225 9 c0 -4 -7
-17 -15 -29 -26 -37 -75 -141 -75 -159 0 -13 -6 -15 -31 -10 -17 3 -49 6 -70
6 -22 0 -39 5 -39 11 0 6 18 9 46 8 31 -2 48 1 54 11 14 22 12 37 -6 44 -13 5
-15 1 -12 -19 5 -24 3 -25 -44 -25 -35 0 -50 4 -55 15 -8 21 6 33 17 15 10
-17 12 -15 33 26 14 28 15 34 2 44 -13 11 -12 16 8 39 20 25 28 27 105 29 45
1 82 -2 82 -6z m-520 -17 c-30 -17 -40 -18 -40 -6 0 10 22 18 50 19 8 1 4 -5
-10 -13z m-91 -46 c-11 -27 -22 -84 -26 -126 l-6 -75 -30 6 c-16 3 -41 6 -55
6 -24 0 -25 1 -20 68 3 37 13 83 23 104 15 30 26 39 69 51 28 9 54 16 58 16 3
1 -3 -22 -13 -50z m700 34 c-1 -5 -1 -26 0 -48 l2 -40 24 28 c14 16 22 33 19
39 -4 6 -2 8 4 4 6 -3 13 -2 17 4 5 9 52 4 64 -6 2 -2 -20 -29 -48 -60 -28
-31 -58 -69 -67 -85 -10 -20 -22 -29 -39 -29 -30 0 -38 12 -21 35 8 12 11 34
8 62 -3 28 -1 43 7 43 15 0 14 40 -1 41 -7 0 -4 4 7 9 26 11 25 11 24 3z
m-853 -62 c-10 -11 -15 -25 -11 -30 4 -8 -2 -8 -22 0 -25 9 -30 7 -50 -18 -13
-15 -23 -23 -23 -17 0 19 48 57 64 51 10 -4 20 1 26 13 6 11 16 20 22 20 6 0
3 -9 -6 -19z m1014 9 c-12 -7 -13 -13 -4 -27 6 -10 8 -27 4 -39 -5 -12 -3 -27
5 -37 11 -15 14 -15 24 -3 9 11 9 15 -1 20 -7 3 -4 5 8 2 27 -4 57 12 48 26
-4 7 -2 8 5 4 6 -4 18 -3 25 3 14 11 46 5 46 -8 0 -4 -22 -22 -49 -40 -28 -17
-67 -52 -89 -76 l-38 -44 -27 23 c-29 25 -35 38 -14 30 7 -2 23 7 35 21 19 22
20 25 4 25 -19 0 -45 47 -31 56 5 3 8 11 7 17 -3 14 32 57 47 57 5 0 3 -5 -5
-10z m-533 -33 c-6 -15 -16 -27 -20 -27 -5 0 -6 -8 -3 -17 9 -30 -7 -41 -69
-44 l-60 -4 2 28 c1 15 -2 25 -8 22 -12 -8 -11 6 1 25 6 10 10 11 10 3 0 -7 9
-13 20 -13 11 0 20 5 20 10 0 6 18 10 40 10 28 0 45 6 57 20 22 25 26 20 10
-13z m588 23 c3 -5 1 -10 -4 -10 -6 0 -11 5 -11 10 0 6 2 10 4 10 3 0 8 -4 11
-10z m-315 -20 c0 -5 -5 -10 -11 -10 -5 0 -7 5 -4 10 3 6 8 10 11 10 2 0 4 -4
4 -10z m-559 -30 c10 0 19 5 19 10 0 6 9 10 21 10 18 0 20 -5 17 -42 -2 -35
-7 -43 -28 -49 -14 -4 -19 -7 -12 -8 23 -2 3 -19 -28 -23 -28 -4 -30 -2 -30
27 0 42 12 103 18 87 2 -6 12 -12 23 -12z m83 5 c-4 -8 -8 -15 -10 -15 -2 0
-4 7 -4 15 0 8 4 15 10 15 5 0 7 -7 4 -15z m-297 -72 c-2 -16 -4 -5 -4 22 0
28 2 40 4 28 2 -13 2 -35 0 -50z m-121 -14 c-2 -67 -4 -71 -34 -89 -30 -18
-32 -18 -40 -2 -27 51 -24 71 19 117 23 25 45 45 49 45 4 0 7 -32 6 -71z
m1438 -8 c22 -22 38 -42 35 -43 -2 -2 -34 -18 -70 -36 -37 -18 -85 -49 -107
-68 l-41 -35 -43 47 c-24 25 -44 50 -46 54 -6 15 59 79 120 120 l60 40 27 -19
c14 -11 44 -38 65 -60z m-774 54 c0 -8 -4 -15 -10 -15 -5 0 -10 7 -10 15 0 8
5 15 10 15 6 0 10 -7 10 -15z m404 0 c-4 -8 -11 -15 -16 -15 -6 0 -5 6 2 15 7
8 14 15 16 15 2 0 1 -7 -2 -15z m-617 -17 c-3 -8 -6 -5 -6 6 -1 11 2 17 5 13
3 -3 4 -12 1 -19z m400 0 c-3 -8 -6 -5 -6 6 -1 11 2 17 5 13 3 -3 4 -12 1 -19z
m-820 -10 c-3 -8 -6 -5 -6 6 -1 11 2 17 5 13 3 -3 4 -12 1 -19z m51 -53 c-12
-10 -58 -14 -58 -5 0 6 4 9 8 6 4 -2 14 -1 22 4 12 7 38 3 28 -5z m925 -18
c159 -59 247 -166 297 -362 49 -190 35 -390 -37 -526 -20 -40 -38 -91 -43
-129 -5 -34 -10 -63 -12 -65 -10 -8 -114 -22 -116 -16 -14 39 -66 100 -96 115
-20 9 -36 21 -36 27 0 27 -214 63 -335 56 -94 -6 -135 -19 -142 -48 -5 -18
-11 -20 -42 -15 -20 3 -64 6 -98 6 l-63 0 -21 43 c-24 45 -38 36 -20 -13 9
-27 8 -30 -10 -30 -11 0 -22 8 -25 18 -3 9 -12 31 -20 47 l-14 30 3 -49 2 -48
-60 5 c-33 4 -82 10 -110 16 -27 5 -87 10 -131 10 -68 1 -83 4 -89 19 -16 42
-25 261 -15 379 21 238 71 364 180 444 63 46 117 61 260 70 74 5 180 18 235
29 84 16 131 19 295 16 179 -3 200 -5 263 -29z m-1094 -62 c0 -9 -65 -85 -73
-85 -7 0 14 81 30 118 l16 37 14 -30 c7 -16 13 -34 13 -40z m1633 -33 c14 -26
28 -58 31 -72 6 -24 2 -26 -68 -47 -40 -13 -95 -33 -122 -45 -26 -12 -51 -22
-56 -22 -4 -1 -20 27 -36 61 l-30 62 40 35 c22 19 73 50 112 70 82 41 86 39
129 -42z m49 -157 c4 -17 7 -52 8 -80 l1 -50 -108 -26 c-59 -15 -114 -30 -123
-33 -13 -6 -17 2 -22 38 -4 26 -9 57 -13 70 -5 20 0 27 28 42 48 25 190 74
208 71 8 -1 18 -16 21 -32z m9 -230 l0 -74 -32 -5 c-103 -17 -190 -27 -194
-23 -3 3 -8 30 -11 60 l-6 55 49 16 c51 16 160 44 182 45 8 1 12 -20 12 -74z
m-14 -220 c-3 -8 -31 -13 -78 -14 -40 -1 -90 -6 -112 -11 l-39 -8 6 55 c3 31
9 59 14 64 4 4 53 14 108 21 l100 14 3 -55 c2 -29 1 -59 -2 -66z m-1864 29 c4
-3 8 -31 8 -62 1 -31 5 -88 10 -127 10 -79 3 -95 -41 -95 -111 0 -167 -103
-155 -283 l7 -98 -80 -85 c-207 -219 -332 -433 -418 -719 l-18 -60 -3 60 c-3
56 13 227 25 269 3 11 1 16 -5 12 -14 -8 -39 -124 -48 -216 -8 -91 11 -440 32
-569 8 -52 25 -126 39 -165 l24 -71 -87 -88 -87 -87 -40 19 c-54 25 -131 41
-242 48 -50 3 -97 9 -104 14 -9 5 -5 23 19 71 34 69 129 172 187 204 23 12 35
26 35 39 0 33 -78 100 -167 145 -46 23 -83 47 -83 54 0 23 38 63 110 115 38
28 74 60 80 71 15 28 -12 83 -57 118 -19 15 -56 64 -84 108 -27 45 -69 110
-94 143 l-46 62 28 52 c41 76 146 178 222 217 36 18 113 43 175 57 176 39 205
61 206 158 0 72 6 76 85 73 60 -2 69 0 86 21 11 13 19 35 19 50 0 44 -46 123
-107 186 l-57 58 36 33 c37 33 91 54 142 54 16 0 68 -9 116 -21 171 -40 200
-21 207 138 6 115 13 125 75 111 23 -5 45 -11 50 -14z m1854 -96 c-3 -18 -8
-58 -11 -89 l-6 -56 -112 -7 c-62 -3 -124 -9 -139 -12 l-28 -6 35 75 c19 42
35 83 35 91 0 9 10 18 23 20 12 3 31 7 42 9 11 3 53 5 93 6 l73 1 -5 -32z
m421 -88 c73 -9 163 -44 163 -62 0 -6 -33 -46 -74 -89 -86 -89 -116 -141 -116
-199 0 -56 26 -88 140 -173 234 -173 284 -214 351 -284 72 -77 119 -156 119
-205 0 -27 -1 -28 -57 -28 -87 0 -129 -16 -183 -68 -75 -73 -75 -81 13 -229
66 -113 105 -193 146 -298 30 -80 51 -238 32 -249 -4 -3 -86 21 -180 54 -205
70 -271 86 -301 70 -38 -20 -25 -65 76 -273 65 -133 97 -210 98 -235 l1 -37
-58 0 c-40 -1 -61 -5 -67 -15 -6 -8 -10 -78 -11 -155 -1 -147 -14 -221 -40
-218 -8 1 -52 18 -99 37 -94 39 -167 52 -236 41 -91 -13 -150 -109 -169 -272
-4 -35 -8 -63 -9 -63 -2 0 -38 9 -81 20 -131 33 -209 23 -273 -35 -34 -30 -43
-33 -117 -36 -107 -5 -167 -35 -214 -106 l-33 -50 -66 49 c-36 28 -81 57 -99
66 -38 18 -38 18 -17 67 9 22 13 49 9 63 -6 26 11 81 29 94 6 4 33 8 59 8 63
0 231 34 327 66 100 33 218 91 312 153 89 58 302 254 335 309 45 73 82 190
123 387 23 110 54 232 70 270 16 39 43 104 60 144 33 81 70 210 70 248 0 13 5
23 10 23 6 0 10 -50 11 -127 1 -153 19 -129 21 27 3 295 -164 654 -405 871
l-52 46 3 71 c4 70 -13 125 -39 134 -9 3 -9 19 -1 67 6 35 13 66 16 68 11 11
169 45 241 52 44 5 82 9 85 9 3 1 37 -3 77 -8z m-1357 -90 c0 -5 -20 -10 -44
-10 -24 0 -51 -3 -60 -6 -9 -3 -16 -1 -16 4 0 12 27 19 83 21 20 0 37 -3 37
-9z m120 0 c0 -5 -25 -10 -56 -10 -34 0 -53 4 -49 10 3 6 28 10 56 10 27 0 49
-4 49 -10z m90 -6 c0 -2 -18 -4 -41 -4 -22 0 -38 4 -35 8 5 8 76 4 76 -4z
m696 -6 c-3 -13 -6 -31 -6 -42 0 -16 -6 -18 -46 -13 -26 2 -50 11 -55 18 -6
11 -16 5 -38 -22 -21 -26 -42 -39 -68 -44 -21 -3 -48 -9 -60 -12 -20 -4 -23
-1 -23 25 0 55 16 80 57 91 54 14 88 18 172 20 71 1 73 0 67 -21z m-1768 -86
c6 -2 12 2 12 9 0 22 12 1 20 -37 7 -29 5 -45 -8 -66 -9 -15 -20 -28 -24 -28
-11 0 -10 -13 2 -46 l11 -27 22 21 c33 31 121 72 153 71 26 0 23 -3 -22 -23
-49 -23 -120 -85 -156 -137 -16 -23 -16 -23 -11 -2 7 28 -26 128 -38 116 -5
-5 -3 -28 6 -55 15 -42 15 -49 -4 -99 -21 -55 -21 -82 0 -35 16 34 25 33 33
-6 4 -19 27 -52 61 -86 52 -52 57 -54 96 -49 41 5 119 49 119 67 0 6 -9 5 -20
-2 -17 -11 -22 -10 -30 2 -5 8 -8 20 -6 27 3 7 -4 6 -22 -3 -15 -8 -42 -14
-59 -14 -27 0 -38 8 -63 42 -19 26 -27 44 -20 48 16 10 133 12 186 4 34 -5 42
-9 34 -19 -21 -25 21 -27 44 -2 20 21 21 31 18 180 -3 161 1 180 32 135 32
-46 11 -271 -35 -359 -44 -86 -146 -133 -289 -133 -153 1 -203 53 -230 239
-20 144 -9 237 35 281 30 30 75 33 75 4 0 -13 7 -20 20 -20 13 0 20 7 20 18 0
29 14 36 20 11 3 -12 11 -24 18 -27z m91 1 c1 -7 -3 -13 -9 -13 -5 0 -10 15
-9 33 0 27 2 29 9 12 5 -11 9 -26 9 -32z m74 7 c3 -13 0 -20 -9 -20 -8 0 -14
10 -14 26 0 28 15 25 23 -6z m93 10 c0 -11 -4 -20 -8 -20 -10 0 -11 24 -1 33
9 9 9 10 9 -13z m174 5 c7 -8 16 -15 21 -15 5 0 9 7 9 15 0 8 9 15 20 15 11 0
23 -7 26 -15 4 -8 13 -15 21 -15 9 0 13 6 9 15 -4 10 1 15 14 15 18 0 18 -2
-5 -36 -14 -20 -25 -48 -25 -61 0 -22 -3 -24 -47 -21 -46 3 -47 4 -55 42 -5
22 -16 48 -25 58 -15 17 -15 18 4 18 11 0 26 -7 33 -15z m473 8 c-7 -2 -19 -2
-25 0 -7 3 -2 5 12 5 14 0 19 -2 13 -5z m107 -8 c0 -9 -6 -12 -15 -9 -8 4 -15
10 -15 15 0 5 7 9 15 9 8 0 15 -7 15 -15z m110 -20 c0 -3 -9 -5 -20 -5 -11 0
-20 7 -20 15 0 13 4 14 20 5 11 -6 20 -13 20 -15z m108 -7 c43 -46 53 -126 32
-253 -17 -107 -40 -163 -81 -199 -48 -44 -92 -56 -204 -56 -213 0 -335 65
-375 200 -40 131 -44 245 -12 289 22 29 45 40 36 17 -3 -9 -3 -23 0 -33 6 -14
11 -11 37 15 35 36 54 39 87 16 30 -21 28 -58 -5 -89 -35 -33 -65 -45 -93 -38
-19 5 -21 3 -16 -14 4 -12 8 -48 10 -81 3 -33 13 -77 24 -98 30 -58 89 -122
133 -144 42 -22 121 -26 164 -10 33 13 135 100 135 116 0 6 11 22 24 35 13 13
26 40 29 59 3 19 10 62 16 95 5 33 12 90 16 128 4 37 10 67 14 67 4 0 17 -10
29 -22z m555 -38 c28 -31 29 -37 23 -94 -7 -71 -46 -159 -105 -236 l-42 -55 7
-86 c5 -68 3 -92 -9 -116 -19 -36 -72 -83 -93 -83 -22 0 -113 89 -120 117 -4
12 -12 23 -19 23 -10 0 -11 -9 -5 -36 7 -30 -1 -65 -46 -205 -97 -301 -163
-456 -222 -521 -19 -21 -64 -55 -99 -75 -60 -33 -256 -123 -269 -123 -3 0 3
12 14 28 29 42 34 52 25 52 -4 0 -30 -27 -58 -61 -62 -75 -167 -152 -206 -151
-34 1 -177 38 -204 54 -11 6 -31 18 -45 27 l-25 15 19 -22 c17 -20 17 -22 2
-22 -25 0 -97 38 -128 68 -27 25 -28 30 -28 124 0 64 -4 97 -10 93 -5 -3 -10
-15 -10 -26 0 -10 -4 -19 -8 -19 -11 0 -78 97 -91 133 -7 17 -11 128 -11 286
0 247 -6 306 -35 383 -6 16 -2 17 36 12 52 -7 165 17 224 47 47 25 91 63 115
102 18 29 18 28 13 -60 -3 -48 -7 -89 -8 -90 -1 -2 -29 -6 -63 -9 -76 -8 -95
-26 -96 -92 -2 -41 -11 -61 -69 -147 -37 -55 -77 -112 -89 -127 -28 -36 -14
-53 58 -69 41 -9 62 -21 84 -46 34 -38 35 -41 15 -67 -10 -14 -21 -17 -40 -12
-20 5 -26 3 -23 -6 7 -22 83 -58 169 -79 71 -18 103 -21 214 -16 150 6 227 26
327 87 35 21 65 37 66 35 2 -2 -13 -42 -33 -90 -21 -47 -35 -89 -32 -92 15
-15 153 306 166 385 8 54 8 55 -21 71 -16 9 -83 51 -148 94 -104 68 -119 81
-124 110 -8 44 -47 81 -75 72 -19 -6 -21 -2 -21 44 l0 51 63 -35 c84 -46 201
-68 326 -63 136 6 198 42 250 145 23 46 51 190 51 263 l0 48 46 7 c25 3 48 4
52 1 3 -3 4 -55 3 -116 -1 -60 2 -110 6 -110 8 0 61 80 165 244 l49 78 56 -4
c48 -4 61 -10 86 -38z m-272 -100 c-25 -43 -48 -79 -51 -80 -3 0 -3 33 0 72 5
71 6 73 35 79 65 14 65 13 16 -71z m-557 36 c39 -18 87 -47 107 -62 20 -16 44
-33 52 -39 8 -5 18 -23 22 -40 6 -28 2 -25 -59 33 -82 79 -139 105 -228 106
-70 1 -89 11 -40 22 15 3 32 7 37 9 24 8 42 3 109 -29z m-448 -34 c6 -4 14
-30 17 -58 3 -29 18 -85 33 -125 20 -55 28 -99 31 -169 5 -108 12 -124 51
-109 31 12 52 -8 52 -50 0 -41 -14 -53 -91 -80 -62 -22 -77 -32 -104 -71 -36
-50 -51 -53 -152 -29 l-52 12 5 41 c5 35 2 46 -25 80 -36 45 -34 38 -21 71 9
24 14 26 62 23 52 -3 53 -4 51 -32 -1 -16 2 -25 6 -20 22 24 33 96 47 289 8
116 17 216 19 223 5 13 53 16 71 4z m339 -62 l0 -50 -42 0 c-24 0 -43 4 -43
10 0 11 69 90 79 90 3 0 6 -22 6 -50z m149 15 c15 -11 17 -18 8 -27 -13 -13
-42 6 -42 28 0 18 10 17 34 -1z m-754 -20 c22 -24 22 -25 4 -25 -23 0 -44 18
-44 37 0 20 14 16 40 -12z m-127 -35 c6 -24 -9 -33 -43 -28 l-22 3 22 28 c23
30 35 29 43 -3z m957 -5 l24 -25 -35 6 c-42 8 -43 9 -36 29 9 21 20 19 47 -10z
m-786 -10 c4 -10 -1 -15 -16 -15 -17 0 -18 2 -8 15 7 8 14 15 15 15 2 0 5 -7
9 -15z m1627 -64 c43 -44 109 -127 147 -185 185 -281 208 -485 86 -774 -64
-152 -101 -273 -133 -432 -17 -85 -36 -173 -42 -194 l-11 -40 -41 79 c-80 152
-125 180 -385 239 -134 30 -144 34 -162 63 -10 17 -31 39 -47 50 -37 27 -167
93 -182 93 -18 0 -13 8 27 45 62 56 146 247 242 555 23 74 44 137 47 140 2 2
7 0 11 -6 4 -5 20 -20 36 -32 62 -47 143 -15 186 74 19 39 22 55 16 110 -4 35
-9 69 -11 76 -3 7 15 40 40 73 25 33 53 79 62 102 10 24 22 43 28 43 5 0 44
-36 86 -79z m-850 12 c7 -7 -1 -19 -27 -41 -37 -31 -99 -52 -154 -52 -38 0
-129 45 -137 68 -4 9 -14 23 -22 30 -13 11 14 12 157 9 102 -2 177 -8 183 -14z
m-1267 -76 c17 -59 71 -128 114 -146 23 -10 33 -25 51 -75 20 -58 22 -82 24
-347 2 -319 -1 -305 88 -426 31 -42 39 -61 39 -95 0 -24 7 -54 16 -66 9 -13
13 -26 10 -29 -3 -3 -77 -10 -163 -15 -165 -9 -320 -31 -355 -49 -32 -17 -200
-126 -230 -149 -14 -11 -31 -20 -36 -20 -33 0 -82 271 -82 457 0 98 4 124 39
244 78 267 170 435 346 634 34 39 74 85 90 103 15 17 29 32 31 32 1 0 9 -24
18 -53z m1041 -384 c57 -38 112 -73 122 -79 15 -10 12 -14 -29 -31 -79 -36
-102 -37 -135 -9 -17 14 -47 50 -68 80 -37 54 -37 54 -19 80 11 14 20 26 22
26 2 0 50 -30 107 -67z m-616 -31 c-43 -109 -79 -172 -97 -172 -48 1 -44 16
35 134 42 65 79 113 81 106 2 -6 -6 -37 -19 -68z m534 -68 c26 -29 44 -54 40
-57 -4 -3 -34 -12 -65 -20 l-58 -15 -40 85 c-22 47 -40 89 -40 93 0 4 15 12
33 17 29 10 34 8 57 -20 14 -17 47 -54 73 -83z m-496 77 c-4 -17 0 -36 9 -50
14 -20 14 -27 -2 -76 -9 -30 -23 -60 -30 -66 -12 -10 -74 -4 -74 7 0 3 11 27
25 54 14 27 34 74 46 105 22 59 35 73 26 26z m351 -83 c22 -46 37 -86 33 -90
-3 -4 -29 -10 -57 -13 l-51 -7 -7 38 c-4 22 -9 50 -11 64 -5 26 27 90 44 90 5
0 27 -37 49 -82z m-235 -5 c4 -2 7 -29 7 -59 l0 -54 -61 0 c-45 0 -60 3 -57
13 3 6 13 36 23 65 17 52 18 53 48 46 18 -3 35 -8 40 -11z m131 -53 c8 -25 12
-48 9 -52 -2 -5 -31 -8 -65 -8 -58 0 -60 1 -54 23 3 12 6 36 6 54 0 31 1 31
45 30 45 -2 46 -3 59 -47z m466 -17 c-30 -92 -100 -138 -181 -116 -34 9 -46 7
-86 -13 -27 -13 -56 -24 -65 -24 -9 0 -20 -5 -24 -11 -10 -17 54 -1 96 23 29
17 40 18 70 9 19 -6 44 -12 55 -14 33 -5 -58 -53 -150 -78 -104 -30 -268 -32
-370 -6 -96 25 -101 28 -80 60 15 24 16 29 1 58 -9 18 -16 33 -16 34 0 0 57 1
128 2 189 1 411 41 561 102 36 15 67 23 69 19 2 -4 -2 -25 -8 -45z m235 -548
c143 -67 158 -92 131 -202 -36 -140 -144 -354 -194 -382 -22 -12 -63 10 -182
98 -103 77 -133 85 -167 49 -25 -27 -83 -118 -83 -130 0 -5 27 21 61 56 68 73
66 73 142 13 37 -29 37 -30 20 -50 -35 -39 -179 -140 -248 -173 -91 -44 -101
-44 -76 4 13 25 19 58 19 98 0 75 9 93 111 216 70 84 97 108 217 188 134 90
183 131 162 139 -5 2 -15 -2 -21 -8 -22 -22 -27 -10 -27 65 0 89 -9 87 135 19z
m-174 -49 l2 -69 -89 -60 c-49 -32 -108 -75 -132 -94 -59 -48 -212 -249 -212
-279 0 -13 -4 -24 -8 -24 -13 0 -50 38 -56 57 -16 53 -46 232 -46 272 l0 46
49 -3 c55 -4 87 9 168 70 28 22 87 54 130 73 43 18 103 44 133 58 30 14 56 24
57 23 1 0 3 -32 4 -70z m-818 -66 c19 -11 76 -29 128 -40 126 -27 121 -24 114
-62 -4 -20 6 -92 23 -181 30 -147 30 -148 76 -197 25 -27 46 -51 46 -54 0 -14
-55 -116 -63 -116 -11 0 -73 69 -85 94 -6 12 -18 43 -27 69 -9 27 -35 68 -56
93 -46 53 -48 66 -14 88 33 22 40 16 60 -44 9 -28 19 -50 21 -50 7 0 -8 103
-18 123 -16 31 -67 19 -120 -31 -20 -18 -34 -23 -54 -19 -16 3 -39 1 -52 -4
-20 -8 -25 -5 -36 24 -21 50 -39 174 -31 215 6 31 43 112 51 112 2 0 18 -9 37
-20z m-98 -17 c-23 -51 -29 -135 -15 -206 24 -128 23 -132 -61 -209 -41 -38
-90 -81 -109 -96 -59 -45 -99 -86 -93 -96 3 -5 1 -6 -6 -2 -6 4 -28 -5 -49
-21 -20 -16 -59 -43 -87 -59 -47 -27 -57 -29 -168 -31 -70 -1 -115 2 -112 8 6
8 -8 13 -20 7 -2 -2 -10 5 -17 14 -14 18 -98 42 -98 27 0 -4 19 -27 43 -50 26
-25 34 -38 22 -34 -11 4 -63 12 -116 18 -103 11 -154 4 -194 -29 -20 -16 -20
-16 0 -8 55 19 94 27 111 20 15 -6 10 -12 -31 -35 -44 -26 -108 -81 -93 -81 3
0 31 16 63 35 31 19 83 39 114 46 54 11 60 10 176 -29 118 -40 322 -84 460
-100 80 -8 75 4 50 -132 -15 -80 -15 -203 0 -242 5 -13 -32 -16 -292 -22 -315
-8 -508 2 -598 29 -27 9 -75 31 -107 49 -38 23 -64 33 -79 29 -15 -4 -20 -3
-15 6 4 6 12 9 17 6 5 -4 9 -1 9 4 0 10 -13 15 -31 13 -16 -2 -31 93 -27 167
4 64 11 93 37 146 45 91 168 243 335 414 181 184 269 260 399 344 120 78 167
90 387 106 204 14 203 14 195 -6z m1420 -38 c61 -14 143 -36 183 -51 87 -31
113 -59 176 -188 l44 -90 -26 -52 c-19 -38 -63 -87 -149 -169 -136 -128 -195
-169 -316 -222 -77 -34 -90 -36 -210 -41 -186 -7 -242 15 -281 110 -20 47 -20
71 0 114 22 46 15 50 -25 14 -18 -17 -37 -30 -42 -30 -6 0 -7 -4 -4 -10 3 -5
2 -10 -4 -10 -5 0 -17 -7 -25 -16 -9 -8 -20 -12 -26 -9 -6 3 27 35 72 71 46
36 97 76 113 89 17 14 36 25 43 25 6 0 12 3 12 8 0 4 17 6 39 4 34 -3 43 1 80
39 66 69 159 263 182 380 14 70 8 69 164 34z m-1257 -325 c88 -46 113 -88 123
-203 5 -49 14 -105 21 -124 11 -31 15 -34 43 -28 59 12 212 18 279 10 91 -9
117 -33 106 -93 -4 -23 -15 -52 -24 -66 -20 -31 -20 -36 -2 -36 29 0 36 -85
12 -132 -9 -17 -13 -41 -9 -63 4 -24 0 -44 -16 -70 -13 -23 -21 -53 -21 -81 0
-62 -34 -95 -126 -124 -163 -50 -287 -51 -500 -5 -19 4 -22 16 -34 152 -16
183 -5 290 33 332 35 38 85 150 92 207 7 49 -4 109 -44 259 -10 39 -17 73 -14
78 8 13 43 7 81 -13z m727 -70 c3 -5 0 -10 -7 -10 -19 0 -109 -76 -100 -85 4
-3 3 -5 -3 -4 -15 5 -95 -52 -95 -67 0 -8 -5 -14 -11 -14 -5 0 -7 5 -3 12 4 7
-6 3 -22 -9 -16 -11 -38 -25 -49 -32 -13 -7 -15 -11 -5 -10 8 1 35 1 60 0 32
-1 41 -4 30 -10 -8 -6 -17 -8 -20 -6 -11 7 -104 7 -140 0 -25 -4 -13 5 45 33
83 41 191 114 260 175 43 39 51 42 60 27z m30 -41 c-4 -5 -12 -9 -18 -8 -9 0
-8 2 1 6 6 2 9 10 6 15 -4 7 -2 8 5 4 6 -4 9 -12 6 -17z m-60 -9 c3 -5 1 -10
-4 -10 -6 0 -11 5 -11 10 0 6 2 10 4 10 3 0 8 -4 11 -10z m20 -29 c-3 -6 -11
-11 -16 -11 -5 0 -4 6 3 14 14 16 24 13 13 -3z m-115 -61 c0 -5 -2 -10 -4 -10
-3 0 -8 5 -11 10 -3 6 -1 10 4 10 6 0 11 -4 11 -10z m-930 -85 c-7 -9 -15 -13
-17 -11 -7 7 7 26 19 26 6 0 6 -6 -2 -15z m-130 -1 c0 -8 -19 -13 -24 -6 -3 5
1 9 9 9 8 0 15 -2 15 -3z m150 -81 c36 -19 77 -46 91 -59 14 -14 42 -29 62
-35 42 -11 41 -31 -4 -49 -43 -18 -144 -12 -372 21 l-79 12 39 39 c21 22 60
58 87 80 58 46 75 45 176 -9z m-260 -8 c-7 -9 -15 -13 -19 -10 -3 3 1 10 9 15
21 14 24 12 10 -5z m-77 -82 c-7 -2 -19 -2 -25 0 -7 3 -2 5 12 5 14 0 19 -2
13 -5z m367 -102 c0 -5 -7 -28 -16 -52 -13 -32 -17 -79 -17 -176 -1 -73 -3
-130 -6 -128 -2 3 -14 -2 -27 -10 -20 -13 -23 -12 -29 3 -13 34 -17 178 -7
247 16 108 25 125 67 125 19 0 35 -4 35 -9z m97 -188 c1 -109 3 -214 5 -232 3
-32 0 -36 -28 -41 -30 -7 -32 -5 -42 29 -24 79 -34 178 -29 260 9 131 30 177
82 180 6 1 11 -72 12 -196z m-1243 -168 c6 -28 5 -29 -8 -12 -8 11 -12 25 -9
33 7 18 9 16 17 -21z m48 -53 c-13 -4 39 -52 56 -52 5 0 13 -7 16 -16 4 -9 13
-14 21 -10 8 3 15 2 15 -3 0 -19 229 -86 260 -76 11 3 20 2 20 -3 0 -32 460
-13 574 23 56 17 76 19 76 6 0 -5 -25 -17 -55 -25 -212 -62 -604 -60 -804 4
-86 27 -111 42 -164 99 -46 49 -55 77 -20 64 11 -4 12 -8 5 -11z m1073 -32 c9
8 11 4 7 -17 -5 -25 -6 -25 -18 -8 -8 10 -14 24 -13 29 0 6 3 5 6 -2 3 -9 9
-10 18 -2z m-10 -50 c4 -13 15 -20 33 -20 29 0 21 -14 -14 -24 -16 -5 -23 -2
-27 11 -2 10 -8 26 -12 36 -4 10 -3 17 3 17 6 0 14 -9 17 -20z"/>
<path d="M2775 4780 c-10 -11 -13 -20 -8 -20 13 0 38 29 31 35 -3 3 -13 -4
-23 -15z"/>
<path d="M2842 4749 l1 -51 23 43 c29 56 29 59 0 59 -23 0 -25 -3 -24 -51z"/>
<path d="M3010 4670 c0 -5 4 -10 9 -10 6 0 13 5 16 10 3 6 -1 10 -9 10 -9 0
-16 -4 -16 -10z"/>
<path d="M3160 4686 c0 -2 7 -7 16 -10 8 -3 12 -2 9 4 -6 10 -25 14 -25 6z"/>
<path d="M2360 4620 c0 -13 7 -20 20 -20 13 0 20 7 20 20 0 13 -7 20 -20 20
-13 0 -20 -7 -20 -20z"/>
<path d="M2365 4214 l-70 -13 85 3 c47 1 94 7 105 14 18 10 16 11 -15 10 -19
0 -66 -7 -105 -14z"/>
<path d="M2689 4180 c-10 -6 -77 -24 -150 -41 -126 -29 -142 -31 -274 -26
-100 4 -146 2 -162 -6 -19 -11 -13 -13 50 -14 40 -1 119 -3 177 -4 86 -2 126
2 218 24 62 15 130 34 150 43 34 13 43 13 82 -1 59 -21 64 -10 6 15 -53 22
-73 24 -97 10z"/>
<path d="M2745 4023 c-16 -2 -93 -21 -170 -41 -134 -35 -147 -37 -300 -36 -88
0 -184 6 -213 12 -57 13 -100 2 -110 -27 -3 -10 4 -9 26 5 28 16 37 16 79 6
83 -20 235 -35 313 -29 41 3 149 24 239 46 91 23 181 41 202 41 44 0 110 -22
149 -50 38 -27 48 -25 21 4 -44 47 -159 81 -236 69z"/>
<path d="M2830 3767 c-67 -36 -90 -51 -90 -60 0 -10 42 1 109 28 30 12 63 20
74 17 11 -3 48 -32 83 -65 36 -33 67 -58 70 -55 6 7 -73 101 -108 128 -43 33
-86 35 -138 7z"/>
<path d="M1935 3758 c-28 -15 -75 -60 -75 -71 0 -5 21 3 46 17 58 32 85 33
131 1 35 -23 60 -25 47 -3 -10 16 -97 68 -113 68 -9 0 -25 -6 -36 -12z"/>
<path d="M3780 1365 c-30 -32 -14 -32 25 0 20 16 25 24 14 25 -8 0 -26 -11
-39 -25z"/>
<path d="M3827 1354 c-4 -4 -4 -10 -1 -15 6 -10 34 0 34 12 0 10 -24 12 -33 3z"/>
<path d="M3875 1330 c3 -5 8 -10 11 -10 2 0 4 5 4 10 0 6 -5 10 -11 10 -5 0
-7 -4 -4 -10z"/>
<path d="M3463 3358 c-47 -49 -93 -130 -93 -165 0 -13 7 -35 16 -48 13 -20 14
-33 5 -75 -6 -28 -20 -68 -31 -90 -27 -53 -26 -95 2 -114 44 -31 88 -14 88 33
0 43 -16 57 -23 22 -7 -33 -27 -40 -46 -17 -8 10 -5 26 14 69 35 76 43 146 20
184 -16 28 -16 31 7 78 12 27 28 50 35 52 11 4 28 -41 37 -97 2 -14 4 -2 5 27
0 29 -4 63 -10 77 -10 20 -8 29 9 50 23 30 34 22 50 -34 7 -27 11 -31 17 -18
4 10 0 37 -7 60 -20 58 -42 60 -95 6z"/>
<path d="M3145 2848 c-27 -34 -70 -76 -95 -94 -41 -30 -46 -37 -42 -66 2 -21
-22 -119 -64 -263 -36 -126 -69 -239 -72 -249 -3 -12 -1 -17 5 -13 30 19 160
407 165 494 3 44 9 54 61 108 52 52 105 131 95 140 -2 2 -26 -24 -53 -57z"/>
<path d="M2086 2179 c16 -17 42 -38 59 -46 29 -16 117 -20 155 -8 28 9 25 29
-4 21 -36 -9 -135 13 -185 40 -57 31 -61 30 -25 -7z"/>
</g>
</svg>
