<?xml version="1.0" standalone="no"?>
<!DOCTYPE svg PUBLIC "-//W3C//DTD SVG 20010904//EN"
 "http://www.w3.org/TR/2001/REC-SVG-20010904/DTD/svg10.dtd">
<svg version="1.0" xmlns="http://www.w3.org/2000/svg"
 width="34.000000pt" height="40.000000pt" viewBox="0 0 34.000000 40.000000"
 preserveAspectRatio="xMidYMid meet">

<g transform="translate(0.000000,40.000000) scale(0.100000,-0.100000)"
fill="#000000" stroke="none">
<path d="M154 369 c-4 -6 1 -9 12 -8 11 2 24 0 31 -4 6 -4 15 -2 19 4 4 7 3 9
-4 5 -6 -3 -13 -2 -17 4 -8 13 -32 13 -41 -1z"/>
<path d="M107 258 c4 -19 3 -20 -7 -8 -10 13 -11 13 -7 0 6 -24 44 -24 50 -1
3 12 11 21 19 21 11 0 10 -2 -1 -9 -17 -11 -6 -31 17 -31 15 0 15 2 2 10 -8 5
-10 10 -5 10 6 0 16 -5 23 -12 9 -9 12 -8 12 6 0 13 5 16 18 12 14 -5 14 -4
-2 9 -12 9 -41 15 -72 15 -49 0 -52 -1 -47 -22z"/>
<path d="M174 154 c-18 -14 -18 -15 4 -4 12 6 22 13 22 15 0 8 -5 6 -26 -11z"/>
<path d="M95 96 c-17 -12 -17 -13 3 -11 26 2 37 11 24 19 -5 3 -17 -1 -27 -8z"/>
<path d="M155 100 c-19 -8 -19 -9 2 -9 12 -1 25 4 28 9 7 12 -2 12 -30 0z"/>
<path d="M178 73 c6 -2 18 -2 25 0 6 3 1 5 -13 5 -14 0 -19 -2 -12 -5z"/>
<path d="M71 43 c-22 -3 -30 -7 -22 -12 15 -10 61 -2 61 10 0 5 -1 8 -2 7 -2
0 -18 -3 -37 -5z"/>
</g>
</svg>
