<svg version="1.1" id="Layer_1" xmlns="http://www.w3.org/2000/svg" xmlns:xlink="http://www.w3.org/1999/xlink" x="0px" y="0px"
	 width="100%" viewBox="0 0 51 51" enable-background="new 0 0 51 51" xml:space="preserve">
<path fill="#000000" opacity="1.000000" stroke="none" 
	d="
M28.000080,52.000000 
	C18.666729,52.000000 9.833398,52.000000 1.000049,52.000000 
	C1.000033,35.000027 1.000033,18.000050 1.000016,1.000056 
	C17.999971,1.000037 34.999943,1.000037 51.999939,1.000019 
	C51.999958,17.999969 51.999958,34.999939 51.999977,51.999954 
	C44.166698,52.000000 36.333397,52.000000 28.000080,52.000000 
M19.429195,7.061750 
	C19.338905,7.395931 19.248617,7.730111 19.035370,8.780368 
	C18.418932,10.508332 17.802492,12.236296 16.976494,14.531469 
	C16.619003,15.000238 16.261511,15.469007 15.195440,15.992959 
	C14.404789,16.320261 13.614138,16.647562 12.174179,17.229471 
	C12.100492,18.142382 12.026806,19.055290 11.366233,20.223677 
	C10.847362,21.131845 10.328489,22.040014 9.375036,22.932331 
	C9.375036,22.932331 8.975930,23.105034 8.211573,23.253201 
	C7.674228,24.543259 7.136884,25.833315 6.691422,27.226088 
	C6.691422,27.226088 6.767986,27.340679 6.109690,27.702572 
	C6.123250,28.459709 6.136810,29.216846 6.071567,30.518394 
	C6.374733,30.692568 6.677900,30.866741 7.028766,31.504753 
	C7.028766,31.504753 7.169675,31.949236 6.993202,32.669857 
	C6.953902,33.409084 6.914603,34.148312 6.349201,35.057163 
	C6.621457,35.628166 6.893713,36.199165 7.202674,36.727951 
	C7.202674,36.727951 7.185241,36.674793 7.640325,36.782303 
	C8.093968,36.883926 8.547612,36.985550 8.989034,37.717880 
	C8.715387,38.478470 8.441741,39.239063 7.856096,40.640526 
	C7.292116,42.084740 6.728136,43.528950 6.163682,45.485607 
	C6.443989,45.653534 6.724296,45.821461 6.999693,46.000237 
	C6.999693,46.000237 7.010096,45.994865 7.037118,46.748650 
	C9.981477,50.369999 13.978437,50.229645 18.608311,49.803234 
	C19.087746,49.525066 19.567183,49.246902 20.616079,48.996670 
	C20.782768,48.674168 20.949455,48.351669 21.881458,47.903973 
	C22.911184,47.852524 23.940912,47.801075 25.483381,47.942993 
	C25.662849,47.908974 25.842316,47.874954 26.517357,47.968437 
	C26.682589,47.926102 26.847822,47.883766 27.656336,47.994129 
	C28.093531,47.959034 28.530727,47.923935 29.583811,48.029778 
	C30.078983,47.748398 30.574154,47.467014 31.748384,47.048420 
	C32.209095,46.394001 32.669807,45.739586 33.855621,44.942089 
	C34.937294,44.309196 36.018963,43.676300 37.824730,42.726002 
	C39.481041,42.344120 41.137352,41.962234 43.471905,41.423973 
	C43.302734,39.345974 43.125389,37.167606 43.518929,34.995499 
	C43.700954,34.939991 43.882984,34.884480 44.744205,34.726849 
	C44.858849,34.306671 44.973492,33.886494 45.318039,33.520634 
	C45.318039,33.520634 45.513344,33.387745 45.963455,32.789165 
	C45.880310,31.546766 45.797165,30.304367 45.982201,28.389559 
	C46.562336,27.570221 47.142471,26.750883 47.788891,25.482849 
	C47.788891,25.482849 47.707447,25.036655 47.922997,24.502542 
	C47.604713,24.410166 47.286430,24.317789 46.429749,24.017471 
	C45.994293,23.657631 45.558838,23.297791 45.025566,22.198460 
	C44.362522,21.448845 43.699478,20.699228 42.996265,19.993887 
	C42.996265,19.993887 43.048553,19.966049 43.058186,19.485809 
	C43.058186,19.485809 42.894733,19.034140 42.943268,18.453053 
	C42.880909,18.268957 42.818554,18.084864 42.859016,17.147005 
	C41.583313,16.425104 40.307610,15.703205 39.042011,14.471316 
	C38.955200,14.325120 38.868385,14.178923 38.843430,13.236915 
	C38.244125,11.461371 37.644825,9.685828 36.702412,7.347249 
	C35.483612,6.641243 34.264812,5.935236 33.007576,4.649581 
	C32.528519,4.540200 32.049465,4.430820 31.149317,4.206748 
	C30.730341,4.231913 30.311367,4.257078 29.190025,4.050826 
	C27.449945,3.844606 25.709864,3.638386 23.487556,3.937438 
	C22.957283,4.284860 22.427010,4.632281 21.423870,5.108179 
	C21.136589,5.299035 20.954350,5.562540 20.396925,6.093866 
	C20.251820,6.393038 20.106714,6.692210 20.003178,7.004928 
	C20.003178,7.004928 19.997467,6.961582 19.429195,7.061750 
z"/>
<path fill="#FCB98D" opacity="1.000000" stroke="none" 
	d="
M17.186052,13.964259 
	C17.802492,12.236296 18.418932,10.508332 19.317299,8.303796 
	C19.912300,7.621611 20.045046,7.333064 19.997467,6.961582 
	C19.997467,6.961582 20.003178,7.004928 20.324200,7.044305 
	C21.100319,7.022249 21.555416,6.960815 22.263239,6.930052 
	C22.685160,6.947385 22.854353,6.934049 23.253597,6.946786 
	C23.483646,6.972860 23.945150,6.935097 24.326492,6.964162 
	C25.467199,6.911401 26.226564,6.829575 27.432596,6.835854 
	C29.421869,6.952487 30.964476,6.981014 32.703552,7.201849 
	C33.280716,8.004011 33.661411,8.613865 34.044632,9.633236 
	C34.058289,11.705667 34.069424,13.368581 34.049721,15.336042 
	C33.995853,16.047699 33.972832,16.454809 33.612469,16.927570 
	C32.822617,17.063890 32.370110,17.134556 31.715214,17.106983 
	C31.512829,17.008743 31.070303,16.927433 30.865341,16.601627 
	C29.117876,16.235521 27.575371,16.195223 25.598743,16.100750 
	C23.142115,15.959197 21.119608,15.871819 19.036232,15.494293 
	C18.378925,14.790850 17.782490,14.377554 17.186052,13.964259 
z"/>
<path fill="#92AE47" opacity="1.000000" stroke="none" 
	d="
M6.164156,44.973164 
	C6.728136,43.528950 7.292116,42.084740 8.381821,40.318882 
	C12.554230,40.341545 12.202442,37.277740 13.236363,35.132328 
	C13.471599,35.070107 13.949652,34.980549 14.242545,34.971085 
	C15.009933,34.671749 15.484427,34.381878 16.009342,33.945473 
	C16.059763,33.798939 16.153324,33.503468 16.351437,33.413872 
	C16.549547,33.324276 16.984007,33.305553 17.236450,33.504387 
	C18.548716,33.811039 19.608541,33.918858 20.682247,34.381859 
	C20.796587,35.199112 20.897045,35.661182 20.963100,36.356300 
	C20.928699,36.589352 20.835423,37.051178 20.561602,37.163948 
	C19.892008,38.402435 19.496235,39.528152 18.782928,40.745537 
	C18.647705,41.562847 18.830017,42.288486 18.996016,43.281109 
	C18.937590,43.721367 18.895479,43.894646 18.584862,44.292953 
	C14.930830,47.944077 10.996874,47.171661 7.010096,45.994865 
	C7.010096,45.994865 6.999693,46.000237 6.933512,45.775475 
	C6.688794,45.290199 6.454403,45.097683 6.164156,44.973164 
z"/>
<path fill="#FEB98C" opacity="1.000000" stroke="none" 
	d="
M24.970638,47.749630 
	C23.940912,47.801075 22.911184,47.852524 21.487682,47.529625 
	C21.024410,45.385590 20.954916,43.615898 20.925343,41.502357 
	C21.033911,40.467949 21.102558,39.777386 21.393875,38.970612 
	C22.064491,38.639660 22.512440,38.424919 23.175461,38.452248 
	C23.822351,38.774548 24.254171,38.854782 24.771799,39.246830 
	C25.925903,40.932945 26.994200,42.307247 28.093239,43.680946 
	C28.123980,43.680347 28.172132,43.718594 28.082867,44.051952 
	C27.705486,45.256985 27.417374,46.128662 27.085625,47.208595 
	C27.041988,47.416855 27.013056,47.841431 27.013056,47.841431 
	C26.847822,47.883766 26.682589,47.926102 26.175098,47.748863 
	C25.545439,47.602734 25.258038,47.676182 24.970638,47.749630 
z"/>
<path fill="#FBFBFB" opacity="1.000000" stroke="none" 
	d="
M42.948048,34.989239 
	C43.125389,37.167606 43.302734,39.345974 43.471905,41.423973 
	C41.137352,41.962234 39.481041,42.344120 37.176720,42.765640 
	C35.979580,42.521198 35.430450,42.237114 35.048424,41.640892 
	C36.427326,39.550850 37.639130,37.772945 38.937347,35.665619 
	C39.653534,34.188477 40.283298,33.040752 41.183517,31.929689 
	C41.634846,31.986082 41.815723,32.005810 41.995628,32.238678 
	C41.994656,32.451817 41.988831,32.878059 41.789307,33.042267 
	C42.042542,33.800728 42.495293,34.394985 42.948048,34.989239 
z"/>
<path fill="#F9F9F9" opacity="1.000000" stroke="none" 
	d="
M39.031906,14.981305 
	C40.307610,15.703205 41.583313,16.425104 42.501076,17.518841 
	C42.101776,18.602764 42.060410,19.314852 42.278259,20.042801 
	C42.707836,20.027794 42.878193,19.996922 43.048553,19.966049 
	C43.048553,19.966049 42.996265,19.993887 42.978207,20.306896 
	C43.681225,21.392590 44.402306,22.165270 45.123383,22.937950 
	C45.558838,23.297791 45.994293,23.657631 46.750092,24.312983 
	C47.206375,24.864840 47.418713,25.007559 47.707447,25.036655 
	C47.707447,25.036655 47.788891,25.482849 47.383919,25.664242 
	C45.983833,25.907562 44.988712,25.969492 43.962662,25.703312 
	C43.292473,24.549038 42.653214,23.722874 41.913853,22.729769 
	C41.489044,22.637045 41.164330,22.711266 40.622181,22.619921 
	C39.730652,21.572460 39.056564,20.690563 38.346588,19.683416 
	C38.310703,19.558167 38.236877,19.312424 38.236275,18.995823 
	C38.254070,18.468956 38.272465,18.258690 38.532959,18.023846 
	C38.333130,17.593775 37.891197,17.188288 37.395302,16.774342 
	C37.341331,16.765886 37.241615,16.810545 37.287415,16.519709 
	C37.402088,15.843288 37.470963,15.457705 37.625874,15.194530 
	C37.711914,15.316938 37.991333,15.209833 38.253033,15.159785 
	C38.687122,15.066927 38.859516,15.024117 39.031906,14.981305 
z"/>
<path fill="#6F8933" opacity="1.000000" stroke="none" 
	d="
M7.023607,46.371758 
	C10.996874,47.171661 14.930830,47.944077 18.627254,44.602242 
	C18.975224,45.101547 19.012300,45.516602 19.010303,46.269180 
	C18.663496,47.681042 18.355762,48.755386 18.048029,49.829727 
	C13.978437,50.229645 9.981477,50.369999 7.023607,46.371758 
z"/>
<path fill="#FDFDFD" opacity="1.000000" stroke="none" 
	d="
M12.823486,16.974865 
	C13.614138,16.647562 14.404789,16.320261 15.779846,16.129379 
	C16.599113,16.558462 16.833975,16.851124 17.035812,17.515476 
	C17.002224,18.384180 17.001665,18.881191 16.890701,19.535271 
	C16.719889,20.059078 16.659479,20.425819 16.371284,20.919334 
	C15.219062,21.995668 14.294627,22.945230 13.023156,23.767567 
	C11.720619,23.409624 10.765119,23.178904 9.809617,22.948183 
	C10.328489,22.040014 10.847362,21.131845 12.008740,20.116167 
	C12.708661,18.997393 12.766073,17.986130 12.823486,16.974865 
z"/>
<path fill="#B4B4B6" opacity="1.000000" stroke="none" 
	d="
M37.991333,15.209833 
	C37.991333,15.209833 37.711914,15.316938 37.169632,15.206542 
	C36.022427,15.048587 35.417503,15.001028 34.902359,14.711540 
	C35.034023,14.302753 35.075909,14.135896 35.392273,13.955767 
	C35.451447,12.963818 35.236141,11.985140 34.937744,10.716082 
	C34.811768,10.026562 34.768879,9.627421 35.076218,9.167135 
	C35.966137,8.707421 36.505829,8.308853 37.045525,7.910285 
	C37.644825,9.685828 38.244125,11.461371 38.616035,13.780376 
	C38.164093,14.577836 38.031654,14.873168 37.991333,15.209833 
z"/>
<path fill="#FCFCFC" opacity="1.000000" stroke="none" 
	d="
M34.881321,41.953030 
	C35.430450,42.237114 35.979580,42.521198 36.814671,42.924347 
	C36.018963,43.676300 34.937294,44.309196 33.133423,44.996368 
	C31.937384,45.115746 31.463547,45.180840 30.764240,45.103180 
	C30.438213,44.637329 30.337656,44.314240 30.580233,43.829826 
	C31.131390,43.522820 31.339409,43.377129 31.797966,43.196056 
	C32.992775,42.758121 33.937050,42.355576 34.881321,41.953030 
z"/>
<path fill="#93AF49" opacity="1.000000" stroke="none" 
	d="
M13.001128,35.194550 
	C12.202442,37.277740 12.554230,40.341545 8.537820,39.998444 
	C8.441741,39.239063 8.715387,38.478470 9.326544,37.333782 
	C10.366007,36.194885 11.067960,35.440086 12.076908,34.814770 
	C12.589643,35.027683 12.795385,35.111118 13.001128,35.194550 
z"/>
<path fill="#D2D2D2" opacity="1.000000" stroke="none" 
	d="
M9.592327,22.940258 
	C10.765119,23.178904 11.720619,23.409624 12.952396,24.089825 
	C13.142177,24.962677 13.055682,25.386049 12.642297,25.907516 
	C11.836914,26.699156 11.358421,27.392698 10.594345,27.880505 
	C9.864485,26.151525 9.420207,24.628279 8.975929,23.105034 
	C8.975930,23.105034 9.375036,22.932331 9.592327,22.940258 
z"/>
<path fill="#767574" opacity="1.000000" stroke="none" 
	d="
M26.985931,6.747748 
	C26.226564,6.829575 25.467199,6.911401 24.335075,6.527737 
	C23.964808,5.185553 23.967297,4.308860 23.969784,3.432167 
	C25.709864,3.638386 27.449945,3.844606 29.174500,4.400468 
	C28.771643,5.158189 28.384308,5.566268 27.796196,6.058558 
	C27.334249,6.286001 27.131086,6.487660 26.985931,6.747748 
z"/>
<path fill="#FDFDFD" opacity="1.000000" stroke="none" 
	d="
M11.769915,34.685287 
	C11.067960,35.440086 10.366007,36.194885 9.332655,37.018425 
	C8.547612,36.985550 8.093968,36.883926 7.653879,36.280060 
	C8.133344,34.874298 8.599254,33.970779 9.395330,33.021729 
	C10.170887,32.966854 10.616278,32.957508 11.272005,33.091148 
	C11.631207,33.315315 11.780071,33.396492 11.907366,33.542328 
	C11.885798,33.606983 11.995228,33.688274 11.907099,33.932072 
	C11.802617,34.345676 11.786265,34.515484 11.769915,34.685287 
z"/>
<path fill="#D1D1D0" opacity="1.000000" stroke="none" 
	d="
M36.873966,7.628767 
	C36.505829,8.308853 35.966137,8.707421 34.905922,9.148108 
	C34.385403,9.190228 34.042107,9.223720 34.042107,9.223720 
	C33.661411,8.613865 33.280716,8.004011 32.669922,6.989730 
	C32.439819,6.585303 32.249584,6.201124 32.244267,6.168849 
	C32.238949,6.136575 32.174797,6.123769 32.428440,6.083086 
	C32.810013,5.746680 32.937943,5.450957 33.051231,5.170701 
	C33.036587,5.186167 33.046013,5.229231 33.046013,5.229230 
	C34.264812,5.935236 35.483612,6.641243 36.873966,7.628767 
z"/>
<path fill="#FCFCFC" opacity="1.000000" stroke="none" 
	d="
M8.593751,23.179117 
	C9.420207,24.628279 9.864485,26.151525 10.584397,28.110521 
	C10.860033,28.546272 10.733274,28.989628 10.446388,28.998871 
	C9.776280,29.004578 9.393059,29.001043 8.865528,28.708942 
	C8.013994,27.988041 7.306767,27.555706 6.599540,27.123373 
	C7.136884,25.833315 7.674228,24.543259 8.593751,23.179117 
z"/>
<path fill="#BEB8B4" opacity="1.000000" stroke="none" 
	d="
M30.237097,43.991146 
	C30.337656,44.314240 30.438213,44.637329 30.771519,45.424858 
	C31.025949,46.321407 31.047638,46.753521 31.069326,47.185635 
	C30.574154,47.467014 30.078983,47.748398 29.128441,47.728577 
	C28.158468,47.285030 27.643864,47.142681 27.129259,47.000336 
	C27.417374,46.128662 27.705486,45.256985 28.419445,44.133354 
	C29.309225,43.917984 29.773161,43.954563 30.237097,43.991146 
z"/>
<path fill="#F7F7F7" opacity="1.000000" stroke="none" 
	d="
M41.988831,32.878059 
	C41.988831,32.878059 41.994656,32.451817 42.342068,32.170101 
	C43.123260,30.915024 43.557041,29.941664 44.278763,28.985519 
	C44.949139,29.022480 45.331577,29.042225 45.714020,29.061968 
	C45.797165,30.304367 45.880310,31.546766 45.308025,32.967716 
	C43.764675,33.056866 42.876751,32.967464 41.988831,32.878059 
z"/>
<path fill="#CAC9CA" opacity="1.000000" stroke="none" 
	d="
M45.848110,28.725763 
	C45.331577,29.042225 44.949139,29.022480 44.279560,29.002649 
	C43.992424,29.002563 44.024395,29.008347 44.009537,28.631382 
	C44.005146,27.500565 44.015614,26.746712 44.009483,25.994869 
	C43.992882,25.996878 43.993595,26.031424 43.993595,26.031422 
	C44.988712,25.969492 45.983833,25.907562 47.350777,25.888588 
	C47.142471,26.750883 46.562336,27.570221 45.848110,28.725763 
z"/>
<path fill="#AD8F7A" opacity="1.000000" stroke="none" 
	d="
M20.885422,41.846207 
	C20.954916,43.615898 21.024410,45.385590 21.105022,47.592224 
	C20.949455,48.351669 20.782768,48.674168 20.294109,48.607010 
	C19.975510,47.463234 19.978882,46.709118 19.987629,45.587013 
	C19.991272,44.479313 19.989540,43.739590 20.013287,42.659851 
	C20.064610,42.093987 20.090450,41.868141 20.301193,41.721107 
	C20.486097,41.799915 20.885420,41.846207 20.885422,41.846207 
z"/>
<path fill="#D0CECC" opacity="1.000000" stroke="none" 
	d="
M17.068838,17.143785 
	C16.833975,16.851124 16.599113,16.558462 16.134136,16.101788 
	C16.261511,15.469007 16.619003,15.000238 17.081272,14.247864 
	C17.782490,14.377554 18.378925,14.790850 18.865622,15.709249 
	C18.889071,16.501446 19.022261,16.788540 18.634678,17.119663 
	C17.765551,17.157059 17.417194,17.150421 17.068838,17.143785 
z"/>
<path fill="#AEADAE" opacity="1.000000" stroke="none" 
	d="
M12.498833,17.102169 
	C12.766073,17.986130 12.708661,18.997393 12.302183,19.988430 
	C12.026806,19.055290 12.100492,18.142382 12.498833,17.102169 
z"/>
<path fill="#BEBEBE" opacity="1.000000" stroke="none" 
	d="
M41.789307,33.042267 
	C42.876751,32.967464 43.764675,33.056866 45.082970,33.267006 
	C45.513344,33.387745 45.318039,33.520634 45.085457,33.759567 
	C44.590252,34.275322 44.327633,34.552143 44.065014,34.828968 
	C43.882984,34.884480 43.700954,34.939991 43.233490,34.992371 
	C42.495293,34.394985 42.042542,33.800728 41.789307,33.042267 
z"/>
<path fill="#CDCDCD" opacity="1.000000" stroke="none" 
	d="
M45.074474,22.568205 
	C44.402306,22.165270 43.681225,21.392590 42.998291,20.284760 
	C43.699478,20.699228 44.362522,21.448845 45.074474,22.568205 
z"/>
<path fill="#707C5F" opacity="1.000000" stroke="none" 
	d="
M19.982254,45.954998 
	C19.978882,46.709118 19.975510,47.463234 20.009377,48.593044 
	C19.567183,49.246902 19.087746,49.525066 18.328171,49.816483 
	C18.355762,48.755386 18.663496,47.681042 19.242786,46.291512 
	C19.514343,45.976322 19.982254,45.954998 19.982254,45.954998 
z"/>
<path fill="#B8B8B8" opacity="1.000000" stroke="none" 
	d="
M9.065163,33.067257 
	C8.599254,33.970779 8.133344,34.874298 7.426337,36.226303 
	C7.185241,36.674793 7.202674,36.727951 7.219081,36.261818 
	C7.115427,35.492966 6.995365,35.190254 6.875303,34.887539 
	C6.914603,34.148312 6.953902,33.409084 7.389504,32.338062 
	C8.184628,32.105061 8.583449,32.203854 8.980431,32.494659 
	C8.978592,32.686676 9.065163,33.067257 9.065163,33.067257 
z"/>
<path fill="#BBB9BC" opacity="1.000000" stroke="none" 
	d="
M31.408855,47.117027 
	C31.047638,46.753521 31.025949,46.321407 30.996986,45.567612 
	C31.463547,45.180840 31.937384,45.115746 32.770870,45.067909 
	C32.669807,45.739586 32.209095,46.394001 31.408855,47.117027 
z"/>
<path fill="#A3A2A3" opacity="1.000000" stroke="none" 
	d="
M23.728672,3.684803 
	C23.967297,4.308860 23.964808,5.185553 23.953735,6.498672 
	C23.945150,6.935097 23.483646,6.972860 23.236490,6.643605 
	C22.625135,5.869467 22.260935,5.424585 21.896736,4.979703 
	C22.427010,4.632281 22.957283,4.284860 23.728672,3.684803 
z"/>
<path fill="#858585" opacity="1.000000" stroke="none" 
	d="
M27.996975,5.974347 
	C28.384308,5.566268 28.771643,5.158189 29.525684,4.516176 
	C30.311367,4.257078 30.730341,4.231913 31.461403,4.456373 
	C31.773491,4.705998 32.045277,5.045500 32.064449,5.316654 
	C32.114010,5.766461 32.144402,5.945115 32.174797,6.123769 
	C32.174797,6.123769 32.238949,6.136575 31.814117,6.103639 
	C30.258514,6.038585 29.127745,6.006466 27.996975,5.974347 
z"/>
<path fill="#CDCDCD" opacity="1.000000" stroke="none" 
	d="
M6.645481,27.174730 
	C7.306767,27.555706 8.013994,27.988041 8.572515,28.727177 
	C8.229301,29.055340 8.034794,29.076698 7.583485,28.860840 
	C7.140450,28.195976 6.954217,27.768328 6.767986,27.340679 
	C6.767986,27.340679 6.691422,27.226088 6.645481,27.174730 
z"/>
<path fill="#ABABAB" opacity="1.000000" stroke="none" 
	d="
M42.019043,20.026937 
	C42.060410,19.314852 42.101776,18.602764 42.449669,17.895723 
	C42.818554,18.084864 42.880909,18.268957 42.689507,18.820278 
	C42.151016,19.394901 42.012115,19.674711 42.019043,20.026937 
z"/>
<path fill="#EFEFEF" opacity="1.000000" stroke="none" 
	d="
M8.982270,32.302647 
	C8.583449,32.203854 8.184628,32.105061 7.477741,31.977753 
	C7.169675,31.949236 7.028766,31.504753 7.062476,31.007042 
	C7.111762,30.328697 7.127336,30.148066 7.279641,29.964394 
	C7.416370,29.961353 7.689814,29.968094 7.901062,30.233398 
	C8.402296,31.100016 8.692283,31.701332 8.982270,32.302647 
z"/>
<path fill="#767574" opacity="1.000000" stroke="none" 
	d="
M21.660303,5.043941 
	C22.260935,5.424585 22.625135,5.869467 23.006441,6.617531 
	C22.854353,6.934049 22.685160,6.947385 22.126318,6.711989 
	C21.450165,6.275068 21.163658,6.086880 20.877151,5.898692 
	C20.954350,5.562540 21.136589,5.299035 21.660303,5.043941 
z"/>
<path fill="#F4F4F4" opacity="1.000000" stroke="none" 
	d="
M7.689814,29.968094 
	C7.689814,29.968094 7.416370,29.961353 7.030584,29.974022 
	C6.644798,29.986689 6.150371,29.973984 6.150371,29.973984 
	C6.136810,29.216846 6.123250,28.459709 6.438838,27.521626 
	C6.954217,27.768328 7.140450,28.195976 7.581520,29.084063 
	C7.836359,29.544500 7.689814,29.968094 7.689814,29.968094 
z"/>
<path fill="#D1D1D0" opacity="1.000000" stroke="none" 
	d="
M27.085625,47.208595 
	C27.643864,47.142681 28.158468,47.285030 28.820498,47.658104 
	C28.530727,47.923935 28.093531,47.959034 27.334696,47.917778 
	C27.013056,47.841431 27.041988,47.416855 27.085625,47.208595 
z"/>
<path fill="#ABA9A8" opacity="1.000000" stroke="none" 
	d="
M20.637039,5.996279 
	C21.163658,6.086880 21.450165,6.275068 21.873592,6.681319 
	C21.555416,6.960815 21.100319,7.022249 20.303417,7.037532 
	C20.106714,6.692210 20.251820,6.393038 20.637039,5.996279 
z"/>
<path fill="#B8B8B8" opacity="1.000000" stroke="none" 
	d="
M7.200728,36.282925 
	C6.893713,36.199165 6.621457,35.628166 6.612252,34.972351 
	C6.995365,35.190254 7.115427,35.492966 7.200728,36.282925 
z"/>
<path fill="#CAC9CA" opacity="1.000000" stroke="none" 
	d="
M47.815224,24.769600 
	C47.418713,25.007559 47.206375,24.864840 47.019291,24.416954 
	C47.286430,24.317789 47.604713,24.410166 47.815224,24.769600 
z"/>
<path fill="#C99777" opacity="1.000000" stroke="none" 
	d="
M25.227009,47.846313 
	C25.258038,47.676182 25.545439,47.602734 25.927311,47.685112 
	C25.842316,47.874954 25.662849,47.908974 25.227009,47.846313 
z"/>
<path fill="#858585" opacity="1.000000" stroke="none" 
	d="
M31.671949,4.513719 
	C32.049465,4.430820 32.528519,4.540200 33.026794,4.939406 
	C33.046013,5.229231 33.036587,5.186167 32.796764,5.133040 
	C32.386387,5.068442 32.215832,5.056971 32.045277,5.045500 
	C32.045277,5.045500 31.773491,4.705998 31.671949,4.513719 
z"/>
<path fill="#6F8933" opacity="1.000000" stroke="none" 
	d="
M6.163919,45.229385 
	C6.454403,45.097683 6.688794,45.290199 6.935966,45.770054 
	C6.724296,45.821461 6.443989,45.653534 6.163919,45.229385 
z"/>
<path fill="#D3D3D3" opacity="1.000000" stroke="none" 
	d="
M6.110969,30.246189 
	C6.150371,29.973984 6.644798,29.986689 6.893854,29.977062 
	C7.127336,30.148066 7.111762,30.328697 7.038627,30.775122 
	C6.677900,30.866741 6.374733,30.692568 6.110969,30.246189 
z"/>
<path fill="#ABA9A8" opacity="1.000000" stroke="none" 
	d="
M19.713331,7.011666 
	C20.045046,7.333064 19.912300,7.621611 19.378778,7.945758 
	C19.248617,7.730111 19.338905,7.395931 19.713331,7.011666 
z"/>
<path fill="#CDCDCD" opacity="1.000000" stroke="none" 
	d="
M42.278259,20.042801 
	C42.012115,19.674711 42.151016,19.394901 42.665237,19.110821 
	C42.894733,19.034140 43.058186,19.485809 43.053368,19.725929 
	C42.878193,19.996922 42.707836,20.027794 42.278259,20.042801 
z"/>
<path fill="#B8B8B8" opacity="1.000000" stroke="none" 
	d="
M38.253033,15.159785 
	C38.031654,14.873168 38.164093,14.577836 38.585106,14.178281 
	C38.868385,14.178923 38.955200,14.325120 39.036957,14.726311 
	C38.859516,15.024117 38.687122,15.066927 38.253033,15.159785 
z"/>
<path fill="#F7F7F7" opacity="1.000000" stroke="none" 
	d="
M44.404610,34.777908 
	C44.327633,34.552143 44.590252,34.275322 44.970505,33.732407 
	C44.973492,33.886494 44.858849,34.306671 44.404610,34.777908 
z"/>
<path fill="#9F5113" opacity="1.000000" stroke="none" 
	d="
M31.070303,16.927433 
	C31.070303,16.927433 31.512829,17.008743 31.721527,17.302227 
	C31.930223,17.595713 31.931984,17.987535 31.620167,18.030891 
	C29.883390,18.364712 28.458435,18.655178 27.044075,18.627316 
	C27.079861,17.883604 27.105049,17.458218 27.524435,17.016106 
	C28.969189,16.975395 30.019747,16.951414 31.070303,16.927433 
z"/>
<path fill="#9A7964" opacity="1.000000" stroke="none" 
	d="
M31.931984,17.987535 
	C31.931984,17.987535 31.930223,17.595713 31.923912,17.400467 
	C32.370110,17.134556 32.822617,17.063890 33.618332,16.978821 
	C33.961540,16.964418 33.988075,17.062706 34.050308,17.331200 
	C34.406853,18.029785 34.701160,18.459879 35.020592,18.930586 
	C35.045712,18.971201 35.110004,19.041830 35.077057,19.273188 
	C35.044113,19.504545 34.992687,19.970566 34.806293,20.029087 
	C34.372833,20.197275 34.195671,20.376118 33.745480,20.674143 
	C32.968777,20.879093 32.535011,21.034031 32.080433,20.788761 
	C32.017078,19.588213 31.974531,18.787874 31.931984,17.987535 
z"/>
<path fill="#634330" opacity="1.000000" stroke="none" 
	d="
M19.155451,17.075632 
	C19.022261,16.788540 18.889071,16.501446 18.926491,15.999397 
	C21.119608,15.871819 23.142115,15.959197 25.601707,16.253967 
	C26.038795,16.461359 26.051823,16.767570 25.672312,16.839195 
	C24.523865,16.965759 23.754927,17.020697 22.659216,17.052750 
	C21.273445,17.045120 20.214447,17.060375 19.155451,17.075632 
z"/>
<path fill="#A87C60" opacity="1.000000" stroke="none" 
	d="
M34.044632,9.633236 
	C34.042107,9.223720 34.385403,9.190228 34.555695,9.209253 
	C34.768879,9.627421 34.811768,10.026562 34.967716,11.086638 
	C35.093117,12.488062 35.105453,13.228549 35.117790,13.969037 
	C35.075909,14.135896 35.034023,14.302753 34.720383,14.737387 
	C34.448624,15.005162 34.080563,15.031495 34.080563,15.031495 
	C34.069424,13.368581 34.058289,11.705667 34.044632,9.633236 
z"/>
<path fill="#AAA6A4" opacity="1.000000" stroke="none" 
	d="
M34.049721,15.336042 
	C34.080563,15.031495 34.448624,15.005162 34.630600,14.979316 
	C35.417503,15.001028 36.022427,15.048587 37.083591,15.084133 
	C37.470963,15.457705 37.402088,15.843288 36.902008,16.596279 
	C35.956375,17.047361 35.441952,17.131035 34.694740,17.163876 
	C34.461952,17.113043 33.988075,17.062706 33.988075,17.062706 
	C33.988075,17.062706 33.961540,16.964418 33.955673,16.913168 
	C33.972832,16.454809 33.995853,16.047699 34.049721,15.336042 
z"/>
<path fill="#987C69" opacity="1.000000" stroke="none" 
	d="
M27.796196,6.058558 
	C29.127745,6.006466 30.258514,6.038585 31.819435,6.135914 
	C32.249584,6.201124 32.439819,6.585303 32.473450,6.797422 
	C30.964476,6.981014 29.421869,6.952487 27.432596,6.835854 
	C27.131086,6.487660 27.334249,6.286001 27.796196,6.058558 
z"/>
<path fill="#483D36" opacity="1.000000" stroke="none" 
	d="
M26.051823,16.767570 
	C26.051823,16.767570 26.038795,16.461359 26.035831,16.308142 
	C27.575371,16.195223 29.117876,16.235521 30.865341,16.601627 
	C30.019747,16.951414 28.969189,16.975395 27.254536,16.948166 
	C26.410902,16.853828 26.231363,16.810699 26.051823,16.767570 
z"/>
<path fill="#54B6FE" opacity="1.000000" stroke="none" 
	d="
M11.995228,33.688274 
	C11.995228,33.688274 11.885798,33.606983 11.932299,33.132301 
	C12.030628,32.119469 12.082457,31.581320 12.443594,31.004375 
	C13.501288,30.309872 14.249675,29.654161 15.321385,28.991268 
	C16.075783,28.973429 16.506855,28.962776 17.255625,28.969801 
	C17.995691,28.995415 18.418060,29.003351 18.935200,29.298197 
	C19.360422,30.079885 19.690876,30.574665 20.003941,31.435581 
	C18.985704,32.302998 17.984856,32.804276 16.984007,33.305553 
	C16.984007,33.305553 16.549547,33.324276 16.135714,33.366245 
	C15.406429,33.486916 15.208965,33.683849 14.870663,34.008568 
	C14.441730,34.047707 14.271619,34.077293 13.746975,34.056267 
	C12.926705,33.899853 12.460967,33.794064 11.995228,33.688274 
z"/>
<path fill="#728A32" opacity="1.000000" stroke="none" 
	d="
M20.925343,41.502357 
	C20.885420,41.846207 20.486097,41.799915 20.178333,41.518436 
	C19.642776,41.004436 19.386074,40.810074 19.100462,40.653866 
	C19.496235,39.528152 19.892008,38.402435 20.623875,37.502331 
	C21.030380,38.180901 21.100792,38.633865 21.171206,39.086826 
	C21.102558,39.777386 21.033911,40.467949 20.925343,41.502357 
z"/>
<path fill="#FEFEFD" opacity="1.000000" stroke="none" 
	d="
M20.997503,36.123253 
	C20.897045,35.661182 20.796587,35.199112 20.806782,34.362381 
	C20.917437,33.987724 21.135769,33.866180 21.423332,33.925079 
	C22.296045,33.994625 22.881199,34.005272 23.592342,34.286392 
	C23.803112,34.736820 23.887886,34.916771 23.919792,35.273735 
	C23.866920,35.450756 23.850067,35.819859 23.753300,35.925735 
	C23.555758,36.199146 23.414873,36.319786 22.976007,36.265697 
	C22.144590,36.132996 21.571047,36.128124 20.997503,36.123253 
z"/>
<path fill="#8D9F73" opacity="1.000000" stroke="none" 
	d="
M18.782928,40.745537 
	C19.386074,40.810074 19.642776,41.004436 19.993431,41.439629 
	C20.090450,41.868141 20.064610,42.093987 19.769493,42.659294 
	C19.500216,42.998756 19.012329,43.014126 19.012329,43.014126 
	C18.830017,42.288486 18.647705,41.562847 18.782928,40.745537 
z"/>
<path fill="#6C9059" opacity="1.000000" stroke="none" 
	d="
M17.236450,33.504387 
	C17.984856,32.804276 18.985704,32.302998 20.035025,31.376537 
	C20.083498,30.951359 20.143990,30.833536 20.328108,30.925465 
	C20.512226,31.017395 20.903130,31.150009 20.927853,31.491510 
	C21.013639,32.510735 21.074705,33.188457 21.135769,33.866180 
	C21.135769,33.866180 20.917437,33.987724 20.792900,34.007202 
	C19.608541,33.918858 18.548716,33.811039 17.236450,33.504387 
z"/>
<path fill="#C08B63" opacity="1.000000" stroke="none" 
	d="
M20.963100,36.356300 
	C21.571047,36.128124 22.144590,36.132996 22.887110,36.717865 
	C23.024187,37.601971 22.992289,37.906071 22.960388,38.210175 
	C22.512440,38.424919 22.064491,38.639660 21.393875,38.970612 
	C21.100792,38.633865 21.030380,38.180901 20.897696,37.389557 
	C20.835423,37.051178 20.928699,36.589352 20.963100,36.356300 
z"/>
<path fill="#B1BCA7" opacity="1.000000" stroke="none" 
	d="
M18.996016,43.281109 
	C19.012329,43.014126 19.500216,42.998756 19.744011,42.999313 
	C19.989540,43.739590 19.991272,44.479313 19.987629,45.587013 
	C19.982254,45.954998 19.514343,45.976322 19.281860,45.953991 
	C19.012300,45.516602 18.975224,45.101547 18.895758,44.377205 
	C18.895479,43.894646 18.937590,43.721367 18.996016,43.281109 
z"/>
<path fill="#93AF49" opacity="1.000000" stroke="none" 
	d="
M14.101507,34.106884 
	C14.271619,34.077293 14.441730,34.047707 15.077497,34.031971 
	C15.543154,34.045826 15.958923,34.092007 15.958923,34.092007 
	C15.484427,34.381878 15.009933,34.671749 14.276707,34.752029 
	C14.017975,34.542435 14.101507,34.106884 14.101507,34.106884 
z"/>
<path fill="#539ECA" opacity="1.000000" stroke="none" 
	d="
M13.746975,34.056267 
	C14.101507,34.106884 14.017975,34.542435 13.983813,34.761490 
	C13.949652,34.980549 13.471599,35.070107 13.236363,35.132328 
	C12.795385,35.111118 12.589643,35.027683 12.076908,34.814770 
	C11.786265,34.515484 11.802617,34.345676 11.907099,33.932072 
	C12.460967,33.794064 12.926705,33.899853 13.746975,34.056267 
z"/>
<path fill="#6C9059" opacity="1.000000" stroke="none" 
	d="
M16.009342,33.945473 
	C15.958923,34.092007 15.543154,34.045826 15.336319,34.022423 
	C15.208965,33.683849 15.406429,33.486916 15.937601,33.455841 
	C16.153324,33.503468 16.059763,33.798939 16.009342,33.945473 
z"/>
<path fill="#6F8335" opacity="1.000000" stroke="none" 
	d="
M28.062496,43.681549 
	C26.994200,42.307247 25.925903,40.932945 24.874117,39.212463 
	C25.254671,38.851562 25.618715,38.836845 26.291927,38.789322 
	C27.093838,38.125908 27.586580,37.495296 28.377876,36.959846 
	C29.444574,37.323666 30.212721,37.592319 30.815083,38.146103 
	C27.684116,40.318680 29.700014,41.557209 30.827980,42.962803 
	C29.640676,43.271229 28.851585,43.476387 28.062496,43.681549 
z"/>
<path fill="#BA9F8C" opacity="1.000000" stroke="none" 
	d="
M25.982759,38.822124 
	C25.618715,38.836845 25.254671,38.851562 24.788309,38.900650 
	C24.254171,38.854782 23.822351,38.774548 23.175461,38.452244 
	C22.992289,37.906071 23.024187,37.601971 23.144983,36.845695 
	C23.414873,36.319786 23.555758,36.199146 24.017029,36.070068 
	C24.894428,36.399052 25.411329,36.689571 25.947044,37.287643 
	C25.971493,38.004173 25.977125,38.413147 25.982759,38.822124 
z"/>
<path fill="#D3D3D3" opacity="1.000000" stroke="none" 
	d="
M28.093239,43.680946 
	C28.851585,43.476387 29.640676,43.271229 30.888184,43.073067 
	C31.346600,43.080063 31.547430,43.231441 31.547430,43.231441 
	C31.339409,43.377129 31.131390,43.522820 30.580233,43.829826 
	C29.773161,43.954563 29.309225,43.917984 28.508711,43.799995 
	C28.172132,43.718594 28.123980,43.680347 28.093239,43.680946 
z"/>
<path fill="#90AA4A" opacity="1.000000" stroke="none" 
	d="
M31.797966,43.196056 
	C31.547430,43.231441 31.346600,43.080063 31.286398,42.969803 
	C29.700014,41.557209 27.684116,40.318680 30.821106,37.801559 
	C31.397366,36.116402 31.801819,35.060921 32.572571,34.007919 
	C34.909557,34.671947 36.880245,35.333492 38.850933,35.995037 
	C37.639130,37.772945 36.427326,39.550850 35.048424,41.640892 
	C33.937050,42.355576 32.992775,42.758121 31.797966,43.196056 
z"/>
<path fill="#53B3FC" opacity="1.000000" stroke="none" 
	d="
M38.937347,35.665619 
	C36.880245,35.333492 34.909557,34.671947 32.423836,33.737522 
	C31.502615,33.002670 31.096428,32.540703 30.752905,31.767757 
	C30.818089,31.245314 30.820610,31.033846 30.899376,30.548977 
	C30.939592,30.088345 30.903563,29.901112 30.934315,29.552916 
	C31.001097,29.391951 31.040316,29.045626 31.309114,28.953621 
	C31.984650,28.471354 32.391388,28.081091 33.037750,28.008226 
	C35.805847,28.214727 38.334312,28.103828 40.907234,28.312271 
	C40.976486,29.059938 41.001282,29.488262 41.017365,30.246819 
	C40.976788,31.015707 40.944927,31.454365 40.913063,31.893024 
	C40.283298,33.040752 39.653534,34.188477 38.937347,35.665619 
z"/>
<path fill="#D4D4D4" opacity="1.000000" stroke="none" 
	d="
M41.183517,31.929689 
	C40.944927,31.454365 40.976788,31.015707 41.267059,30.116346 
	C41.811691,29.409084 42.097916,29.162523 42.657349,28.930866 
	C43.295170,28.966627 43.659782,28.987488 44.024395,29.008347 
	C44.024395,29.008347 43.992424,29.002563 43.991623,28.985435 
	C43.557041,29.941664 43.123260,30.915024 42.343040,31.956963 
	C41.815723,32.005810 41.634846,31.986082 41.183517,31.929689 
z"/>
<path fill="#63CFFB" opacity="1.000000" stroke="none" 
	d="
M38.382477,19.808666 
	C39.056564,20.690563 39.730652,21.572460 40.650013,22.911087 
	C40.904846,23.561920 40.914406,23.756027 40.952301,24.221752 
	C40.953632,24.672419 40.926632,24.851465 40.534439,25.066132 
	C37.790424,25.711687 35.411602,26.321621 33.003635,26.663437 
	C32.976753,26.036324 32.979015,25.677332 33.326130,25.174374 
	C34.541428,24.037477 35.411865,23.044542 36.461212,21.899906 
	C36.848804,21.492508 36.942833,21.199947 36.952713,20.657213 
	C36.983234,20.443907 37.034100,20.015963 37.213810,19.989355 
	C37.393520,19.962748 37.733047,19.833378 37.896431,19.854193 
	C38.059818,19.875008 38.382477,19.808664 38.382477,19.808666 
z"/>
<path fill="#B88E71" opacity="1.000000" stroke="none" 
	d="
M34.927528,17.214708 
	C35.441952,17.131035 35.956375,17.047361 36.856209,16.887115 
	C37.241615,16.810545 37.341331,16.765886 37.407455,17.052187 
	C37.746006,17.575134 38.018436,17.811781 38.290863,18.048426 
	C38.272465,18.258690 38.254070,18.468956 38.083939,19.011232 
	C37.710495,19.444109 37.644108,19.607487 37.733047,19.833378 
	C37.733047,19.833378 37.393520,19.962748 36.952690,19.979759 
	C36.337986,19.987423 36.164112,19.978077 35.891113,19.772457 
	C35.613487,19.335735 35.386162,19.157616 35.110004,19.041830 
	C35.110004,19.041830 35.045712,18.971201 35.007969,18.651859 
	C34.955994,17.959913 34.941761,17.587311 34.927528,17.214708 
z"/>
<path fill="#D4D4D4" opacity="1.000000" stroke="none" 
	d="
M42.013950,22.896711 
	C42.653214,23.722874 43.292473,24.549038 43.962662,25.703312 
	C43.993595,26.031424 43.992882,25.996878 43.709972,25.995472 
	C43.029682,26.022980 42.632305,26.051895 42.113762,25.809628 
	C41.944202,25.150171 41.895802,24.761900 41.890434,24.004555 
	C41.960297,23.389227 41.987122,23.142969 42.013950,22.896711 
z"/>
<path fill="#D2D2D2" opacity="1.000000" stroke="none" 
	d="
M38.532959,18.023846 
	C38.018436,17.811781 37.746006,17.575134 37.461426,17.060642 
	C37.891197,17.188288 38.333130,17.593775 38.532959,18.023846 
z"/>
<path fill="#DEDEDE" opacity="1.000000" stroke="none" 
	d="
M41.913853,22.729769 
	C41.987122,23.142969 41.960297,23.389227 41.654461,23.909988 
	C41.224953,24.106373 41.074459,24.028252 40.923969,23.950132 
	C40.914406,23.756027 40.904846,23.561920 40.867451,23.076649 
	C41.164330,22.711266 41.489044,22.637045 41.913853,22.729769 
z"/>
<path fill="#D2D2D2" opacity="1.000000" stroke="none" 
	d="
M37.896431,19.854193 
	C37.644108,19.607487 37.710495,19.444109 38.084541,19.327835 
	C38.236877,19.312424 38.310703,19.558167 38.346588,19.683414 
	C38.382477,19.808664 38.059818,19.875008 37.896431,19.854193 
z"/>
<path fill="#6EE6FE" opacity="1.000000" stroke="none" 
	d="
M16.937927,28.952122 
	C16.506855,28.962776 16.075783,28.973429 14.942633,28.982883 
	C13.736198,28.933430 13.231841,28.885176 12.782475,28.463032 
	C12.881372,27.329233 12.925279,26.569326 12.969186,25.809420 
	C13.055682,25.386049 13.142177,24.962677 13.299431,24.217049 
	C14.294627,22.945230 15.219062,21.995668 16.673866,21.233097 
	C17.449276,21.566437 17.694317,21.712784 18.027880,22.137772 
	C18.406391,22.666988 18.696381,22.917564 18.973078,23.518156 
	C19.019438,24.566706 19.079092,25.265242 19.051405,26.202452 
	C18.909269,26.601456 18.854475,26.761787 18.500059,26.992115 
	C17.779600,27.692114 17.358765,28.322119 16.937927,28.952122 
z"/>
<path fill="#A25213" opacity="1.000000" stroke="none" 
	d="
M18.634678,17.119663 
	C20.214447,17.060375 21.273445,17.045120 22.681072,17.314034 
	C23.047338,17.772600 23.064974,17.947001 23.081181,18.346516 
	C23.079750,18.571632 23.080971,19.023949 23.079742,19.398287 
	C23.158154,20.264509 23.237789,20.756392 23.255190,21.439220 
	C23.192953,21.630167 23.046209,22.004065 22.770622,21.956367 
	C22.316292,21.855583 22.137552,21.802494 21.903992,21.433430 
	C20.949902,20.714777 20.050634,20.312101 18.986851,19.615307 
	C18.215260,19.340195 17.608181,19.359200 17.001104,19.378204 
	C17.001665,18.881191 17.002224,18.384180 17.035812,17.515476 
	C17.417194,17.150421 17.765551,17.157059 18.634678,17.119663 
z"/>
<path fill="#F78E23" opacity="1.000000" stroke="none" 
	d="
M16.890701,19.535271 
	C17.608181,19.359200 18.215260,19.340195 18.913885,19.918379 
	C18.650076,20.963425 18.294718,21.411278 17.939360,21.859133 
	C17.694317,21.712784 17.449276,21.566437 16.901653,21.106325 
	C16.659479,20.425819 16.719889,20.059078 16.890701,19.535271 
z"/>
<path fill="#C5C5C6" opacity="1.000000" stroke="none" 
	d="
M35.392273,13.955767 
	C35.105453,13.228549 35.093117,12.488062 35.050804,11.377018 
	C35.236141,11.985140 35.451447,12.963818 35.392273,13.955767 
z"/>
<path fill="#A3A5A6" opacity="1.000000" stroke="none" 
	d="
M12.642296,25.907516 
	C12.925279,26.569326 12.881372,27.329233 12.593756,28.492218 
	C12.350046,28.895298 11.974551,28.979090 11.768045,28.978296 
	C11.561540,28.977503 11.148530,28.975378 11.044593,28.975357 
	C10.940656,28.975338 10.733274,28.989628 10.733274,28.989628 
	C10.733274,28.989628 10.860033,28.546272 10.869981,28.316257 
	C11.358421,27.392698 11.836914,26.699156 12.642296,25.907516 
z"/>
<path fill="#D3D3D3" opacity="1.000000" stroke="none" 
	d="
M7.901062,30.233398 
	C7.689814,29.968094 7.836359,29.544500 7.838323,29.321278 
	C8.034794,29.076698 8.229301,29.055340 8.716822,29.015743 
	C9.393059,29.001043 9.776280,29.004578 10.446388,28.998871 
	C10.733274,28.989628 10.940656,28.975338 10.977981,29.369261 
	C11.030759,30.824842 11.046213,31.886503 11.061666,32.948162 
	C10.616278,32.957508 10.170887,32.966854 9.395330,33.021729 
	C9.065163,33.067257 8.978592,32.686676 8.980431,32.494659 
	C8.692283,31.701332 8.402296,31.100016 7.901062,30.233398 
z"/>
<path fill="#959798" opacity="1.000000" stroke="none" 
	d="
M11.272005,33.091148 
	C11.046213,31.886503 11.030759,30.824842 11.081918,29.369282 
	C11.148530,28.975378 11.561540,28.977503 11.784660,29.323193 
	C12.049950,30.126978 12.092117,30.585073 12.134285,31.043171 
	C12.082457,31.581320 12.030628,32.119469 11.953867,33.067642 
	C11.780071,33.396492 11.631207,33.315315 11.272005,33.091148 
z"/>
<path fill="#987C69" opacity="1.000000" stroke="none" 
	d="
M32.064449,5.316654 
	C32.215832,5.056971 32.386387,5.068442 32.811409,5.117574 
	C32.937943,5.450957 32.810013,5.746680 32.428440,6.083086 
	C32.144402,5.945115 32.114010,5.766461 32.064449,5.316654 
z"/>
<path fill="#FBFBFB" opacity="1.000000" stroke="none" 
	d="
M42.234924,26.080811 
	C42.632305,26.051895 43.029682,26.022980 43.726570,25.993462 
	C44.015614,26.746712 44.005146,27.500565 44.009537,28.631382 
	C43.659782,28.987488 43.295170,28.966627 42.594963,28.579292 
	C42.251225,27.502150 42.243073,26.791479 42.234924,26.080811 
z"/>
<path fill="#C86F1B" opacity="1.000000" stroke="none" 
	d="
M31.620167,18.030891 
	C31.974531,18.787874 32.017078,19.588213 32.028511,21.040041 
	C31.644213,22.031206 31.291025,22.370884 30.749165,22.530388 
	C30.062925,22.200434 29.565357,22.050652 28.868114,21.660187 
	C28.108330,20.624014 27.548218,19.828522 26.998558,19.010738 
	C27.009010,18.988445 27.033478,18.945644 27.033478,18.945644 
	C28.458435,18.655178 29.883390,18.364712 31.620167,18.030891 
z"/>
<path fill="#996439" opacity="1.000000" stroke="none" 
	d="
M23.082611,18.121399 
	C23.064974,17.947001 23.047338,17.772600 23.007847,17.336918 
	C23.754927,17.020697 24.523865,16.965759 25.672312,16.839195 
	C26.231363,16.810699 26.410902,16.853828 26.860340,16.964895 
	C27.105049,17.458218 27.079861,17.883604 27.044075,18.627316 
	C27.033478,18.945644 27.009010,18.988445 26.648735,19.007254 
	C25.820379,19.033976 25.352297,19.041889 24.759817,18.793413 
	C24.117815,18.398481 23.600214,18.259941 23.082611,18.121399 
z"/>
<path fill="#F8B58A" opacity="1.000000" stroke="none" 
	d="
M30.937836,22.710564 
	C31.291025,22.370884 31.644213,22.031206 32.049324,21.440250 
	C32.535011,21.034031 32.968777,20.879093 33.710045,21.085989 
	C33.672123,22.737995 33.326698,24.028166 32.981274,25.318338 
	C32.979015,25.677332 32.976753,26.036324 32.900993,26.840103 
	C32.827496,27.284891 32.798126,27.690828 32.798126,27.690828 
	C32.391388,28.081091 31.984650,28.471354 31.294147,28.937958 
	C31.010380,29.014301 30.978254,28.986944 30.992422,28.711546 
	C30.876999,28.180557 30.747406,27.924967 30.617813,27.669376 
	C30.407246,28.118847 30.196676,28.568316 29.990969,29.010012 
	C29.995831,29.002237 30.005472,29.005238 29.729231,28.986328 
	C29.270004,28.943216 29.087021,28.919016 28.936062,28.554575 
	C28.652792,27.449671 28.337498,26.685007 27.707695,25.813023 
	C27.188459,25.621038 26.983732,25.536375 26.782547,25.116415 
	C26.853382,24.117477 26.920671,23.453835 27.378107,22.869341 
	C28.824783,22.869181 29.881310,22.789873 30.937836,22.710564 
M31.224827,25.225908 
	C31.413837,25.160759 31.602850,25.095610 31.791861,25.030462 
	C31.602041,24.968430 31.412222,24.906395 31.224827,25.225908 
z"/>
<path fill="#C38860" opacity="1.000000" stroke="none" 
	d="
M33.326130,25.174374 
	C33.326698,24.028166 33.672123,22.737995 34.052979,21.035976 
	C34.195671,20.376118 34.372833,20.197275 35.055683,20.024433 
	C35.491467,19.961260 35.990242,19.968731 35.990242,19.968731 
	C36.164112,19.978077 36.337986,19.987423 36.772980,20.006367 
	C37.034100,20.015963 36.983234,20.443907 36.746170,20.792183 
	C36.239182,21.395807 36.163578,21.699524 36.282307,22.051609 
	C35.411865,23.044542 34.541428,24.037477 33.326130,25.174374 
z"/>
<path fill="#CC9571" opacity="1.000000" stroke="none" 
	d="
M34.694740,17.163876 
	C34.941761,17.587311 34.955994,17.959913 34.982849,18.611244 
	C34.701160,18.459879 34.406853,18.029785 34.050308,17.331200 
	C33.988075,17.062706 34.461952,17.113043 34.694740,17.163876 
z"/>
<path fill="#CC9571" opacity="1.000000" stroke="none" 
	d="
M35.891113,19.772457 
	C35.990242,19.968731 35.491467,19.961260 35.242077,19.965912 
	C34.992687,19.970566 35.044113,19.504545 35.077057,19.273188 
	C35.386162,19.157616 35.613487,19.335735 35.891113,19.772457 
z"/>
<path fill="#AA846B" opacity="1.000000" stroke="none" 
	d="
M18.799681,26.922117 
	C18.854475,26.761787 18.909269,26.601456 19.286701,26.215107 
	C19.609341,25.989086 20.081757,26.003775 20.148773,26.247604 
	C20.453585,26.724773 20.691378,26.958115 20.948116,27.472145 
	C20.988405,28.129265 21.009748,28.505695 20.991047,29.071007 
	C20.951004,29.259886 20.907370,29.643568 20.863184,29.722897 
	C20.818998,29.802227 20.760241,29.974072 20.612593,30.080410 
	C20.294706,30.370914 20.187721,30.586512 20.143990,30.833536 
	C20.143990,30.833536 20.083498,30.951359 20.052414,31.010403 
	C19.690876,30.574665 19.360422,30.079885 18.986012,28.950867 
	C18.894596,27.851791 18.847137,27.386955 18.799681,26.922117 
z"/>
<path fill="#66D5FE" opacity="1.000000" stroke="none" 
	d="
M12.443594,31.004375 
	C12.092117,30.585073 12.049950,30.126978 11.991166,29.323986 
	C11.974551,28.979090 12.350046,28.895298 12.538765,28.866110 
	C13.231841,28.885176 13.736198,28.933430 14.619308,28.990070 
	C14.249675,29.654161 13.501288,30.309872 12.443594,31.004375 
z"/>
<path fill="#5CC3FD" opacity="1.000000" stroke="none" 
	d="
M18.500059,26.992115 
	C18.847137,27.386955 18.894596,27.851791 18.891243,28.663960 
	C18.418060,29.003351 17.995691,28.995415 17.255625,28.969801 
	C17.358765,28.322119 17.779600,27.692114 18.500059,26.992115 
z"/>
<path fill="#FBB78A" opacity="1.000000" stroke="none" 
	d="
M21.423332,33.925079 
	C21.074705,33.188457 21.013639,32.510735 20.945580,31.190502 
	C20.879137,30.356688 20.819689,30.165380 20.760241,29.974072 
	C20.760241,29.974072 20.818998,29.802227 21.156918,29.959553 
	C23.338202,30.050344 25.181564,29.983812 27.066727,30.267229 
	C27.165833,30.845039 27.223145,31.072899 27.132725,31.519081 
	C26.675055,32.159386 26.365116,32.581371 25.725843,33.118027 
	C24.753124,33.493774 24.109737,33.754852 23.466351,34.015923 
	C22.881199,34.005272 22.296045,33.994625 21.423332,33.925079 
z"/>
<path fill="#C48257" opacity="1.000000" stroke="none" 
	d="
M23.592342,34.286396 
	C24.109737,33.754852 24.753124,33.493774 26.055908,33.110020 
	C27.466099,33.317795 28.216890,33.648247 28.875530,34.197845 
	C28.581369,34.670441 28.331984,34.862316 27.760206,35.067337 
	C27.000227,35.429108 26.515263,35.716148 25.864319,35.749031 
	C25.123116,35.362152 24.547890,35.229435 23.972662,35.096718 
	C23.887886,34.916771 23.803112,34.736820 23.592342,34.286396 
z"/>
<path fill="#E8AB82" opacity="1.000000" stroke="none" 
	d="
M23.919792,35.273735 
	C24.547890,35.229435 25.123116,35.362152 25.844017,35.993805 
	C25.989691,36.492741 25.928230,36.980091 25.928230,36.980091 
	C25.411329,36.689571 24.894428,36.399052 24.113796,35.964195 
	C23.850067,35.819859 23.866920,35.450756 23.919792,35.273735 
z"/>
<path fill="#C88C70" opacity="1.000000" stroke="none" 
	d="
M20.612593,30.080410 
	C20.819689,30.165380 20.879137,30.356688 20.920856,30.849003 
	C20.903130,31.150009 20.512226,31.017395 20.328108,30.925465 
	C20.187721,30.586512 20.294706,30.370914 20.612593,30.080410 
z"/>
<path fill="#FEFEFD" opacity="1.000000" stroke="none" 
	d="
M28.035219,34.992611 
	C28.331984,34.862316 28.581369,34.670441 29.152969,34.142899 
	C29.911793,33.272110 30.301018,32.675423 30.690243,32.078732 
	C31.096428,32.540703 31.502615,33.002670 32.057537,33.735039 
	C31.801819,35.060921 31.397366,36.116402 30.986889,37.516430 
	C30.212721,37.592319 29.444574,37.323666 28.382298,36.646950 
	C28.070517,35.823463 28.052868,35.408035 28.035219,34.992611 
z"/>
<path fill="#B3AFB0" opacity="1.000000" stroke="none" 
	d="
M27.760206,35.067337 
	C28.052868,35.408035 28.070517,35.823463 28.083744,36.551788 
	C27.586580,37.495296 27.093838,38.125908 26.291927,38.789322 
	C25.977125,38.413147 25.971493,38.004173 25.947044,37.287643 
	C25.928230,36.980091 25.989691,36.492741 26.009995,36.247967 
	C26.515263,35.716148 27.000227,35.429108 27.760206,35.067337 
z"/>
<path fill="#5CC3FD" opacity="1.000000" stroke="none" 
	d="
M33.037750,28.008226 
	C32.798126,27.690828 32.827496,27.284891 32.930138,27.108223 
	C35.411602,26.321621 37.790424,25.711687 40.585052,25.434311 
	C40.954834,26.508888 40.908806,27.250910 40.862778,27.992929 
	C38.334312,28.103828 35.805847,28.214727 33.037750,28.008226 
z"/>
<path fill="#A26B47" opacity="1.000000" stroke="none" 
	d="
M30.752905,31.767757 
	C30.301018,32.675423 29.911793,33.272110 29.245125,33.923752 
	C28.216890,33.648247 27.466099,33.317795 26.385242,32.995350 
	C26.365116,32.581371 26.675055,32.159386 27.465683,31.475346 
	C28.609476,31.071304 29.272579,30.929317 30.156881,30.812847 
	C30.378082,30.838366 30.823133,30.822376 30.823133,30.822376 
	C30.820610,31.033846 30.818089,31.245314 30.752905,31.767757 
z"/>
<path fill="#688599" opacity="1.000000" stroke="none" 
	d="
M40.907234,28.312271 
	C40.908806,27.250910 40.954834,26.508888 40.950249,25.398689 
	C40.926632,24.851465 40.953632,24.672419 40.952301,24.221752 
	C41.074459,24.028252 41.224953,24.106373 41.611427,24.279060 
	C41.895802,24.761900 41.944202,25.150171 42.113762,25.809628 
	C42.243073,26.791479 42.251225,27.502150 42.321758,28.564390 
	C42.097916,29.162523 41.811691,29.409084 41.275772,29.786118 
	C41.001282,29.488262 40.976486,29.059938 40.907234,28.312271 
z"/>
<path fill="#FBB78A" opacity="1.000000" stroke="none" 
	d="
M31.025349,29.029964 
	C31.040316,29.045626 31.001097,29.391951 30.737370,29.575443 
	C30.473642,29.758936 30.078356,29.778542 30.064735,29.584782 
	C30.051115,29.391022 30.005472,29.005238 30.005472,29.005238 
	C30.005472,29.005238 29.995831,29.002237 30.240137,29.037813 
	C30.649046,29.044575 30.813650,29.015759 30.978254,28.986944 
	C30.978254,28.986944 31.010380,29.014301 31.025349,29.029964 
z"/>
<path fill="#CA916A" opacity="1.000000" stroke="none" 
	d="
M30.078356,29.778542 
	C30.078356,29.778542 30.473642,29.758936 30.670588,29.736408 
	C30.903563,29.901112 30.939592,30.088345 30.899376,30.548977 
	C30.823133,30.822376 30.378082,30.838366 30.191090,30.561298 
	C30.028849,30.115669 30.053602,29.947105 30.078356,29.778542 
z"/>
<path fill="#69B7CC" opacity="1.000000" stroke="none" 
	d="
M36.461212,21.899906 
	C36.163578,21.699524 36.239182,21.395807 36.715652,21.005489 
	C36.942833,21.199947 36.848804,21.492508 36.461212,21.899906 
z"/>
<path fill="#C56B1A" opacity="1.000000" stroke="none" 
	d="
M18.027880,22.137772 
	C18.294718,21.411278 18.650076,20.963425 19.078400,20.212498 
	C20.050634,20.312101 20.949902,20.714777 21.810713,21.690773 
	C21.514315,22.508471 21.256374,22.752851 20.659914,22.986267 
	C19.876389,23.039585 19.431379,23.103863 18.986372,23.168140 
	C18.696381,22.917564 18.406391,22.666988 18.027880,22.137772 
z"/>
<path fill="#C1997D" opacity="1.000000" stroke="none" 
	d="
M18.973078,23.518154 
	C19.431379,23.103863 19.876389,23.039585 20.722309,23.306398 
	C21.177801,23.847910 21.232380,24.058329 21.364613,24.401403 
	C21.608879,24.664814 21.796452,24.748940 22.074648,25.047924 
	C22.142107,25.489805 22.139906,25.670198 21.792294,25.879910 
	C20.991838,25.940744 20.536798,25.972260 20.081757,26.003775 
	C20.081757,26.003775 19.609341,25.989086 19.374043,25.976433 
	C19.079092,25.265242 19.019438,24.566706 18.973078,23.518154 
z"/>
<path fill="#F8B58A" opacity="1.000000" stroke="none" 
	d="
M22.137707,25.850590 
	C22.139906,25.670198 22.142107,25.489805 22.073399,24.895248 
	C22.002491,24.481085 22.039637,24.173214 22.292736,23.983170 
	C22.712626,23.196770 22.879417,22.600418 23.046209,22.004065 
	C23.046209,22.004065 23.192953,21.630167 23.511791,21.385227 
	C24.180023,21.132935 24.529419,21.125582 24.944595,21.490660 
	C24.940849,23.111294 24.871321,24.359499 24.482170,25.711451 
	C23.487600,25.826996 22.812653,25.838793 22.137707,25.850590 
z"/>
<path fill="#C18C69" opacity="1.000000" stroke="none" 
	d="
M24.878815,21.118229 
	C24.529419,21.125582 24.180023,21.132935 23.574028,21.194283 
	C23.237789,20.756392 23.158154,20.264509 23.286766,19.513729 
	C23.951618,19.342762 24.408220,19.430693 24.905212,19.918203 
	C24.923342,20.584597 24.901079,20.851412 24.878815,21.118229 
z"/>
<path fill="#C18C69" opacity="1.000000" stroke="none" 
	d="
M22.770622,21.956367 
	C22.879417,22.600418 22.712626,23.196770 22.101738,23.984045 
	C21.657642,24.174967 21.286957,24.268747 21.286957,24.268747 
	C21.232380,24.058329 21.177801,23.847910 21.060825,23.317360 
	C21.256374,22.752851 21.514315,22.508471 21.865536,22.006748 
	C22.137552,21.802494 22.316292,21.855583 22.770622,21.956367 
z"/>
<path fill="#634330" opacity="1.000000" stroke="none" 
	d="
M24.864820,19.518623 
	C24.408220,19.430693 23.951618,19.342762 23.287994,19.139389 
	C23.080971,19.023949 23.079750,18.571632 23.081181,18.346516 
	C23.600214,18.259941 24.117815,18.398481 24.747395,18.909885 
	C24.859371,19.282749 24.864820,19.518623 24.864820,19.518623 
z"/>
<path fill="#AB5912" opacity="1.000000" stroke="none" 
	d="
M24.905212,19.918201 
	C24.864820,19.518623 24.859371,19.282749 24.871794,19.166275 
	C25.352297,19.041889 25.820379,19.033976 26.638283,19.029547 
	C27.548218,19.828522 28.108330,20.624014 28.574379,21.698988 
	C27.982862,22.249043 27.485411,22.519617 26.987959,22.790192 
	C26.920671,23.453835 26.853382,24.117477 26.452953,25.085443 
	C25.680473,25.462412 25.241133,25.535057 24.801794,25.607702 
	C24.871321,24.359499 24.940849,23.111294 24.944595,21.490660 
	C24.901079,20.851412 24.923342,20.584597 24.905212,19.918201 
z"/>
<path fill="#7B4A23" opacity="1.000000" stroke="none" 
	d="
M27.378107,22.869341 
	C27.485411,22.519617 27.982862,22.249043 28.774052,21.939671 
	C29.565357,22.050652 30.062925,22.200434 30.749166,22.530390 
	C29.881310,22.789873 28.824783,22.869181 27.378107,22.869341 
z"/>
<path fill="#B7B5B5" opacity="1.000000" stroke="none" 
	d="
M24.482170,25.711451 
	C25.241133,25.535057 25.680473,25.462412 26.449408,25.420738 
	C26.983732,25.536375 27.188459,25.621038 27.666454,26.127514 
	C27.631811,27.032341 27.323900,27.515354 26.804716,27.766474 
	C25.089546,27.724943 23.585646,27.915306 21.952072,27.880829 
	C21.524654,27.501144 21.226912,27.346302 20.929169,27.191458 
	C20.691378,26.958115 20.453585,26.724773 20.148773,26.247604 
	C20.536798,25.972260 20.991838,25.940744 21.792294,25.879908 
	C22.812653,25.838793 23.487600,25.826996 24.482170,25.711451 
z"/>
<path fill="#E09B6E" opacity="1.000000" stroke="none" 
	d="
M30.064735,29.584782 
	C30.053602,29.947105 30.028849,30.115669 29.969889,30.535782 
	C29.272579,30.929317 28.609476,31.071304 27.613415,31.257025 
	C27.223145,31.072899 27.165833,30.845039 27.130398,30.127777 
	C27.152273,29.638376 27.298445,29.368860 27.425266,29.374535 
	C27.697006,29.276239 27.804085,29.141962 28.130924,28.955788 
	C28.560364,28.921070 28.732201,28.907944 28.904037,28.894815 
	C29.087021,28.919016 29.270004,28.943216 29.729231,28.986328 
	C30.005472,29.005238 30.051115,29.391022 30.064735,29.584782 
z"/>
<path fill="#9D918B" opacity="1.000000" stroke="none" 
	d="
M28.936062,28.554575 
	C28.732201,28.907944 28.560364,28.921070 27.992004,28.994537 
	C27.595482,29.054878 27.325703,29.163639 27.168743,29.037704 
	C27.011786,28.911768 26.701004,28.656036 26.747492,28.476244 
	C26.793980,28.296452 27.015989,27.998369 27.015987,27.998367 
	C27.323900,27.515354 27.631811,27.032341 27.980963,26.234833 
	C28.337498,26.685007 28.652792,27.449671 28.936062,28.554575 
z"/>
<path fill="#CA916A" opacity="1.000000" stroke="none" 
	d="
M30.992422,28.711546 
	C30.813650,29.015759 30.649046,29.044575 30.235275,29.045588 
	C30.196676,28.568316 30.407246,28.118847 30.617813,27.669376 
	C30.747406,27.924967 30.876999,28.180557 30.992422,28.711546 
z"/>
<path fill="#CA916A" opacity="1.000000" stroke="none" 
	d="
M31.223614,25.035133 
	C31.412222,24.906395 31.602041,24.968430 31.791861,25.030462 
	C31.602850,25.095610 31.413837,25.160759 31.223614,25.035133 
z"/>
<path fill="#C88C70" opacity="1.000000" stroke="none" 
	d="
M27.088600,29.777828 
	C25.181564,29.983812 23.338202,30.050344 21.201103,29.880222 
	C20.907370,29.643568 20.951004,29.259886 21.242592,29.103781 
	C21.703245,28.950727 21.872309,28.953779 22.433514,28.988548 
	C24.117441,28.898857 25.409222,28.777447 26.701004,28.656036 
	C26.701004,28.656036 27.011786,28.911768 27.138771,29.086555 
	C27.265759,29.261341 27.298445,29.368860 27.298445,29.368860 
	C27.298445,29.368860 27.152273,29.638376 27.088600,29.777828 
z"/>
<path fill="#AB9082" opacity="1.000000" stroke="none" 
	d="
M22.041370,28.956831 
	C21.872309,28.953779 21.703245,28.950727 21.282635,28.914902 
	C21.009748,28.505695 20.988405,28.129265 20.948116,27.472145 
	C21.226912,27.346302 21.524654,27.501144 21.930279,28.092953 
	C22.038160,28.529921 22.041370,28.956831 22.041370,28.956831 
z"/>
<path fill="#C56B1A" opacity="1.000000" stroke="none" 
	d="
M21.364613,24.401403 
	C21.286957,24.268747 21.657642,24.174967 21.848640,24.174091 
	C22.039637,24.173214 22.002491,24.481085 22.003740,24.633760 
	C21.796452,24.748940 21.608879,24.664814 21.364613,24.401403 
z"/>
<path fill="#F7F7F7" opacity="1.000000" stroke="none" 
	d="
M22.433514,28.988548 
	C22.041370,28.956831 22.038160,28.529921 22.059954,28.317795 
	C23.585646,27.915306 25.089546,27.724943 26.804718,27.766476 
	C27.015989,27.998369 26.793980,28.296452 26.747492,28.476244 
	C25.409222,28.777447 24.117441,28.898857 22.433514,28.988548 
z"/>
<path fill="#A26B47" opacity="1.000000" stroke="none" 
	d="
M27.425266,29.374535 
	C27.298445,29.368860 27.265759,29.261341 27.295731,29.212490 
	C27.325703,29.163639 27.595482,29.054878 27.734402,29.016129 
	C27.804085,29.141962 27.697006,29.276239 27.425266,29.374535 
z"/>
</svg>