<?xml version="1.0" standalone="no"?>
<!DOCTYPE svg PUBLIC "-//W3C//DTD SVG 20010904//EN"
 "http://www.w3.org/TR/2001/REC-SVG-20010904/DTD/svg10.dtd">
<svg version="1.0" xmlns="http://www.w3.org/2000/svg"
 width="340.000000pt" height="499.000000pt" viewBox="0 0 340.000000 499.000000"
 preserveAspectRatio="xMidYMid meet">

<g transform="translate(0.000000,499.000000) scale(0.100000,-0.100000)"
fill="#000000" stroke="none">
<path d="M10 2495 l0 -2485 1690 0 1690 0 0 511 c0 405 -3 510 -12 506 -52
-21 -51 -21 -40 -1 7 13 6 26 -4 47 -15 27 -14 28 5 18 11 -6 27 -11 35 -11
14 0 16 104 16 1053 0 806 -3 1056 -12 1065 -9 9 -9 12 0 12 9 0 12 203 12
885 l0 885 -1690 0 -1690 0 0 -2485z m1230 2339 c0 -9 -7 -14 -17 -12 -25 5
-28 28 -4 28 12 0 21 -6 21 -16z m-354 -86 c2 -3 -5 -60 -16 -128 -11 -67 -18
-125 -16 -128 3 -2 27 9 54 27 l48 31 12 96 c6 53 12 98 14 99 2 2 39 5 83 6
l80 2 -3 -69 c-2 -72 -30 -339 -37 -362 -3 -9 -9 -8 -23 5 -10 10 -17 22 -14
27 2 4 -6 5 -19 1 -13 -5 -46 -9 -73 -10 -41 -1 -51 -6 -57 -23 -11 -29 -21
-28 -14 1 7 25 20 23 -152 26 -34 1 -43 5 -49 23 -6 20 -8 19 -21 -13 -16 -37
-43 -177 -43 -221 0 -31 24 -39 34 -12 3 8 11 12 16 9 6 -4 17 -1 25 5 11 9
15 9 15 1 0 -17 18 -13 41 10 11 11 22 19 25 17 2 -2 1 -28 -3 -56 l-6 -52
-88 0 c-48 0 -90 3 -92 8 -2 4 13 106 34 227 21 121 39 228 39 238 0 15 -7 18
-47 15 -43 -3 -47 -6 -54 -33 -28 -127 -54 -225 -60 -225 -3 0 -4 12 -1 26 3
17 1 25 -6 21 -5 -4 -12 0 -16 8 -3 8 -12 12 -21 9 -8 -4 -15 -1 -15 6 0 9 -4
9 -17 -1 -13 -11 -17 -11 -20 -1 -16 47 -52 -44 -77 -195 -3 -20 0 -35 9 -43
11 -10 15 -10 15 -1 0 7 5 9 10 6 6 -3 10 2 10 12 0 11 3 14 8 7 17 -26 52
-22 76 7 14 16 27 29 29 29 2 0 0 -21 -4 -47 -4 -27 -8 -54 -8 -60 -1 -10 -26
-13 -90 -13 -50 0 -92 3 -94 8 -2 4 8 61 24 127 33 142 33 145 14 145 -8 0
-15 5 -15 11 0 6 8 8 18 5 15 -5 20 6 35 82 10 48 18 92 17 97 0 6 -26 10 -58
11 l-57 1 -21 101 c-12 56 -20 103 -19 104 5 5 636 0 641 -4z m599 0 c6 -7
115 -429 115 -446 -1 -19 3 -22 -46 43 -13 17 -22 21 -30 14 -7 -6 -30 -11
-51 -13 -38 -2 -38 -2 -35 -42 2 -21 8 -52 14 -69 25 -70 43 -105 52 -106 6 0
73 -1 149 -2 136 -2 138 -2 144 21 9 39 28 18 31 -37 l3 -51 -172 2 -172 3
-13 40 c-17 53 -50 167 -70 238 -14 51 -34 77 -34 45 0 -7 -9 -31 -20 -53 -17
-34 -20 -36 -16 -12 2 15 2 27 0 27 -1 0 -10 3 -20 7 -12 5 -15 3 -9 -6 6 -10
2 -11 -16 -5 -13 4 -32 7 -41 6 -10 0 -18 5 -18 13 0 8 -5 17 -12 21 -8 5 -9
0 -6 -14 4 -12 3 -20 -1 -17 -5 2 -29 -42 -56 -98 -26 -56 -49 -97 -51 -91 -3
6 18 66 44 135 27 68 75 196 107 284 32 88 62 162 66 165 8 5 159 4 164 -2z
m316 2 c3 0 29 -49 59 -110 29 -60 55 -110 58 -110 2 0 3 51 1 112 l-4 113 80
-4 c44 -1 82 -5 84 -7 5 -4 16 -149 26 -316 6 -105 5 -117 -9 -112 -9 3 -16
13 -16 21 0 12 -20 14 -110 12 -70 -2 -110 -6 -110 -13 0 -7 -3 -6 -8 1 -5 8
-29 11 -67 9 -39 -2 -67 2 -81 11 -19 12 -22 12 -29 -4 -3 -10 -9 -49 -12 -86
-3 -37 -10 -70 -14 -73 -9 -5 -13 549 -5 557 3 3 118 3 157 -1z m754 -3 c1 -1
14 -83 29 -182 15 -99 29 -198 33 -219 l5 -40 -32 27 c-23 20 -42 27 -75 27
-28 0 -43 -4 -42 -12 2 -61 -5 -97 -19 -102 -23 -9 -30 0 -15 18 10 11 8 41
-5 138 -9 68 -18 129 -20 136 -2 7 -21 12 -49 12 l-46 0 7 -122 7 -123 -22 19
c-11 11 -21 26 -21 34 0 11 -3 12 -13 3 -8 -6 -17 -7 -21 -3 -4 4 -14 -2 -23
-13 -15 -19 -15 -19 -9 5 6 23 6 23 -7 8 -8 -10 -16 -15 -20 -12 -3 3 -8 -3
-11 -14 -10 -29 13 -195 27 -204 17 -11 27 -10 27 3 0 7 59 10 186 8 171 -2
188 -1 200 16 14 19 16 17 28 -37 3 -14 9 -33 12 -42 6 -14 -19 -16 -235 -16
-184 0 -243 3 -246 13 -6 17 -64 671 -60 677 3 5 426 2 430 -3z m500 -3 c0 -5
-9 -51 -19 -101 l-18 -93 -99 0 c-55 0 -99 -3 -99 -7 1 -5 57 -42 125 -83 69
-41 125 -77 125 -80 0 -3 4 -22 9 -42 10 -45 -10 -43 -29 3 -7 16 -16 26 -21
23 -11 -6 -66 -16 -91 -16 -10 1 -18 -4 -18 -11 0 -8 -3 -8 -11 0 -17 17 -41
4 -34 -18 5 -14 -17 -6 -88 34 -147 81 -134 61 -165 237 -16 85 -25 157 -21
160 13 9 454 3 454 -6z m62 0 c-3 -3 -12 -4 -19 -1 -8 3 -5 6 6 6 11 1 17 -2
13 -5z m-37 -309 c0 -8 -7 -15 -15 -15 -8 0 -15 7 -15 15 0 8 7 15 15 15 8 0
15 -7 15 -15z m-2206 -150 c-25 -19 -40 -19 -24 0 7 8 20 15 28 15 13 0 12 -3
-4 -15z m71 -37 c-3 -29 -8 -66 -10 -83 -3 -16 0 -37 5 -45 8 -13 10 -12 10 3
0 10 4 16 9 13 5 -4 40 -6 78 -5 104 0 102 0 192 -3 l84 -4 34 36 34 35 -29
-65 -29 -65 -211 -3 c-244 -3 -219 -17 -202 115 14 104 19 123 31 123 6 0 7
-20 4 -52z m950 -28 c30 -58 73 -106 86 -93 5 5 31 7 58 3 46 -6 50 -4 62 19
l12 26 8 -25 c4 -14 7 -40 8 -57 l1 -33 -85 0 -85 0 -47 93 c-26 50 -53 106
-60 122 -12 28 -12 29 3 10 8 -11 26 -40 39 -65z m1043 48 c-3 -7 -13 -15 -24
-17 -16 -3 -17 -1 -5 13 16 19 34 21 29 4z m-228 -43 c0 -20 7 -51 14 -70 14
-32 17 -34 41 -25 14 5 93 9 175 8 136 -2 151 -1 163 16 13 18 15 16 31 -29 9
-27 16 -52 16 -57 0 -4 -67 -8 -150 -8 -122 0 -150 -3 -150 -14 0 -17 -80 -28
-95 -13 -7 7 -4 8 8 4 11 -4 17 -1 17 9 0 12 -7 14 -29 9 -24 -5 -30 -2 -39
22 -6 15 -13 56 -17 91 -3 35 -9 70 -12 78 -3 8 1 14 11 14 12 0 16 -10 16
-35z m157 29 c-3 -3 -12 -4 -19 -1 -8 3 -5 6 6 6 11 1 17 -2 13 -5z m-1464
-20 c-3 -9 -9 -11 -12 -6 -3 5 -15 12 -26 15 -13 3 -9 5 12 6 26 1 31 -2 26
-15z m1000 9 c-7 -2 -19 -2 -25 0 -7 3 -2 5 12 5 14 0 19 -2 13 -5z m-1853
-43 c0 -5 -7 -10 -15 -10 -8 0 -15 5 -15 10 0 6 7 10 15 10 8 0 15 -4 15 -10z
m1090 -210 c0 -10 -11 -15 -35 -15 -31 0 -45 12 -30 27 12 12 65 2 65 -12z
m1728 -33 c2 -10 -3 -17 -12 -17 -18 0 -29 16 -21 31 9 14 29 6 33 -14z
m-2942 -11 c11 -44 1 -81 -23 -84 -29 -4 -29 -8 2 -48 27 -35 30 -44 15 -44
-10 0 -80 88 -80 101 0 5 14 9 31 9 28 0 30 2 27 33 -3 29 -6 32 -38 32 l-35
0 -3 -82 c-4 -115 -22 -105 -22 12 l0 95 60 0 c54 0 60 -2 66 -24z m169 14 c4
-6 -12 -10 -39 -10 -46 0 -46 0 -46 -35 0 -33 2 -35 35 -35 19 0 35 -4 35 -10
0 -5 -16 -10 -35 -10 -32 0 -35 -2 -35 -29 0 -28 3 -30 40 -33 22 -2 41 -7 43
-13 3 -15 -95 -19 -104 -3 -9 14 -11 142 -3 171 4 13 16 17 54 17 27 0 52 -4
55 -10z m95 -72 c12 -38 23 -68 25 -68 2 0 13 30 26 68 26 80 28 84 39 77 12
-7 -51 -185 -65 -185 -7 0 -19 19 -28 43 -32 88 -45 136 -39 141 10 10 19 -6
42 -76z m260 73 c0 -6 -19 -11 -42 -13 -40 -3 -43 -5 -43 -33 0 -27 3 -30 33
-29 21 1 32 -3 32 -12 0 -9 -12 -14 -35 -14 -32 0 -35 -2 -35 -30 0 -29 2 -30
46 -30 32 0 44 -4 42 -12 -5 -16 -85 -23 -101 -9 -10 7 -15 126 -8 184 1 11
111 9 111 -2z m80 -82 l0 -79 40 0 c30 0 40 -4 40 -16 0 -13 -10 -15 -52 -12
l-53 3 -3 83 c-4 88 1 117 18 107 5 -3 10 -42 10 -86z m239 -2 c17 -50 31 -95
31 -100 0 -16 -17 -6 -28 17 -16 35 -75 34 -91 -1 -6 -13 -15 -22 -20 -19 -7
5 38 160 54 187 14 21 25 4 54 -84z m209 61 c4 -32 -13 -38 -21 -7 -5 17 -12
20 -44 17 l-38 -3 -3 -72 -3 -73 46 0 c38 0 45 3 45 20 0 11 5 20 10 20 6 0
10 -13 10 -30 0 -27 -9 -35 -33 -31 -5 1 -7 -9 -5 -21 2 -19 -2 -24 -24 -26
-16 -2 -28 2 -28 8 0 7 8 9 23 4 22 -7 22 -6 3 14 -10 12 -22 19 -26 17 -5 -3
-15 -2 -24 1 -13 5 -16 23 -16 93 0 48 3 91 7 95 4 4 32 6 63 4 52 -3 55 -5
58 -30z m170 -60 c18 -51 32 -96 32 -100 0 -17 -17 -6 -28 17 -9 20 -19 25
-47 25 -29 0 -37 -5 -45 -26 -6 -14 -14 -23 -19 -19 -8 5 36 156 54 185 13 21
23 7 53 -82z m220 -5 c3 -105 3 -105 -88 -100 l-45 2 -3 84 c-2 46 0 91 2 98
4 10 22 13 68 11 l63 -3 3 -92z m172 -3 c0 -60 -4 -100 -10 -100 -6 0 -10 40
-10 100 0 60 4 100 10 100 6 0 10 -40 10 -100z m125 30 c25 -38 47 -70 49 -70
3 0 4 30 3 66 -1 46 2 68 11 71 9 4 12 -19 12 -91 0 -52 -4 -97 -9 -100 -5 -4
-30 27 -55 66 -25 40 -46 69 -47 63 0 -5 -1 -35 -2 -65 -3 -85 -22 -66 -24 25
-2 78 1 105 12 105 3 0 25 -31 50 -70z m242 58 c-2 -8 -21 -13 -43 -13 -37 0
-39 -2 -39 -30 0 -27 3 -30 38 -33 50 -4 48 -22 -3 -22 -40 0 -40 0 -40 -39 0
-22 -4 -43 -10 -46 -6 -4 -10 30 -10 94 l0 101 56 0 c40 0 54 -3 51 -12z m81
-68 c-1 -38 1 -72 5 -76 8 -8 -11 -44 -23 -44 -11 0 -14 183 -4 193 16 16 24
-9 22 -73z m118 11 c21 -33 42 -60 46 -61 4 0 7 28 5 61 -1 42 2 63 11 66 9 4
12 -19 12 -91 0 -57 -4 -96 -10 -96 -5 0 -13 0 -17 0 -5 0 -8 3 -8 8 0 4 -16
33 -35 65 l-35 58 -5 -67 c-3 -41 -10 -69 -17 -72 -10 -3 -13 20 -13 91 0 129
5 132 66 38z m156 57 c3 -13 3 -73 0 -152 -3 -59 -20 -32 -22 34 -3 94 0 130
9 130 5 0 11 -6 13 -12z m179 -3 c-2 -5 -12 -9 -21 -7 -22 4 -30 -24 -30 -105
0 -93 -19 -76 -22 19 -3 80 -4 83 -27 83 -13 0 -26 6 -29 13 -3 10 12 12 65
10 40 -2 66 -7 64 -13z m139 -81 c33 -98 34 -125 5 -80 -23 35 -68 35 -91 1
-28 -43 -32 -19 -8 52 33 101 43 123 53 123 5 0 24 -43 41 -96z m-420 -184 c0
-5 -5 -10 -11 -10 -5 0 -7 5 -4 10 3 6 8 10 11 10 2 0 4 -4 4 -10z m-2020 -40
c0 -5 -7 -10 -15 -10 -8 0 -15 5 -15 10 0 6 7 10 15 10 8 0 15 -4 15 -10z
m-80 -15 c0 -8 -4 -15 -10 -15 -5 0 -10 7 -10 15 0 8 5 15 10 15 6 0 10 -7 10
-15z m1752 -60 c0 -5 -5 -11 -11 -13 -6 -2 -11 4 -11 13 0 9 5 15 11 13 6 -2
11 -8 11 -13z m848 -15 c0 -5 -4 -10 -10 -10 -5 0 -10 5 -10 10 0 6 5 10 10
10 6 0 10 -4 10 -10z m-1407 -9 c75 -1 77 -2 77 -26 0 -19 -6 -26 -27 -30 -28
-5 -56 -13 -163 -42 l-56 -15 2 -119 c1 -69 -2 -117 -7 -113 -5 3 -9 61 -9
129 l0 124 -62 -3 c-82 -5 -220 -49 -284 -91 -79 -52 -152 -86 -159 -75 -3 6
-1 10 4 10 6 0 11 6 11 13 0 23 84 93 154 129 36 18 73 30 271 85 33 9 64 19
68 23 4 4 29 6 55 5 26 -2 82 -3 125 -4z m682 -11 c3 -5 2 -10 -4 -10 -5 0
-13 5 -16 10 -3 6 -2 10 4 10 5 0 13 -4 16 -10z m-369 -40 c66 -18 212 -80
154 -65 -14 4 -41 8 -60 11 -19 3 -48 9 -65 13 -16 5 -81 15 -142 22 -96 11
-113 15 -113 30 0 10 5 19 12 21 19 7 138 -11 214 -32z m-1996 20 c0 -5 -5
-10 -11 -10 -5 0 -7 5 -4 10 3 6 8 10 11 10 2 0 4 -4 4 -10z m2484 -9 c24 -26
103 -222 128 -316 38 -147 21 -352 -35 -402 -18 -17 -18 -16 -11 12 3 17 13
45 20 63 25 62 37 198 24 265 -15 78 -55 190 -89 247 l-26 45 -7 -50 c-22
-142 -64 -218 -141 -252 -23 -11 -53 -24 -67 -30 -22 -10 -21 -11 13 -6 24 4
37 2 37 -6 0 -6 -3 -10 -7 -9 -11 3 -204 -90 -223 -107 -9 -8 -45 -24 -81 -35
-111 -36 -226 -44 -187 -13 12 9 214 96 283 122 l30 11 -35 -6 c-19 -3 -78
-22 -130 -41 -52 -18 -114 -41 -138 -49 -23 -9 -47 -14 -53 -12 -19 6 195 84
406 147 55 17 125 45 155 63 46 28 60 44 88 98 l33 66 -8 107 c-5 59 -6 107
-2 107 3 0 14 -8 23 -19z m-1643 -58 c-18 -62 -13 -89 19 -125 30 -32 39 -58
20 -58 -13 0 -2 -28 25 -65 24 -32 99 -70 209 -105 83 -27 183 -71 211 -94 16
-13 11 -13 -20 2 -48 24 -212 82 -228 82 -7 0 22 -15 63 -34 140 -63 153 -73
129 -102 -19 -23 -58 -16 -206 37 -28 10 -71 19 -95 20 -33 2 -58 13 -105 46
-64 46 -72 61 -90 171 -8 50 -21 47 -38 -10 -46 -157 -41 -323 15 -441 33 -70
36 -82 19 -71 -7 4 -28 41 -48 83 -36 76 -36 77 -35 211 0 146 10 196 74 351
57 138 109 204 81 102z m2469 27 c0 -5 -4 -10 -10 -10 -5 0 -10 5 -10 10 0 6
5 10 10 10 6 0 10 -4 10 -10z m-3012 -47 c-5 -26 -38 -29 -38 -4 0 15 6 21 21
21 14 0 19 -5 17 -17z m2847 -17 c8 -7 11 -16 8 -19 -5 -6 -33 17 -33 27 0 10
11 7 25 -8z m-1461 -32 c9 -8 16 -17 16 -18 0 -3 -69 9 -114 20 -19 5 -31 2
-37 -7 -7 -11 -9 -10 -9 4 0 14 10 17 64 17 45 0 69 -5 80 -16z m-17 -30 c-3
-3 -12 -4 -19 -1 -8 3 -5 6 6 6 11 1 17 -2 13 -5z m1463 -34 c0 -5 -4 -10 -10
-10 -5 0 -10 5 -10 10 0 6 5 10 10 10 6 0 10 -4 10 -10z m-2190 -69 c-21 -31
-40 -40 -40 -21 0 13 51 62 58 56 2 -3 -6 -19 -18 -35z m1870 -31 c0 -5 -2
-10 -4 -10 -3 0 -8 5 -11 10 -3 6 -1 10 4 10 6 0 11 -4 11 -10z m-2660 -29 c0
-6 -4 -13 -10 -16 -5 -3 -10 1 -10 9 0 9 5 16 10 16 6 0 10 -4 10 -9z m3150
-87 c0 -16 -37 -37 -50 -29 -6 3 -10 16 -10 29 0 19 4 22 30 18 17 -2 30 -10
30 -18z m-1505 -10 c42 -20 112 -80 104 -89 -4 -3 -22 7 -40 23 -19 16 -44 34
-56 41 -26 13 -66 15 -58 1 3 -5 -4 -19 -15 -30 -22 -22 -46 -20 -85 6 -16 12
-17 14 -3 14 9 0 20 -4 23 -10 11 -18 41 -11 41 10 0 27 -29 34 -124 28 -62
-4 -79 -9 -93 -27 -9 -11 -24 -21 -32 -21 -9 0 -29 -12 -46 -26 -17 -14 -31
-23 -31 -19 0 18 23 44 61 71 39 27 51 29 158 35 64 3 127 6 139 7 13 1 39 -5
57 -14z m-985 -29 c0 -8 -9 -15 -20 -15 -11 0 -20 7 -20 15 0 8 9 15 20 15 11
0 20 -7 20 -15z m2400 -5 c0 -5 -4 -10 -10 -10 -5 0 -10 5 -10 10 0 6 5 10 10
10 6 0 10 -4 10 -10z m-2570 -10 c0 -5 -7 -10 -15 -10 -8 0 -15 5 -15 10 0 6
7 10 15 10 8 0 15 -4 15 -10z m802 -42 c-7 -7 -12 -8 -12 -2 0 14 12 26 19 19
2 -3 -1 -11 -7 -17z m1093 -42 c17 -12 18 -18 7 -54 -11 -37 -15 -40 -48 -39
l-35 1 7 40 c10 65 31 80 69 52z m-202 -10 c18 -7 41 -23 52 -36 19 -22 18
-22 -30 4 -61 32 -87 32 -194 1 -47 -14 -87 -25 -90 -25 -14 1 59 35 109 51
67 22 110 23 153 5z m-1499 -49 c8 -12 6 -26 -5 -49 -9 -18 -21 -44 -26 -57
-9 -24 -10 -23 -31 20 -26 54 -28 86 -5 111 14 16 19 16 37 5 11 -8 25 -21 30
-30z m809 34 c-61 -3 -115 -9 -118 -13 -4 -4 -11 -22 -15 -40 l-8 -33 -1 32
c-2 63 -1 63 133 61 l121 -2 -112 -5z m-447 -33 c81 -25 63 -36 -24 -14 -33 9
-71 16 -85 16 -14 0 -29 5 -32 10 -11 18 70 11 141 -12z m478 16 c69 -10 57
-29 -20 -31 -36 0 -76 -4 -90 -7 -17 -5 -24 -2 -24 8 0 32 45 42 134 30z m516
-45 c0 -16 -31 -38 -52 -39 -25 0 -22 16 4 34 26 19 48 21 48 5z m-1012 -31
c18 -18 14 -28 -11 -28 -23 0 -47 17 -47 32 0 12 45 9 58 -4z m406 -54 c16 -6
23 -34 9 -34 -11 1 -43 26 -43 34 0 8 14 8 34 0z m69 -21 c-7 -2 -21 -2 -30 0
-10 3 -4 5 12 5 17 0 24 -2 18 -5z m-128 -23 c-3 -5 -12 -7 -20 -3 -21 7 -19
13 6 13 11 0 18 -4 14 -10z m-786 -94 c-16 -40 -34 -59 -26 -28 3 15 1 22 -9
22 -17 0 -17 0 -3 56 l12 45 19 -32 c17 -27 18 -36 7 -63z m1931 86 c0 -13
-12 -22 -22 -16 -10 6 -1 24 13 24 5 0 9 -4 9 -8z m-1012 -34 c51 3 68 -4 53
-22 -6 -7 -36 -13 -68 -15 -32 -1 -75 -3 -95 -4 -30 -2 -38 1 -38 15 0 25 30
38 70 30 19 -3 54 -6 78 -4z m940 -75 c-2 -9 -8 -18 -15 -20 -17 -6 -32 28
-26 59 l5 28 20 -25 c11 -14 18 -33 16 -42z m-68 42 c0 -17 -2 -18 -24 -9 -23
9 -20 24 4 24 11 0 20 -7 20 -15z m126 1 c10 -8 15 -18 11 -22 -4 -4 -17 2
-29 14 -25 25 -13 30 18 8z m-1314 -22 c-46 -32 -252 -280 -252 -303 0 -5 -7
-14 -15 -21 -13 -11 -14 -10 -8 6 34 92 189 291 251 323 42 22 57 19 24 -5z
m108 1 c0 -10 -10 -15 -30 -15 -22 0 -28 4 -24 15 4 8 17 15 30 15 15 0 24 -6
24 -15z m-307 -119 c-71 -68 -129 -123 -131 -121 -4 4 63 101 92 134 30 34
136 111 152 111 8 0 -43 -56 -113 -124z m-473 100 c0 -7 -9 -20 -20 -27 -16
-11 -21 -29 -25 -89 -4 -41 -10 -104 -14 -140 -8 -59 -8 -61 -10 -20 -2 61
-11 90 -27 90 -7 0 -16 -11 -20 -24 -3 -14 -11 -27 -18 -29 -14 -6 -15 -93 -2
-142 l8 -30 -18 25 c-14 19 -19 45 -21 107 -3 104 8 134 69 194 26 26 48 56
48 67 0 11 6 23 13 25 23 10 37 7 37 -7z m148 2 c-6 -18 -28 -21 -28 -4 0 9 7
16 16 16 9 0 14 -5 12 -12z m-623 -28 c3 -5 1 -10 -4 -10 -6 0 -11 5 -11 10 0
6 2 10 4 10 3 0 8 -4 11 -10z m2546 -72 c22 -43 38 -136 18 -103 -7 11 -18 24
-26 28 -15 9 -18 37 -3 37 11 0 -14 55 -29 64 -5 4 -7 -34 -5 -91 3 -72 2 -92
-6 -75 -5 13 -12 68 -14 123 l-4 100 25 -23 c14 -13 33 -39 44 -60z m-1711 63
c0 -12 -35 -49 -74 -79 -30 -23 -52 -29 -41 -12 4 7 -5 9 -24 5 -39 -7 -39 3
-2 39 41 39 141 72 141 47z m1504 -31 c9 -22 16 -55 15 -73 0 -28 -2 -26 -18
23 -10 30 -22 63 -26 73 -4 9 -3 17 3 17 5 0 17 -18 26 -40z m-1763 -43 c-12
-35 -25 -83 -30 -108 -9 -43 -9 -43 -10 -9 -1 33 29 156 44 180 17 28 15 -5
-4 -63z m-630 46 c37 5 38 4 33 -23 -4 -15 -1 -37 5 -49 10 -19 4 -28 -14 -18
-2 1 -10 -7 -18 -17 -14 -19 -43 -14 -32 5 4 5 -5 5 -20 -1 -15 -6 -28 -10
-29 -10 -6 0 1 40 7 46 12 13 7 44 -7 44 -9 0 -12 7 -9 20 4 16 9 18 26 9 11
-6 37 -9 58 -6z m303 -55 c-12 -41 -44 -46 -44 -8 0 13 5 17 14 14 8 -3 17 -1
21 5 11 19 17 12 9 -11z m2356 -28 c0 -5 -4 -10 -10 -10 -5 0 -10 5 -10 10 0
6 5 10 10 10 6 0 10 -4 10 -10z m-2557 -30 c-6 -23 -14 -25 -31 -8 -18 18 -14
28 12 28 19 0 23 -4 19 -20z m1167 -27 c0 -8 9 -17 20 -20 11 -3 20 -9 20 -14
0 -5 7 -9 15 -9 8 0 19 -9 25 -20 9 -16 8 -20 -5 -20 -11 0 -15 -11 -15 -40 0
-25 5 -40 13 -40 8 0 9 -3 1 -8 -6 -4 -10 -27 -9 -51 1 -42 3 -45 43 -62 52
-22 55 -31 5 -14 -51 17 -173 29 -153 15 12 -7 8 -10 -17 -10 -51 0 -64 9 -57
39 7 33 32 109 46 137 5 11 11 44 11 73 2 53 17 74 44 64 7 -3 13 -12 13 -20z
m-1210 -3 c0 -5 -5 -10 -11 -10 -5 0 -7 5 -4 10 3 6 8 10 11 10 2 0 4 -4 4
-10z m2550 1 c0 -6 -4 -13 -10 -16 -5 -3 -10 1 -10 9 0 9 5 16 10 16 6 0 10
-4 10 -9z m-2710 -53 c-1 -7 -10 -2 -20 11 -26 30 -26 47 0 21 11 -11 20 -26
20 -32z m125 32 c3 -5 2 -10 -4 -10 -5 0 -13 5 -16 10 -3 6 -2 10 4 10 5 0 13
-4 16 -10z m-25 -20 c0 -5 -4 -10 -10 -10 -5 0 -10 5 -10 10 0 6 5 10 10 10 6
0 10 -4 10 -10z m434 -34 c-6 -16 -8 -17 -16 -2 -11 19 0 42 13 29 6 -6 7 -18
3 -27z m700 -89 c-19 -45 -39 -90 -44 -99 -6 -10 -10 -24 -10 -32 0 -9 -16
-28 -36 -43 -20 -15 -52 -41 -70 -57 -54 -45 -39 -18 21 40 49 47 55 57 55 94
0 23 4 39 9 36 12 -8 22 20 15 39 -4 8 -1 15 5 15 6 0 10 4 9 8 -5 14 67 101
73 90 4 -5 -9 -47 -27 -91z m1486 62 c-11 -38 -20 -49 -20 -25 0 17 17 56 25
56 2 0 0 -14 -5 -31z m-2685 -9 c3 -5 1 -10 -4 -10 -6 0 -11 5 -11 10 0 6 2
10 4 10 3 0 8 -4 11 -10z m-15 -64 c0 -3 -4 -8 -10 -11 -5 -3 -10 -1 -10 4 0
6 5 11 10 11 6 0 10 -2 10 -4z m175 -36 c3 -5 -1 -10 -9 -10 -9 0 -16 5 -16
10 0 6 4 10 9 10 6 0 13 -4 16 -10z m-186 -29 c0 -10 -2 -11 -6 -3 -2 6 -9 10
-14 6 -5 -3 -9 2 -9 10 0 10 6 13 15 10 8 -4 15 -14 14 -23z m119 -6 c-4 -30
-38 -33 -38 -3 0 17 6 24 20 24 15 0 20 -6 18 -21z m1532 -25 c0 -16 -4 -30
-8 -30 -5 0 -7 14 -4 30 2 17 6 30 8 30 2 0 4 -13 4 -30z m255 10 c4 -6 -8
-10 -27 -11 l-33 -1 30 -10 c17 -6 35 -15 42 -20 6 -5 24 -13 40 -17 19 -6 6
-8 -42 -6 -115 5 -114 5 -85 17 l25 10 -30 14 c-19 8 -23 13 -12 14 9 0 17 5
17 10 0 6 15 10 34 10 19 0 38 -4 41 -10z m730 0 c-3 -5 -11 -10 -16 -10 -6 0
-7 5 -4 10 3 6 11 10 16 10 6 0 7 -4 4 -10z m-2600 -40 c3 -5 1 -10 -4 -10 -6
0 -11 5 -11 10 0 6 2 10 4 10 3 0 8 -4 11 -10z m561 -34 c22 -17 11 -35 -13
-20 -19 12 -29 34 -16 34 5 0 18 -6 29 -14z m721 -23 c5 -15 -21 -29 -69 -36
-47 -7 -49 7 -5 33 34 22 68 23 74 3z m123 7 c0 -5 -20 -10 -45 -10 -25 0 -45
5 -45 10 0 6 20 10 45 10 25 0 45 -4 45 -10z m-252 -47 c-2 -9 -21 -27 -43
-39 -47 -27 -55 -29 -55 -10 0 14 74 66 93 66 5 0 7 -7 5 -17z m103 -60 c-12
-20 -14 -14 -5 12 4 9 9 14 11 11 3 -2 0 -13 -6 -23z m-221 -38 c-7 -8 -19
-15 -26 -15 -22 0 -16 27 9 45 20 14 22 14 25 0 2 -9 -2 -22 -8 -30z m66 14
c-14 -17 -29 -43 -32 -57 -4 -15 -12 -34 -18 -42 -10 -13 -9 -13 7 -1 26 21
34 4 10 -21 l-22 -21 -6 36 c-8 40 18 94 58 122 31 22 32 19 3 -16z m438 -1
c-3 -5 -10 -6 -15 -3 -5 4 -9 1 -9 -4 0 -6 -5 -11 -11 -11 -6 0 -9 8 -7 18 2
9 10 16 16 15 7 -2 12 3 12 10 0 8 3 7 9 -3 6 -8 7 -18 5 -22z m-240 -7 c17
-19 17 -21 -5 -50 -12 -17 -26 -28 -31 -25 -16 10 -6 94 12 94 4 0 15 -9 24
-19z m-629 -230 c-14 -95 -25 -186 -25 -201 0 -16 -4 -31 -9 -34 -13 -8 -3 95
25 265 13 81 24 151 25 155 0 5 3 4 5 -2 3 -6 -7 -89 -21 -183z m311 157 c-33
-47 -45 -77 -55 -138 -14 -85 -21 -87 -21 -6 0 74 15 113 56 145 34 27 40 27
20 -1z m-400 -125 c-3 -75 -8 -138 -10 -140 -11 -11 -16 141 -7 197 6 36 11
68 11 73 0 4 3 7 6 7 3 0 3 -62 0 -137z m274 -37 c-10 -21 -22 -63 -25 -94
-11 -96 -26 -118 -20 -29 4 70 20 120 48 155 18 23 17 6 -3 -32z m-99 -192
c-5 -21 -9 -30 -10 -19 -1 24 10 67 15 62 3 -2 0 -22 -5 -43z m-471 -74 c0 -5
-4 -10 -10 -10 -5 0 -10 5 -10 10 0 6 5 10 10 10 6 0 10 -4 10 -10z m2570 0
c0 -5 -7 -10 -15 -10 -8 0 -15 5 -15 10 0 6 7 10 15 10 8 0 15 -4 15 -10z
m-2820 -100 c0 -5 -5 -10 -11 -10 -5 0 -7 5 -4 10 3 6 8 10 11 10 2 0 4 -4 4
-10z m2650 -380 c0 -5 -7 -10 -15 -10 -8 0 -15 5 -15 10 0 6 7 10 15 10 8 0
15 -4 15 -10z m-2680 -51 c-6 -10 -17 -19 -25 -19 -21 0 -19 38 3 43 26 6 33
-2 22 -24z m910 -29 c0 -5 -4 -10 -10 -10 -5 0 -10 5 -10 10 0 6 5 10 10 10 6
0 10 -4 10 -10z m1560 -70 c0 -5 -4 -10 -10 -10 -5 0 -10 5 -10 10 0 6 5 10
10 10 6 0 10 -4 10 -10z m-1036 -96 c17 -7 22 -44 6 -44 -5 0 -10 7 -10 15 0
9 -9 15 -25 15 -36 0 -31 -24 10 -49 25 -15 35 -27 35 -46 0 -23 -4 -25 -45
-25 -38 0 -45 3 -45 20 0 23 15 27 24 5 3 -8 15 -15 26 -15 33 0 24 33 -15 54
-65 36 -31 97 39 70z m136 -5 c0 -5 -7 -9 -15 -9 -12 0 -15 -13 -15 -60 0 -33
-4 -60 -10 -60 -5 0 -10 25 -10 56 0 47 -3 57 -20 61 -11 3 -18 8 -16 12 6 10
86 10 86 0z m228 -2 c18 -14 16 -67 -3 -67 -19 0 -19 -11 -1 -35 10 -14 11
-25 5 -38 -11 -20 -31 -14 -23 8 3 7 -2 25 -12 40 -18 27 -14 36 20 48 20 7
-4 38 -26 35 -20 -3 -24 -10 -29 -63 l-6 -60 -1 67 c-2 56 1 67 16 70 30 7 47
6 60 -5z m-740 -68 l-3 -54 -42 -3 c-41 -3 -43 -2 -43 25 l0 28 19 -24 c31
-40 51 -22 51 46 0 40 3 54 11 46 5 -5 9 -34 7 -64z m52 6 c0 -37 -4 -65 -10
-65 -6 0 -10 28 -10 65 0 37 4 65 10 65 6 0 10 -28 10 -65z m76 20 c19 -50 26
-49 44 8 18 56 30 45 30 -29 0 -36 -4 -63 -8 -60 -5 3 -7 20 -5 38 4 31 3 32
-11 14 -9 -11 -16 -26 -16 -33 0 -23 -19 -14 -35 17 -21 40 -27 38 -19 -5 4
-23 2 -35 -5 -35 -7 0 -11 24 -11 65 0 36 4 65 9 65 5 0 17 -20 27 -45z m478
-16 c18 -64 17 -80 -4 -54 -16 19 -49 19 -56 0 -4 -8 -10 -15 -14 -15 -5 0 1
29 13 65 12 36 26 65 33 65 6 0 19 -27 28 -61z m223 -54 c11 0 25 -3 29 -7 4
-5 -8 -8 -27 -8 -35 0 -85 40 -61 48 7 2 12 18 12 36 0 58 15 50 20 -11 4 -51
8 -58 27 -58z m83 50 c0 -37 -4 -65 -10 -65 -6 0 -10 28 -10 65 0 37 4 65 10
65 6 0 10 -28 10 -65z m80 25 c25 -49 43 -52 39 -6 -2 19 0 38 4 42 4 4 7 -23
7 -59 0 -37 -3 -67 -7 -67 -5 0 -18 19 -31 41 -27 46 -38 44 -33 -7 1 -19 -2
-34 -8 -34 -7 0 -11 25 -11 65 0 36 4 65 10 65 5 0 19 -18 30 -40z m-1223
-245 c-17 -35 -28 -31 -14 4 6 17 14 28 18 25 4 -2 2 -15 -4 -29z m156 23 c-2
-5 -3 -20 -3 -34 0 -21 -4 -25 -22 -22 -23 3 -34 28 -24 54 6 15 53 16 49 2z
m147 1 c0 -5 -4 -7 -10 -4 -5 3 -10 2 -10 -4 0 -5 5 -13 10 -16 18 -11 11 -35
-10 -35 -11 0 -20 4 -20 10 0 5 7 7 15 4 8 -4 15 -2 15 4 0 5 -7 12 -15 16
-22 8 -18 36 5 36 11 0 20 -5 20 -11z m162 -1 c-5 -7 -12 -24 -14 -38 -3 -20
-5 -18 -9 13 -4 32 -2 37 14 37 14 0 17 -3 9 -12z m218 2 c-13 -9 -13 -11 0
-20 9 -6 10 -10 3 -10 -6 0 -14 -8 -16 -17 -3 -10 -5 -1 -6 20 -1 29 3 37 17
37 14 0 15 -2 2 -10z m77 -25 c-2 -30 -4 -33 -17 -19 -13 13 -13 16 0 24 8 5
11 12 7 16 -3 4 -13 1 -22 -6 -8 -7 -15 -8 -15 -3 0 15 11 23 32 23 14 0 17
-7 15 -35z m68 -34 c-3 -3 -9 6 -12 19 l-6 24 -10 -25 c-5 -13 -11 -19 -13
-13 -3 6 0 24 6 40 l12 29 14 -34 c8 -19 12 -37 9 -40z m221 45 c7 -31 -1 -46
-27 -46 -15 0 -19 7 -19 35 0 28 4 35 20 35 12 0 22 -9 26 -24z m128 16 c-7
-4 -14 -18 -17 -32 -4 -21 -4 -20 -6 8 -1 24 3 32 17 32 11 0 13 -3 6 -8z m86
-37 c-17 -20 -27 -19 -40 6 -15 27 -4 38 14 14 13 -18 14 -18 22 6 6 20 9 21
12 6 2 -10 -2 -24 -8 -32z m120 36 c0 -17 -18 -21 -24 -6 -3 9 0 15 9 15 8 0
15 -4 15 -9z m-1300 -51 c0 -5 -9 -1 -20 10 -11 11 -20 25 -20 32 0 6 9 2 20
-10 11 -12 20 -26 20 -32z m120 40 c0 8 2 11 5 8 3 -3 2 -16 -3 -28 -9 -24
-13 -21 -26 14 -5 16 -4 17 9 6 12 -10 15 -10 15 0z m148 -11 c7 -12 11 -23 8
-26 -7 -7 -36 23 -36 36 0 18 14 13 28 -10z m31 -11 c0 -31 -1 -31 -10 -10 -5
13 -7 28 -3 33 10 16 14 9 13 -23z m28 -5 c-3 -10 -5 -4 -5 12 0 17 2 24 5 18
2 -7 2 -21 0 -30z m458 20 c7 -17 8 -16 15 2 7 16 9 13 9 -15 l1 -35 -19 24
c-14 18 -20 21 -24 10 -3 -8 -6 -5 -6 9 -1 26 14 29 24 5z m72 3 c-3 -6 0 -20
6 -31 9 -17 8 -18 -5 -7 -13 10 -17 10 -21 0 -3 -7 -6 1 -6 18 -1 21 4 31 14
31 9 0 14 -5 12 -11z m183 4 c0 -5 -4 -10 -10 -10 -5 0 -10 5 -10 10 0 6 5 10
10 10 6 0 10 -4 10 -10z m72 -13 c-7 -8 -10 -17 -7 -21 3 -3 0 -2 -6 3 -8 7
-8 13 2 24 17 18 26 13 11 -6z m132 7 c9 -24 6 -42 -4 -19 -7 17 -9 17 -9 3
-1 -10 -5 -18 -10 -18 -4 0 -6 11 -3 25 5 28 17 33 26 9z m106 6 c0 -5 -4 -10
-10 -10 -5 0 -10 5 -10 10 0 6 5 10 10 10 6 0 10 -4 10 -10z m-900 -15 c0 -15
-38 -13 -44 1 -3 7 5 11 20 10 13 0 24 -6 24 -11z m80 -11 c0 -16 -16 -19 -25
-4 -8 13 4 32 16 25 5 -4 9 -13 9 -21z m-595 -4 c3 -5 1 -10 -4 -10 -6 0 -11
5 -11 10 0 6 2 10 4 10 3 0 8 -4 11 -10z m1077 -12 c-7 -7 -12 -8 -12 -2 0 14
12 26 19 19 2 -3 -1 -11 -7 -17z m38 12 c0 -5 -4 -10 -10 -10 -5 0 -10 5 -10
10 0 6 5 10 10 10 6 0 10 -4 10 -10z m310 0 c0 -5 -9 -10 -20 -10 -11 0 -20 5
-20 10 0 6 9 10 20 10 11 0 20 -4 20 -10z m540 0 c0 -5 -7 -10 -15 -10 -8 0
-15 5 -15 10 0 6 7 10 15 10 8 0 15 -4 15 -10z m-2020 -90 c0 -23 -25 -27 -33
-6 -5 13 5 23 26 25 4 1 7 -8 7 -19z m561 -27 c1 -15 2 -15 6 -2 2 10 15 16
33 16 23 0 30 -5 31 -21 2 -20 2 -20 6 1 6 31 62 30 64 -1 2 -20 2 -20 6 2 4
18 11 22 39 22 32 0 34 -2 34 -34 0 -19 5 -38 10 -41 21 -13 9 -25 -25 -25
-29 0 -35 4 -36 23 l-2 22 -4 -23 c-6 -29 -25 -24 -35 9 -7 23 -7 22 -4 -3 2
-16 -1 -28 -5 -28 -5 0 -9 6 -9 13 0 8 -3 9 -8 1 -4 -6 -35 -11 -69 -11 l-63
1 0 48 c0 36 4 48 15 48 8 0 16 -8 16 -17z m1097 -4 c-2 -6 -8 -10 -13 -10 -5
0 -11 4 -13 10 -2 6 4 11 13 11 9 0 15 -5 13 -11z m-753 -149 l0 -35 -157 -3
-158 -3 0 41 0 41 158 -3 157 -3 0 -35z"/>
<path d="M2975 4380 c3 -5 14 -10 23 -10 15 0 15 2 2 10 -20 13 -33 13 -25 0z"/>
<path d="M2840 4350 c0 -13 11 -13 30 0 12 8 11 10 -7 10 -13 0 -23 -4 -23
-10z"/>
<path d="M1211 3889 c-16 -45 -14 -49 15 -49 24 0 26 2 20 32 -9 48 -22 54
-35 17z"/>
<path d="M1592 3891 c-16 -52 -16 -51 17 -51 l30 0 -16 45 c-8 25 -16 45 -17
45 -2 0 -8 -17 -14 -39z"/>
<path d="M1755 3942 c-3 -3 -5 -36 -5 -74 0 -54 3 -68 15 -68 8 0 15 6 15 13
0 9 2 9 9 -1 4 -8 18 -12 31 -10 23 3 25 21 21 132 -1 10 -13 15 -41 14 -21 0
-41 -3 -45 -6z"/>
<path d="M3021 3889 c-16 -45 -14 -49 18 -49 28 0 28 0 18 40 -13 48 -21 50
-36 9z"/>
<path d="M2280 3070 c-13 -9 -13 -10 0 -10 8 0 22 5 30 10 13 9 13 10 0 10 -8
0 -22 -5 -30 -10z"/>
<path d="M866 3391 c-14 -26 -14 -30 -1 -25 8 3 17 15 21 26 10 32 -3 32 -20
-1z"/>
<path d="M960 3175 c7 -8 17 -15 22 -15 6 0 5 7 -2 15 -7 8 -17 15 -22 15 -6
0 -5 -7 2 -15z"/>
<path d="M662 2548 c-14 -14 -16 -48 -3 -48 9 0 25 49 18 56 -2 2 -9 -2 -15
-8z"/>
<path d="M1786 665 c-10 -28 -7 -45 9 -45 16 0 20 27 6 48 -7 11 -10 10 -15
-3z"/>
<path d="M1107 443 c-13 -12 -7 -43 8 -43 9 0 15 9 15 25 0 24 -10 32 -23 18z"/>
<path d="M2000 426 c0 -17 5 -26 16 -26 10 0 14 7 12 22 -5 32 -28 35 -28 4z"/>
<path d="M1541 274 c0 -11 3 -14 6 -6 3 7 2 16 -1 19 -3 4 -6 -2 -5 -13z"/>
<path d="M1710 141 c0 -25 2 -26 63 -25 56 1 62 3 63 23 1 12 -3 24 -7 27 -5
3 -10 -5 -10 -18 -1 -17 -3 -18 -6 -5 -3 10 -15 17 -31 18 -15 0 -37 2 -49 3
-19 2 -23 -2 -23 -23z"/>
<path d="M1565 149 c-12 -19 24 -34 75 -31 41 3 50 7 50 23 0 17 -8 19 -59 19
-33 0 -63 -5 -66 -11z"/>
</g>
</svg>
